STARTFONT 2.1
COMMENT
COMMENT Converted from OpenType font "SFCompact.ttf" by "otf2bdf 3.0".
COMMENT
FONT -FreeType-.SF Compact-Medium-R-Normal--9-90-72-72-P-56-ISO10646-1
SIZE 9 72 72
FONTBOUNDINGBOX 14 14 -2 -3
STARTPROPERTIES 19
FOUNDRY "FreeType"
FAMILY_NAME ".SF Compact"
WEIGHT_NAME "Medium"
SLANT "R"
SETWIDTH_NAME "Normal"
ADD_STYLE_NAME ""
PIXEL_SIZE 9
POINT_SIZE 90
RESOLUTION_X 72
RESOLUTION_Y 72
SPACING "P"
AVERAGE_WIDTH 56
CHARSET_REGISTRY "ISO10646"
CHARSET_ENCODING "1"
FONT_ASCENT 8
FONT_DESCENT 2
COPYRIGHT "© 2025 Apple Inc. All rights reserved."
_OTF_FONTFILE "SFCompact.ttf"
_OTF_PSNAME ".SFCompact-Black"
ENDPROPERTIES
CHARS 1280
STARTCHAR 0020
ENCODING 32
SWIDTH 222 0
DWIDTH 2 0
BBX 0 0 0 0
BITMAP
ENDCHAR
STARTCHAR 0021
ENCODING 33
SWIDTH 333 0
DWIDTH 3 0
BBX 2 6 1 0
BITMAP
C0
C0
C0
C0
00
C0
ENDCHAR
STARTCHAR 0022
ENCODING 34
SWIDTH 555 0
DWIDTH 5 0
BBX 4 3 1 3
BITMAP
B0
B0
B0
ENDCHAR
STARTCHAR 0023
ENCODING 35
SWIDTH 666 0
DWIDTH 6 0
BBX 6 6 0 0
BITMAP
28
7C
58
F8
50
50
ENDCHAR
STARTCHAR 0024
ENCODING 36
SWIDTH 666 0
DWIDTH 6 0
BBX 5 8 1 -1
BITMAP
20
70
F0
F0
78
F0
70
20
ENDCHAR
STARTCHAR 0025
ENCODING 37
SWIDTH 1000 0
DWIDTH 9 0
BBX 7 6 1 0
BITMAP
EC
A8
F0
1E
2A
6E
ENDCHAR
STARTCHAR 0026
ENCODING 38
SWIDTH 777 0
DWIDTH 7 0
BBX 6 6 1 0
BITMAP
70
58
70
78
D8
FC
ENDCHAR
STARTCHAR 0027
ENCODING 39
SWIDTH 333 0
DWIDTH 3 0
BBX 1 3 1 3
BITMAP
80
80
80
ENDCHAR
STARTCHAR 0028
ENCODING 40
SWIDTH 444 0
DWIDTH 4 0
BBX 3 9 1 -2
BITMAP
60
C0
C0
C0
C0
C0
C0
C0
60
ENDCHAR
STARTCHAR 0029
ENCODING 41
SWIDTH 444 0
DWIDTH 4 0
BBX 3 9 0 -2
BITMAP
C0
40
60
60
60
60
60
40
C0
ENDCHAR
STARTCHAR 002A
ENCODING 42
SWIDTH 444 0
DWIDTH 4 0
BBX 3 3 1 3
BITMAP
60
C0
60
ENDCHAR
STARTCHAR 002B
ENCODING 43
SWIDTH 777 0
DWIDTH 7 0
BBX 5 5 1 0
BITMAP
60
60
F8
60
60
ENDCHAR
STARTCHAR 002C
ENCODING 44
SWIDTH 222 0
DWIDTH 2 0
BBX 2 3 0 -2
BITMAP
C0
C0
C0
ENDCHAR
STARTCHAR 002D
ENCODING 45
SWIDTH 444 0
DWIDTH 4 0
BBX 3 1 1 2
BITMAP
E0
ENDCHAR
STARTCHAR 002E
ENCODING 46
SWIDTH 333 0
DWIDTH 3 0
BBX 2 2 1 0
BITMAP
C0
C0
ENDCHAR
STARTCHAR 002F
ENCODING 47
SWIDTH 444 0
DWIDTH 4 0
BBX 4 9 0 -2
BITMAP
30
20
20
60
60
40
40
C0
C0
ENDCHAR
STARTCHAR 0030
ENCODING 48
SWIDTH 777 0
DWIDTH 7 0
BBX 5 6 1 0
BITMAP
70
D8
D8
D8
D8
70
ENDCHAR
STARTCHAR 0031
ENCODING 49
SWIDTH 555 0
DWIDTH 5 0
BBX 4 6 0 0
BITMAP
70
F0
B0
30
30
30
ENDCHAR
STARTCHAR 0032
ENCODING 50
SWIDTH 777 0
DWIDTH 7 0
BBX 5 6 1 0
BITMAP
70
D8
38
70
E0
F8
ENDCHAR
STARTCHAR 0033
ENCODING 51
SWIDTH 666 0
DWIDTH 6 0
BBX 5 6 0 0
BITMAP
78
D8
30
18
D8
70
ENDCHAR
STARTCHAR 0034
ENCODING 52
SWIDTH 777 0
DWIDTH 7 0
BBX 5 6 1 0
BITMAP
38
78
58
D8
F8
18
ENDCHAR
STARTCHAR 0035
ENCODING 53
SWIDTH 666 0
DWIDTH 6 0
BBX 4 6 1 0
BITMAP
F0
80
F0
10
F0
F0
ENDCHAR
STARTCHAR 0036
ENCODING 54
SWIDTH 777 0
DWIDTH 7 0
BBX 5 6 1 0
BITMAP
70
D8
F0
E8
F8
70
ENDCHAR
STARTCHAR 0037
ENCODING 55
SWIDTH 777 0
DWIDTH 7 0
BBX 5 6 1 0
BITMAP
F8
18
30
30
60
60
ENDCHAR
STARTCHAR 0038
ENCODING 56
SWIDTH 777 0
DWIDTH 7 0
BBX 5 6 1 0
BITMAP
78
C8
70
C8
E8
70
ENDCHAR
STARTCHAR 0039
ENCODING 57
SWIDTH 777 0
DWIDTH 7 0
BBX 5 6 1 0
BITMAP
70
D8
C8
F8
D8
70
ENDCHAR
STARTCHAR 003A
ENCODING 58
SWIDTH 333 0
DWIDTH 3 0
BBX 2 5 1 0
BITMAP
C0
C0
00
C0
C0
ENDCHAR
STARTCHAR 003B
ENCODING 59
SWIDTH 333 0
DWIDTH 3 0
BBX 2 7 1 -2
BITMAP
C0
C0
00
00
C0
80
80
ENDCHAR
STARTCHAR 003C
ENCODING 60
SWIDTH 666 0
DWIDTH 6 0
BBX 5 5 1 0
BITMAP
18
70
C0
70
18
ENDCHAR
STARTCHAR 003D
ENCODING 61
SWIDTH 777 0
DWIDTH 7 0
BBX 5 3 1 1
BITMAP
F8
00
F8
ENDCHAR
STARTCHAR 003E
ENCODING 62
SWIDTH 666 0
DWIDTH 6 0
BBX 5 5 1 0
BITMAP
C0
F0
38
F0
C0
ENDCHAR
STARTCHAR 003F
ENCODING 63
SWIDTH 555 0
DWIDTH 5 0
BBX 4 6 0 0
BITMAP
70
F0
30
60
00
60
ENDCHAR
STARTCHAR 0040
ENCODING 64
SWIDTH 1000 0
DWIDTH 9 0
BBX 7 8 1 -2
BITMAP
38
64
BE
AE
AE
BE
C0
78
ENDCHAR
STARTCHAR 0041
ENCODING 65
SWIDTH 666 0
DWIDTH 6 0
BBX 6 6 0 0
BITMAP
30
78
78
78
7C
CC
ENDCHAR
STARTCHAR 0042
ENCODING 66
SWIDTH 777 0
DWIDTH 7 0
BBX 5 6 1 0
BITMAP
F8
D8
F0
D8
D8
F0
ENDCHAR
STARTCHAR 0043
ENCODING 67
SWIDTH 777 0
DWIDTH 7 0
BBX 5 6 1 0
BITMAP
78
D8
C0
C0
D8
78
ENDCHAR
STARTCHAR 0044
ENCODING 68
SWIDTH 777 0
DWIDTH 7 0
BBX 5 6 1 0
BITMAP
F0
D8
D8
D8
D8
F0
ENDCHAR
STARTCHAR 0045
ENCODING 69
SWIDTH 555 0
DWIDTH 5 0
BBX 4 6 1 0
BITMAP
F0
C0
F0
C0
C0
F0
ENDCHAR
STARTCHAR 0046
ENCODING 70
SWIDTH 666 0
DWIDTH 6 0
BBX 4 6 1 0
BITMAP
F0
C0
C0
F0
C0
C0
ENDCHAR
STARTCHAR 0047
ENCODING 71
SWIDTH 777 0
DWIDTH 7 0
BBX 5 6 1 0
BITMAP
70
D8
C0
D8
F8
70
ENDCHAR
STARTCHAR 0048
ENCODING 72
SWIDTH 777 0
DWIDTH 7 0
BBX 6 6 1 0
BITMAP
CC
CC
FC
CC
CC
CC
ENDCHAR
STARTCHAR 0049
ENCODING 73
SWIDTH 333 0
DWIDTH 3 0
BBX 2 6 1 0
BITMAP
C0
C0
C0
C0
C0
C0
ENDCHAR
STARTCHAR 004A
ENCODING 74
SWIDTH 555 0
DWIDTH 5 0
BBX 5 6 0 0
BITMAP
18
18
18
18
F8
70
ENDCHAR
STARTCHAR 004B
ENCODING 75
SWIDTH 777 0
DWIDTH 7 0
BBX 5 6 1 0
BITMAP
D8
D0
F0
F0
D8
D8
ENDCHAR
STARTCHAR 004C
ENCODING 76
SWIDTH 666 0
DWIDTH 6 0
BBX 4 6 1 0
BITMAP
C0
C0
C0
C0
F0
F0
ENDCHAR
STARTCHAR 004D
ENCODING 77
SWIDTH 888 0
DWIDTH 8 0
BBX 7 6 1 0
BITMAP
C6
EE
EE
FE
D6
C6
ENDCHAR
STARTCHAR 004E
ENCODING 78
SWIDTH 777 0
DWIDTH 7 0
BBX 5 6 1 0
BITMAP
D8
D8
F8
F8
D8
D8
ENDCHAR
STARTCHAR 004F
ENCODING 79
SWIDTH 777 0
DWIDTH 7 0
BBX 6 6 1 0
BITMAP
78
DC
CC
CC
CC
78
ENDCHAR
STARTCHAR 0050
ENCODING 80
SWIDTH 777 0
DWIDTH 7 0
BBX 5 6 1 0
BITMAP
F0
D8
D8
F8
C0
C0
ENDCHAR
STARTCHAR 0051
ENCODING 81
SWIDTH 777 0
DWIDTH 7 0
BBX 6 7 1 -1
BITMAP
78
DC
CC
CC
DC
78
0C
ENDCHAR
STARTCHAR 0052
ENCODING 82
SWIDTH 777 0
DWIDTH 7 0
BBX 5 6 1 0
BITMAP
F0
D8
D8
F8
F0
D8
ENDCHAR
STARTCHAR 0053
ENCODING 83
SWIDTH 777 0
DWIDTH 7 0
BBX 5 6 1 0
BITMAP
70
D8
F0
78
D8
70
ENDCHAR
STARTCHAR 0054
ENCODING 84
SWIDTH 777 0
DWIDTH 7 0
BBX 5 6 1 0
BITMAP
F8
60
60
60
60
60
ENDCHAR
STARTCHAR 0055
ENCODING 85
SWIDTH 777 0
DWIDTH 7 0
BBX 5 6 1 0
BITMAP
D8
D8
D8
D8
D8
70
ENDCHAR
STARTCHAR 0056
ENCODING 86
SWIDTH 666 0
DWIDTH 6 0
BBX 6 6 0 0
BITMAP
CC
6C
78
78
78
30
ENDCHAR
STARTCHAR 0057
ENCODING 87
SWIDTH 888 0
DWIDTH 8 0
BBX 8 6 0 0
BITMAP
DB
DB
5F
7E
76
66
ENDCHAR
STARTCHAR 0058
ENCODING 88
SWIDTH 666 0
DWIDTH 6 0
BBX 6 6 0 0
BITMAP
CC
78
70
70
78
CC
ENDCHAR
STARTCHAR 0059
ENCODING 89
SWIDTH 666 0
DWIDTH 6 0
BBX 6 6 0 0
BITMAP
CC
78
78
30
30
30
ENDCHAR
STARTCHAR 005A
ENCODING 90
SWIDTH 777 0
DWIDTH 7 0
BBX 5 6 1 0
BITMAP
F8
38
30
60
C0
F8
ENDCHAR
STARTCHAR 005B
ENCODING 91
SWIDTH 444 0
DWIDTH 4 0
BBX 3 9 1 -2
BITMAP
E0
C0
C0
C0
C0
C0
C0
C0
E0
ENDCHAR
STARTCHAR 005C
ENCODING 92
SWIDTH 444 0
DWIDTH 4 0
BBX 4 9 0 -2
BITMAP
C0
C0
40
40
60
60
20
20
30
ENDCHAR
STARTCHAR 005D
ENCODING 93
SWIDTH 444 0
DWIDTH 4 0
BBX 3 9 1 -2
BITMAP
E0
60
60
60
60
60
60
60
E0
ENDCHAR
STARTCHAR 005E
ENCODING 94
SWIDTH 555 0
DWIDTH 5 0
BBX 4 3 0 4
BITMAP
20
70
D0
ENDCHAR
STARTCHAR 005F
ENCODING 95
SWIDTH 444 0
DWIDTH 4 0
BBX 4 1 0 -2
BITMAP
F0
ENDCHAR
STARTCHAR 0060
ENCODING 96
SWIDTH 444 0
DWIDTH 4 0
BBX 2 1 1 6
BITMAP
C0
ENDCHAR
STARTCHAR 0061
ENCODING 97
SWIDTH 666 0
DWIDTH 6 0
BBX 5 5 1 0
BITMAP
70
D0
F8
D8
F8
ENDCHAR
STARTCHAR 0062
ENCODING 98
SWIDTH 666 0
DWIDTH 6 0
BBX 5 7 1 0
BITMAP
C0
C0
F0
F8
D8
F8
F0
ENDCHAR
STARTCHAR 0063
ENCODING 99
SWIDTH 666 0
DWIDTH 6 0
BBX 4 5 1 0
BITMAP
70
D0
C0
D0
70
ENDCHAR
STARTCHAR 0064
ENCODING 100
SWIDTH 666 0
DWIDTH 6 0
BBX 5 7 1 0
BITMAP
18
18
78
D8
D8
D8
78
ENDCHAR
STARTCHAR 0065
ENCODING 101
SWIDTH 666 0
DWIDTH 6 0
BBX 5 5 1 0
BITMAP
70
D0
F8
D0
70
ENDCHAR
STARTCHAR 0066
ENCODING 102
SWIDTH 555 0
DWIDTH 5 0
BBX 3 7 1 0
BITMAP
60
60
E0
60
60
60
60
ENDCHAR
STARTCHAR 0067
ENCODING 103
SWIDTH 666 0
DWIDTH 6 0
BBX 5 7 1 -2
BITMAP
78
F8
D8
D8
78
D8
70
ENDCHAR
STARTCHAR 0068
ENCODING 104
SWIDTH 666 0
DWIDTH 6 0
BBX 5 7 1 0
BITMAP
C0
C0
F0
F8
D8
D8
D8
ENDCHAR
STARTCHAR 0069
ENCODING 105
SWIDTH 333 0
DWIDTH 3 0
BBX 2 7 1 1
BITMAP
C0
00
C0
C0
C0
C0
C0
ENDCHAR
STARTCHAR 006A
ENCODING 106
SWIDTH 333 0
DWIDTH 3 0
BBX 3 9 0 -1
BITMAP
60
00
60
60
60
60
60
60
C0
ENDCHAR
STARTCHAR 006B
ENCODING 107
SWIDTH 666 0
DWIDTH 6 0
BBX 5 7 1 0
BITMAP
C0
C0
D8
F0
F0
F0
D8
ENDCHAR
STARTCHAR 006C
ENCODING 108
SWIDTH 333 0
DWIDTH 3 0
BBX 2 7 1 0
BITMAP
C0
C0
C0
C0
C0
C0
C0
ENDCHAR
STARTCHAR 006D
ENCODING 109
SWIDTH 1000 0
DWIDTH 9 0
BBX 8 5 1 0
BITMAP
F6
FF
DB
DB
DB
ENDCHAR
STARTCHAR 006E
ENCODING 110
SWIDTH 666 0
DWIDTH 6 0
BBX 5 5 1 0
BITMAP
F0
F8
D8
D8
D8
ENDCHAR
STARTCHAR 006F
ENCODING 111
SWIDTH 666 0
DWIDTH 6 0
BBX 5 5 1 0
BITMAP
70
D8
D8
D8
70
ENDCHAR
STARTCHAR 0070
ENCODING 112
SWIDTH 666 0
DWIDTH 6 0
BBX 5 7 1 -2
BITMAP
F0
F8
D8
F8
F0
C0
C0
ENDCHAR
STARTCHAR 0071
ENCODING 113
SWIDTH 666 0
DWIDTH 6 0
BBX 5 7 1 -2
BITMAP
78
D8
D8
D8
F8
18
18
ENDCHAR
STARTCHAR 0072
ENCODING 114
SWIDTH 555 0
DWIDTH 5 0
BBX 4 5 1 0
BITMAP
F0
C0
C0
C0
C0
ENDCHAR
STARTCHAR 0073
ENCODING 115
SWIDTH 666 0
DWIDTH 6 0
BBX 4 5 1 0
BITMAP
F0
D0
F0
D0
F0
ENDCHAR
STARTCHAR 0074
ENCODING 116
SWIDTH 666 0
DWIDTH 6 0
BBX 4 6 1 0
BITMAP
60
F0
60
60
60
70
ENDCHAR
STARTCHAR 0075
ENCODING 117
SWIDTH 666 0
DWIDTH 6 0
BBX 5 5 1 0
BITMAP
D8
D8
D8
F8
F8
ENDCHAR
STARTCHAR 0076
ENCODING 118
SWIDTH 555 0
DWIDTH 5 0
BBX 5 5 0 0
BITMAP
D8
58
50
70
70
ENDCHAR
STARTCHAR 0077
ENCODING 119
SWIDTH 888 0
DWIDTH 8 0
BBX 8 5 0 0
BITMAP
DB
DA
5A
7E
6E
ENDCHAR
STARTCHAR 0078
ENCODING 120
SWIDTH 555 0
DWIDTH 5 0
BBX 5 5 0 0
BITMAP
D8
70
30
70
D8
ENDCHAR
STARTCHAR 0079
ENCODING 121
SWIDTH 555 0
DWIDTH 5 0
BBX 5 7 0 -2
BITMAP
D8
D0
D0
70
70
60
E0
ENDCHAR
STARTCHAR 007A
ENCODING 122
SWIDTH 666 0
DWIDTH 6 0
BBX 4 5 1 0
BITMAP
F0
30
60
C0
F0
ENDCHAR
STARTCHAR 007B
ENCODING 123
SWIDTH 444 0
DWIDTH 4 0
BBX 4 9 0 -2
BITMAP
70
60
60
60
C0
60
60
60
70
ENDCHAR
STARTCHAR 007C
ENCODING 124
SWIDTH 444 0
DWIDTH 4 0
BBX 2 9 1 -2
BITMAP
C0
C0
C0
C0
C0
C0
C0
C0
C0
ENDCHAR
STARTCHAR 007D
ENCODING 125
SWIDTH 444 0
DWIDTH 4 0
BBX 3 9 0 -2
BITMAP
C0
60
60
60
20
60
60
60
C0
ENDCHAR
STARTCHAR 007E
ENCODING 126
SWIDTH 555 0
DWIDTH 5 0
BBX 5 2 0 2
BITMAP
68
F8
ENDCHAR
STARTCHAR 00A0
ENCODING 160
SWIDTH 222 0
DWIDTH 2 0
BBX 0 0 0 0
BITMAP
ENDCHAR
STARTCHAR 00A1
ENCODING 161
SWIDTH 333 0
DWIDTH 3 0
BBX 2 6 1 -1
BITMAP
C0
00
C0
C0
C0
C0
ENDCHAR
STARTCHAR 00A2
ENCODING 162
SWIDTH 777 0
DWIDTH 7 0
BBX 5 6 1 0
BITMAP
70
F8
E0
F8
70
20
ENDCHAR
STARTCHAR 00A3
ENCODING 163
SWIDTH 777 0
DWIDTH 7 0
BBX 5 6 1 0
BITMAP
38
60
F0
60
60
F8
ENDCHAR
STARTCHAR 00A4
ENCODING 164
SWIDTH 666 0
DWIDTH 6 0
BBX 5 5 1 0
BITMAP
F8
F0
90
F8
80
ENDCHAR
STARTCHAR 00A5
ENCODING 165
SWIDTH 666 0
DWIDTH 6 0
BBX 6 6 0 0
BITMAP
CC
78
70
78
78
30
ENDCHAR
STARTCHAR 00A6
ENCODING 166
SWIDTH 444 0
DWIDTH 4 0
BBX 2 9 1 -2
BITMAP
C0
C0
C0
00
00
00
C0
C0
C0
ENDCHAR
STARTCHAR 00A7
ENCODING 167
SWIDTH 666 0
DWIDTH 6 0
BBX 4 7 1 -1
BITMAP
E0
F0
E0
D0
E0
30
F0
ENDCHAR
STARTCHAR 00A8
ENCODING 168
SWIDTH 444 0
DWIDTH 4 0
BBX 3 1 1 6
BITMAP
A0
ENDCHAR
STARTCHAR 00A9
ENCODING 169
SWIDTH 1000 0
DWIDTH 9 0
BBX 7 7 1 0
BITMAP
7C
C6
BA
A2
BA
7C
38
ENDCHAR
STARTCHAR 00AA
ENCODING 170
SWIDTH 555 0
DWIDTH 5 0
BBX 4 4 1 2
BITMAP
E0
F0
B0
70
ENDCHAR
STARTCHAR 00AB
ENCODING 171
SWIDTH 666 0
DWIDTH 6 0
BBX 4 4 1 1
BITMAP
50
B0
B0
50
ENDCHAR
STARTCHAR 00AC
ENCODING 172
SWIDTH 666 0
DWIDTH 6 0
BBX 5 3 1 0
BITMAP
F8
18
18
ENDCHAR
STARTCHAR 00AE
ENCODING 174
SWIDTH 777 0
DWIDTH 7 0
BBX 5 5 1 2
BITMAP
70
A8
A8
88
70
ENDCHAR
STARTCHAR 00AF
ENCODING 175
SWIDTH 444 0
DWIDTH 4 0
BBX 3 1 1 6
BITMAP
E0
ENDCHAR
STARTCHAR 00B0
ENCODING 176
SWIDTH 555 0
DWIDTH 5 0
BBX 3 3 1 4
BITMAP
E0
A0
E0
ENDCHAR
STARTCHAR 00B1
ENCODING 177
SWIDTH 666 0
DWIDTH 6 0
BBX 4 5 1 0
BITMAP
60
F0
60
00
F0
ENDCHAR
STARTCHAR 00B2
ENCODING 178
SWIDTH 555 0
DWIDTH 5 0
BBX 3 4 1 4
BITMAP
E0
20
40
E0
ENDCHAR
STARTCHAR 00B3
ENCODING 179
SWIDTH 555 0
DWIDTH 5 0
BBX 3 4 1 4
BITMAP
E0
60
20
E0
ENDCHAR
STARTCHAR 00B4
ENCODING 180
SWIDTH 444 0
DWIDTH 4 0
BBX 2 1 1 6
BITMAP
C0
ENDCHAR
STARTCHAR 00B5
ENCODING 181
SWIDTH 777 0
DWIDTH 7 0
BBX 5 7 1 -2
BITMAP
D8
D8
D8
D8
F8
C0
C0
ENDCHAR
STARTCHAR 00B6
ENCODING 182
SWIDTH 888 0
DWIDTH 8 0
BBX 6 7 1 -1
BITMAP
FC
FC
FC
FC
3C
3C
3C
ENDCHAR
STARTCHAR 00B7
ENCODING 183
SWIDTH 333 0
DWIDTH 3 0
BBX 2 2 1 3
BITMAP
C0
C0
ENDCHAR
STARTCHAR 00B8
ENCODING 184
SWIDTH 444 0
DWIDTH 4 0
BBX 2 2 1 -2
BITMAP
40
C0
ENDCHAR
STARTCHAR 00B9
ENCODING 185
SWIDTH 333 0
DWIDTH 3 0
BBX 2 4 0 4
BITMAP
C0
40
40
40
ENDCHAR
STARTCHAR 00BA
ENCODING 186
SWIDTH 555 0
DWIDTH 5 0
BBX 3 4 1 2
BITMAP
E0
A0
A0
E0
ENDCHAR
STARTCHAR 00BB
ENCODING 187
SWIDTH 666 0
DWIDTH 6 0
BBX 4 4 1 1
BITMAP
B0
50
D0
B0
ENDCHAR
STARTCHAR 00BC
ENCODING 188
SWIDTH 1111 0
DWIDTH 10 0
BBX 10 6 0 0
BITMAP
E600
E400
6DC0
6BC0
1BC0
10C0
ENDCHAR
STARTCHAR 00BD
ENCODING 189
SWIDTH 1111 0
DWIDTH 10 0
BBX 9 6 0 0
BITMAP
E400
E400
6B80
6A80
1100
1380
ENDCHAR
STARTCHAR 00BE
ENCODING 190
SWIDTH 1222 0
DWIDTH 11 0
BBX 10 6 1 0
BITMAP
E600
6400
E9C0
0AC0
13C0
30C0
ENDCHAR
STARTCHAR 00BF
ENCODING 191
SWIDTH 555 0
DWIDTH 5 0
BBX 5 7 0 -1
BITMAP
20
30
00
30
60
D8
78
ENDCHAR
STARTCHAR 00C0
ENCODING 192
SWIDTH 666 0
DWIDTH 6 0
BBX 6 8 0 0
BITMAP
20
00
30
78
78
78
7C
CC
ENDCHAR
STARTCHAR 00C1
ENCODING 193
SWIDTH 666 0
DWIDTH 6 0
BBX 6 8 0 0
BITMAP
10
00
30
78
78
78
7C
CC
ENDCHAR
STARTCHAR 00C2
ENCODING 194
SWIDTH 666 0
DWIDTH 6 0
BBX 6 8 0 0
BITMAP
30
00
30
78
78
78
7C
CC
ENDCHAR
STARTCHAR 00C3
ENCODING 195
SWIDTH 666 0
DWIDTH 6 0
BBX 6 9 0 0
BITMAP
28
10
00
30
78
78
78
7C
CC
ENDCHAR
STARTCHAR 00C4
ENCODING 196
SWIDTH 666 0
DWIDTH 6 0
BBX 6 8 0 0
BITMAP
38
00
30
78
78
78
7C
CC
ENDCHAR
STARTCHAR 00C5
ENCODING 197
SWIDTH 666 0
DWIDTH 6 0
BBX 6 10 0 0
BITMAP
30
30
30
00
30
70
78
78
78
CC
ENDCHAR
STARTCHAR 00C6
ENCODING 198
SWIDTH 1000 0
DWIDTH 9 0
BBX 8 6 0 0
BITMAP
3F
3C
6F
6C
7C
CF
ENDCHAR
STARTCHAR 00C7
ENCODING 199
SWIDTH 777 0
DWIDTH 7 0
BBX 6 8 1 -2
BITMAP
78
D8
C0
CC
F8
70
30
30
ENDCHAR
STARTCHAR 00C8
ENCODING 200
SWIDTH 555 0
DWIDTH 5 0
BBX 4 8 1 0
BITMAP
40
00
F0
C0
F0
C0
C0
F0
ENDCHAR
STARTCHAR 00C9
ENCODING 201
SWIDTH 555 0
DWIDTH 5 0
BBX 4 8 1 0
BITMAP
20
00
F0
C0
F0
C0
C0
F0
ENDCHAR
STARTCHAR 00CA
ENCODING 202
SWIDTH 555 0
DWIDTH 5 0
BBX 4 8 1 0
BITMAP
60
00
F0
C0
F0
C0
C0
F0
ENDCHAR
STARTCHAR 00CB
ENCODING 203
SWIDTH 555 0
DWIDTH 5 0
BBX 4 8 1 0
BITMAP
A0
00
F0
C0
F0
C0
C0
F0
ENDCHAR
STARTCHAR 00CC
ENCODING 204
SWIDTH 333 0
DWIDTH 3 0
BBX 2 8 1 0
BITMAP
80
00
C0
C0
C0
C0
C0
C0
ENDCHAR
STARTCHAR 00CD
ENCODING 205
SWIDTH 333 0
DWIDTH 3 0
BBX 2 8 1 0
BITMAP
40
00
C0
C0
C0
C0
C0
C0
ENDCHAR
STARTCHAR 00CE
ENCODING 206
SWIDTH 333 0
DWIDTH 3 0
BBX 2 8 1 0
BITMAP
C0
00
C0
C0
C0
C0
C0
C0
ENDCHAR
STARTCHAR 00CF
ENCODING 207
SWIDTH 333 0
DWIDTH 3 0
BBX 3 8 0 0
BITMAP
A0
00
60
60
60
60
60
60
ENDCHAR
STARTCHAR 00D0
ENCODING 208
SWIDTH 888 0
DWIDTH 8 0
BBX 6 6 1 0
BITMAP
78
4C
EC
4C
4C
78
ENDCHAR
STARTCHAR 00D1
ENCODING 209
SWIDTH 777 0
DWIDTH 7 0
BBX 5 9 1 0
BITMAP
70
70
00
D8
D8
F8
F8
D8
D8
ENDCHAR
STARTCHAR 00D2
ENCODING 210
SWIDTH 777 0
DWIDTH 7 0
BBX 6 8 1 0
BITMAP
60
00
78
DC
CC
CC
CC
78
ENDCHAR
STARTCHAR 00D3
ENCODING 211
SWIDTH 777 0
DWIDTH 7 0
BBX 6 8 1 0
BITMAP
10
00
78
DC
CC
CC
CC
78
ENDCHAR
STARTCHAR 00D4
ENCODING 212
SWIDTH 777 0
DWIDTH 7 0
BBX 6 8 1 0
BITMAP
70
00
78
DC
CC
CC
CC
78
ENDCHAR
STARTCHAR 00D5
ENCODING 213
SWIDTH 777 0
DWIDTH 7 0
BBX 6 9 1 0
BITMAP
28
50
00
78
DC
CC
CC
CC
78
ENDCHAR
STARTCHAR 00D6
ENCODING 214
SWIDTH 777 0
DWIDTH 7 0
BBX 6 8 1 0
BITMAP
28
00
78
DC
CC
CC
CC
78
ENDCHAR
STARTCHAR 00D7
ENCODING 215
SWIDTH 666 0
DWIDTH 6 0
BBX 4 5 1 0
BITMAP
90
F0
60
F0
90
ENDCHAR
STARTCHAR 00D8
ENCODING 216
SWIDTH 777 0
DWIDTH 7 0
BBX 6 6 1 0
BITMAP
7C
DC
DC
EC
DC
F8
ENDCHAR
STARTCHAR 00D9
ENCODING 217
SWIDTH 777 0
DWIDTH 7 0
BBX 5 8 1 0
BITMAP
60
00
D8
D8
D8
D8
D8
70
ENDCHAR
STARTCHAR 00DA
ENCODING 218
SWIDTH 777 0
DWIDTH 7 0
BBX 5 8 1 0
BITMAP
30
00
D8
D8
D8
D8
D8
70
ENDCHAR
STARTCHAR 00DB
ENCODING 219
SWIDTH 777 0
DWIDTH 7 0
BBX 5 8 1 0
BITMAP
70
00
D8
D8
D8
D8
D8
70
ENDCHAR
STARTCHAR 00DC
ENCODING 220
SWIDTH 777 0
DWIDTH 7 0
BBX 5 8 1 0
BITMAP
50
00
D8
D8
D8
D8
D8
70
ENDCHAR
STARTCHAR 00DD
ENCODING 221
SWIDTH 666 0
DWIDTH 6 0
BBX 6 8 0 0
BITMAP
10
00
CC
78
78
30
30
30
ENDCHAR
STARTCHAR 00DE
ENCODING 222
SWIDTH 777 0
DWIDTH 7 0
BBX 5 6 1 0
BITMAP
C0
F0
D8
D8
F8
C0
ENDCHAR
STARTCHAR 00DF
ENCODING 223
SWIDTH 777 0
DWIDTH 7 0
BBX 5 7 1 0
BITMAP
70
D8
D8
F8
C8
D8
F8
ENDCHAR
STARTCHAR 00E0
ENCODING 224
SWIDTH 666 0
DWIDTH 6 0
BBX 5 7 1 0
BITMAP
60
00
70
D0
F8
D8
F8
ENDCHAR
STARTCHAR 00E1
ENCODING 225
SWIDTH 666 0
DWIDTH 6 0
BBX 5 7 1 0
BITMAP
30
00
70
D0
F8
D8
F8
ENDCHAR
STARTCHAR 00E2
ENCODING 226
SWIDTH 666 0
DWIDTH 6 0
BBX 5 7 1 0
BITMAP
70
00
70
D0
F8
D8
F8
ENDCHAR
STARTCHAR 00E3
ENCODING 227
SWIDTH 666 0
DWIDTH 6 0
BBX 5 8 1 0
BITMAP
70
70
00
70
D0
F8
D8
F8
ENDCHAR
STARTCHAR 00E4
ENCODING 228
SWIDTH 666 0
DWIDTH 6 0
BBX 5 7 1 0
BITMAP
50
00
70
D0
F8
D8
F8
ENDCHAR
STARTCHAR 00E5
ENCODING 229
SWIDTH 666 0
DWIDTH 6 0
BBX 5 8 1 0
BITMAP
60
A0
60
70
F0
F8
B8
F8
ENDCHAR
STARTCHAR 00E6
ENCODING 230
SWIDTH 1000 0
DWIDTH 9 0
BBX 8 5 1 0
BITMAP
7E
DA
FF
DA
EE
ENDCHAR
STARTCHAR 00E7
ENCODING 231
SWIDTH 666 0
DWIDTH 6 0
BBX 4 7 1 -2
BITMAP
70
D0
C0
D0
70
20
20
ENDCHAR
STARTCHAR 00E8
ENCODING 232
SWIDTH 666 0
DWIDTH 6 0
BBX 5 7 1 0
BITMAP
60
00
70
D0
F8
D0
70
ENDCHAR
STARTCHAR 00E9
ENCODING 233
SWIDTH 666 0
DWIDTH 6 0
BBX 5 7 1 0
BITMAP
30
00
70
D0
F8
D0
70
ENDCHAR
STARTCHAR 00EA
ENCODING 234
SWIDTH 666 0
DWIDTH 6 0
BBX 5 7 1 0
BITMAP
70
00
70
D0
F8
D0
70
ENDCHAR
STARTCHAR 00EB
ENCODING 235
SWIDTH 666 0
DWIDTH 6 0
BBX 5 7 1 0
BITMAP
50
00
70
D0
F8
D0
70
ENDCHAR
STARTCHAR 00EC
ENCODING 236
SWIDTH 333 0
DWIDTH 3 0
BBX 2 7 1 0
BITMAP
80
00
C0
C0
C0
C0
C0
ENDCHAR
STARTCHAR 00ED
ENCODING 237
SWIDTH 333 0
DWIDTH 3 0
BBX 2 7 1 0
BITMAP
40
00
C0
C0
C0
C0
C0
ENDCHAR
STARTCHAR 00EE
ENCODING 238
SWIDTH 333 0
DWIDTH 3 0
BBX 2 7 1 0
BITMAP
C0
00
C0
C0
C0
C0
C0
ENDCHAR
STARTCHAR 00EF
ENCODING 239
SWIDTH 333 0
DWIDTH 3 0
BBX 3 7 0 0
BITMAP
A0
00
60
60
60
60
60
ENDCHAR
STARTCHAR 00F0
ENCODING 240
SWIDTH 666 0
DWIDTH 6 0
BBX 5 7 1 0
BITMAP
70
70
78
F8
D8
D8
70
ENDCHAR
STARTCHAR 00F1
ENCODING 241
SWIDTH 666 0
DWIDTH 6 0
BBX 5 8 1 0
BITMAP
70
70
00
F0
F8
D8
D8
D8
ENDCHAR
STARTCHAR 00F2
ENCODING 242
SWIDTH 666 0
DWIDTH 6 0
BBX 5 7 1 0
BITMAP
60
00
70
D8
D8
D8
70
ENDCHAR
STARTCHAR 00F3
ENCODING 243
SWIDTH 666 0
DWIDTH 6 0
BBX 5 7 1 0
BITMAP
30
00
70
D8
D8
D8
70
ENDCHAR
STARTCHAR 00F4
ENCODING 244
SWIDTH 666 0
DWIDTH 6 0
BBX 5 7 1 0
BITMAP
70
00
70
D8
D8
D8
70
ENDCHAR
STARTCHAR 00F5
ENCODING 245
SWIDTH 666 0
DWIDTH 6 0
BBX 5 8 1 0
BITMAP
70
70
00
70
D8
D8
D8
70
ENDCHAR
STARTCHAR 00F6
ENCODING 246
SWIDTH 666 0
DWIDTH 6 0
BBX 5 7 1 0
BITMAP
50
00
70
D8
D8
D8
70
ENDCHAR
STARTCHAR 00F7
ENCODING 247
SWIDTH 666 0
DWIDTH 6 0
BBX 4 5 1 0
BITMAP
60
00
F0
00
60
ENDCHAR
STARTCHAR 00F8
ENCODING 248
SWIDTH 777 0
DWIDTH 7 0
BBX 5 5 1 0
BITMAP
78
D8
F8
D8
F0
ENDCHAR
STARTCHAR 00F9
ENCODING 249
SWIDTH 666 0
DWIDTH 6 0
BBX 5 7 1 0
BITMAP
60
00
D8
D8
D8
F8
F8
ENDCHAR
STARTCHAR 00FA
ENCODING 250
SWIDTH 666 0
DWIDTH 6 0
BBX 5 7 1 0
BITMAP
30
00
D8
D8
D8
F8
F8
ENDCHAR
STARTCHAR 00FB
ENCODING 251
SWIDTH 666 0
DWIDTH 6 0
BBX 5 7 1 0
BITMAP
70
00
D8
D8
D8
F8
F8
ENDCHAR
STARTCHAR 00FC
ENCODING 252
SWIDTH 666 0
DWIDTH 6 0
BBX 5 7 1 0
BITMAP
B0
00
D8
D8
D8
F8
F8
ENDCHAR
STARTCHAR 00FD
ENCODING 253
SWIDTH 555 0
DWIDTH 5 0
BBX 5 9 0 -2
BITMAP
30
00
D8
D0
D0
70
70
60
E0
ENDCHAR
STARTCHAR 00FE
ENCODING 254
SWIDTH 666 0
DWIDTH 6 0
BBX 5 9 1 -2
BITMAP
C0
C0
F0
F8
D8
F8
F0
C0
C0
ENDCHAR
STARTCHAR 00FF
ENCODING 255
SWIDTH 555 0
DWIDTH 5 0
BBX 5 9 0 -2
BITMAP
50
00
D8
D0
D0
70
70
60
E0
ENDCHAR
STARTCHAR 0100
ENCODING 256
SWIDTH 666 0
DWIDTH 6 0
BBX 6 8 0 0
BITMAP
38
00
30
78
78
78
7C
CC
ENDCHAR
STARTCHAR 0101
ENCODING 257
SWIDTH 666 0
DWIDTH 6 0
BBX 5 7 1 0
BITMAP
70
00
70
D0
F8
D8
F8
ENDCHAR
STARTCHAR 0102
ENCODING 258
SWIDTH 666 0
DWIDTH 6 0
BBX 6 8 0 0
BITMAP
30
00
30
78
78
78
7C
CC
ENDCHAR
STARTCHAR 0103
ENCODING 259
SWIDTH 666 0
DWIDTH 6 0
BBX 5 8 1 0
BITMAP
50
60
00
70
D0
F8
D8
F8
ENDCHAR
STARTCHAR 0104
ENCODING 260
SWIDTH 666 0
DWIDTH 6 0
BBX 6 8 0 -2
BITMAP
70
70
58
58
F8
CC
08
0C
ENDCHAR
STARTCHAR 0105
ENCODING 261
SWIDTH 666 0
DWIDTH 6 0
BBX 5 6 1 -2
BITMAP
70
D0
F8
D8
F8
10
ENDCHAR
STARTCHAR 0106
ENCODING 262
SWIDTH 777 0
DWIDTH 7 0
BBX 5 8 1 0
BITMAP
30
00
78
D8
C0
C0
D8
78
ENDCHAR
STARTCHAR 0107
ENCODING 263
SWIDTH 666 0
DWIDTH 6 0
BBX 4 7 1 0
BITMAP
30
00
70
D0
C0
D0
70
ENDCHAR
STARTCHAR 0108
ENCODING 264
SWIDTH 777 0
DWIDTH 7 0
BBX 5 8 1 0
BITMAP
70
00
78
D8
C0
C0
D8
78
ENDCHAR
STARTCHAR 0109
ENCODING 265
SWIDTH 666 0
DWIDTH 6 0
BBX 4 7 1 0
BITMAP
70
00
70
D0
C0
D0
70
ENDCHAR
STARTCHAR 010A
ENCODING 266
SWIDTH 777 0
DWIDTH 7 0
BBX 5 8 1 0
BITMAP
30
00
78
C8
C0
C0
C8
78
ENDCHAR
STARTCHAR 010B
ENCODING 267
SWIDTH 666 0
DWIDTH 6 0
BBX 4 7 1 1
BITMAP
60
00
70
D0
C0
D0
70
ENDCHAR
STARTCHAR 010C
ENCODING 268
SWIDTH 777 0
DWIDTH 7 0
BBX 5 8 1 0
BITMAP
70
00
78
D8
C0
C0
D8
78
ENDCHAR
STARTCHAR 010D
ENCODING 269
SWIDTH 666 0
DWIDTH 6 0
BBX 4 7 1 0
BITMAP
70
00
70
D0
C0
D0
70
ENDCHAR
STARTCHAR 010E
ENCODING 270
SWIDTH 777 0
DWIDTH 7 0
BBX 5 8 1 0
BITMAP
60
00
F0
D8
D8
D8
D8
F0
ENDCHAR
STARTCHAR 010F
ENCODING 271
SWIDTH 888 0
DWIDTH 8 0
BBX 7 7 1 0
BITMAP
1E
1E
78
D8
D8
F8
78
ENDCHAR
STARTCHAR 0110
ENCODING 272
SWIDTH 888 0
DWIDTH 8 0
BBX 6 6 1 0
BITMAP
78
4C
EC
4C
4C
78
ENDCHAR
STARTCHAR 0111
ENCODING 273
SWIDTH 666 0
DWIDTH 6 0
BBX 5 7 1 0
BITMAP
18
38
78
D8
D8
D8
78
ENDCHAR
STARTCHAR 0112
ENCODING 274
SWIDTH 555 0
DWIDTH 5 0
BBX 4 8 1 0
BITMAP
70
00
F0
C0
F0
C0
C0
F0
ENDCHAR
STARTCHAR 0113
ENCODING 275
SWIDTH 666 0
DWIDTH 6 0
BBX 5 7 1 0
BITMAP
70
00
70
D0
F8
D0
70
ENDCHAR
STARTCHAR 0114
ENCODING 276
SWIDTH 555 0
DWIDTH 5 0
BBX 4 8 1 0
BITMAP
60
00
F0
C0
F0
C0
C0
F0
ENDCHAR
STARTCHAR 0115
ENCODING 277
SWIDTH 666 0
DWIDTH 6 0
BBX 5 8 1 0
BITMAP
50
60
00
70
D0
F8
D0
70
ENDCHAR
STARTCHAR 0116
ENCODING 278
SWIDTH 666 0
DWIDTH 6 0
BBX 5 8 0 0
BITMAP
30
00
F8
E0
F8
E0
E0
F8
ENDCHAR
STARTCHAR 0117
ENCODING 279
SWIDTH 666 0
DWIDTH 6 0
BBX 5 7 0 1
BITMAP
30
00
70
58
F8
48
70
ENDCHAR
STARTCHAR 0118
ENCODING 280
SWIDTH 555 0
DWIDTH 5 0
BBX 4 7 1 -2
BITMAP
F0
C0
F0
C0
C0
F0
30
ENDCHAR
STARTCHAR 0119
ENCODING 281
SWIDTH 666 0
DWIDTH 6 0
BBX 5 7 1 -2
BITMAP
70
D0
F8
D0
70
20
10
ENDCHAR
STARTCHAR 011A
ENCODING 282
SWIDTH 555 0
DWIDTH 5 0
BBX 4 8 1 0
BITMAP
60
00
F0
C0
F0
C0
C0
F0
ENDCHAR
STARTCHAR 011B
ENCODING 283
SWIDTH 666 0
DWIDTH 6 0
BBX 5 7 1 0
BITMAP
60
00
70
D0
F8
D0
70
ENDCHAR
STARTCHAR 011C
ENCODING 284
SWIDTH 777 0
DWIDTH 7 0
BBX 5 8 1 0
BITMAP
70
00
70
D8
C0
D8
F8
70
ENDCHAR
STARTCHAR 011D
ENCODING 285
SWIDTH 666 0
DWIDTH 6 0
BBX 5 9 1 -2
BITMAP
70
00
78
F8
D8
D8
78
D8
70
ENDCHAR
STARTCHAR 011E
ENCODING 286
SWIDTH 777 0
DWIDTH 7 0
BBX 5 8 1 0
BITMAP
70
00
70
D8
C0
D8
F8
70
ENDCHAR
STARTCHAR 011F
ENCODING 287
SWIDTH 666 0
DWIDTH 6 0
BBX 5 9 1 -2
BITMAP
70
00
78
F8
D8
D8
78
D8
70
ENDCHAR
STARTCHAR 0120
ENCODING 288
SWIDTH 777 0
DWIDTH 7 0
BBX 5 8 1 0
BITMAP
30
00
70
C8
C0
D8
F8
70
ENDCHAR
STARTCHAR 0121
ENCODING 289
SWIDTH 666 0
DWIDTH 6 0
BBX 5 9 1 -1
BITMAP
60
00
78
F8
D8
D8
78
98
70
ENDCHAR
STARTCHAR 0122
ENCODING 290
SWIDTH 777 0
DWIDTH 7 0
BBX 5 8 1 -2
BITMAP
70
D8
C0
D8
F8
70
00
20
ENDCHAR
STARTCHAR 0123
ENCODING 291
SWIDTH 666 0
DWIDTH 6 0
BBX 5 9 1 -2
BITMAP
20
00
78
F8
D8
D8
78
D8
70
ENDCHAR
STARTCHAR 0124
ENCODING 292
SWIDTH 777 0
DWIDTH 7 0
BBX 6 8 1 0
BITMAP
70
00
CC
CC
FC
CC
CC
CC
ENDCHAR
STARTCHAR 0125
ENCODING 293
SWIDTH 666 0
DWIDTH 6 0
BBX 5 9 1 0
BITMAP
C0
00
C0
C0
F0
F8
D8
D8
D8
ENDCHAR
STARTCHAR 0126
ENCODING 294
SWIDTH 888 0
DWIDTH 8 0
BBX 6 6 1 0
BITMAP
FC
CC
FC
CC
CC
CC
ENDCHAR
STARTCHAR 0127
ENCODING 295
SWIDTH 666 0
DWIDTH 6 0
BBX 5 7 1 0
BITMAP
C0
E0
F0
F8
D8
D8
D8
ENDCHAR
STARTCHAR 0128
ENCODING 296
SWIDTH 333 0
DWIDTH 3 0
BBX 4 9 0 0
BITMAP
50
A0
00
60
60
60
60
60
60
ENDCHAR
STARTCHAR 0129
ENCODING 297
SWIDTH 333 0
DWIDTH 3 0
BBX 4 8 0 0
BITMAP
50
A0
00
60
60
60
60
60
ENDCHAR
STARTCHAR 012A
ENCODING 298
SWIDTH 333 0
DWIDTH 3 0
BBX 3 8 0 0
BITMAP
E0
00
60
60
60
60
60
60
ENDCHAR
STARTCHAR 012B
ENCODING 299
SWIDTH 333 0
DWIDTH 3 0
BBX 3 7 0 0
BITMAP
E0
00
60
60
60
60
60
ENDCHAR
STARTCHAR 012C
ENCODING 300
SWIDTH 333 0
DWIDTH 3 0
BBX 2 8 1 0
BITMAP
C0
00
C0
C0
C0
C0
C0
C0
ENDCHAR
STARTCHAR 012D
ENCODING 301
SWIDTH 333 0
DWIDTH 3 0
BBX 2 7 1 0
BITMAP
C0
00
C0
C0
C0
C0
C0
ENDCHAR
STARTCHAR 012E
ENCODING 302
SWIDTH 333 0
DWIDTH 3 0
BBX 2 8 1 -2
BITMAP
C0
C0
C0
C0
C0
C0
80
C0
ENDCHAR
STARTCHAR 012F
ENCODING 303
SWIDTH 333 0
DWIDTH 3 0
BBX 2 9 1 -1
BITMAP
C0
00
C0
C0
C0
C0
C0
80
C0
ENDCHAR
STARTCHAR 0130
ENCODING 304
SWIDTH 333 0
DWIDTH 3 0
BBX 2 8 1 0
BITMAP
C0
00
C0
C0
C0
C0
C0
C0
ENDCHAR
STARTCHAR 0131
ENCODING 305
SWIDTH 333 0
DWIDTH 3 0
BBX 2 5 1 0
BITMAP
C0
C0
C0
C0
C0
ENDCHAR
STARTCHAR 0132
ENCODING 306
SWIDTH 1000 0
DWIDTH 9 0
BBX 8 6 1 0
BITMAP
C3
C3
C3
C3
DF
CE
ENDCHAR
STARTCHAR 0133
ENCODING 307
SWIDTH 666 0
DWIDTH 6 0
BBX 5 9 1 -1
BITMAP
D8
00
D8
D8
D8
D8
D8
18
30
ENDCHAR
STARTCHAR 0134
ENCODING 308
SWIDTH 555 0
DWIDTH 5 0
BBX 5 8 0 0
BITMAP
18
00
18
18
18
18
F8
70
ENDCHAR
STARTCHAR 0135
ENCODING 309
SWIDTH 333 0
DWIDTH 3 0
BBX 3 9 0 -2
BITMAP
60
00
60
60
60
60
60
60
C0
ENDCHAR
STARTCHAR 0136
ENCODING 310
SWIDTH 777 0
DWIDTH 7 0
BBX 5 8 1 -2
BITMAP
D8
D0
F0
F0
D8
D8
00
20
ENDCHAR
STARTCHAR 0137
ENCODING 311
SWIDTH 666 0
DWIDTH 6 0
BBX 5 10 1 -3
BITMAP
C0
C0
D8
F0
F0
F0
D8
00
20
60
ENDCHAR
STARTCHAR 0139
ENCODING 313
SWIDTH 666 0
DWIDTH 6 0
BBX 4 8 1 0
BITMAP
40
00
C0
C0
C0
C0
F0
F0
ENDCHAR
STARTCHAR 013A
ENCODING 314
SWIDTH 333 0
DWIDTH 3 0
BBX 2 9 1 0
BITMAP
40
00
C0
C0
C0
C0
C0
C0
C0
ENDCHAR
STARTCHAR 013B
ENCODING 315
SWIDTH 666 0
DWIDTH 6 0
BBX 4 8 1 -2
BITMAP
C0
C0
C0
C0
F0
F0
00
40
ENDCHAR
STARTCHAR 013C
ENCODING 316
SWIDTH 333 0
DWIDTH 3 0
BBX 2 9 1 -2
BITMAP
C0
C0
C0
C0
C0
C0
C0
00
80
ENDCHAR
STARTCHAR 013D
ENCODING 317
SWIDTH 666 0
DWIDTH 6 0
BBX 4 7 1 0
BITMAP
30
F0
C0
C0
C0
F0
F0
ENDCHAR
STARTCHAR 013E
ENCODING 318
SWIDTH 555 0
DWIDTH 5 0
BBX 4 7 1 0
BITMAP
F0
F0
C0
C0
C0
C0
C0
ENDCHAR
STARTCHAR 0141
ENCODING 321
SWIDTH 666 0
DWIDTH 6 0
BBX 4 6 1 0
BITMAP
C0
E0
C0
C0
F0
F0
ENDCHAR
STARTCHAR 0142
ENCODING 322
SWIDTH 444 0
DWIDTH 4 0
BBX 3 7 0 0
BITMAP
60
60
60
E0
E0
60
60
ENDCHAR
STARTCHAR 0143
ENCODING 323
SWIDTH 777 0
DWIDTH 7 0
BBX 5 8 1 0
BITMAP
30
00
D8
D8
F8
F8
D8
D8
ENDCHAR
STARTCHAR 0144
ENCODING 324
SWIDTH 666 0
DWIDTH 6 0
BBX 5 7 1 0
BITMAP
30
00
F0
F8
D8
D8
D8
ENDCHAR
STARTCHAR 0145
ENCODING 325
SWIDTH 777 0
DWIDTH 7 0
BBX 5 8 1 -2
BITMAP
D8
D8
F8
F8
D8
D8
00
20
ENDCHAR
STARTCHAR 0146
ENCODING 326
SWIDTH 666 0
DWIDTH 6 0
BBX 5 7 1 -2
BITMAP
F0
F8
D8
D8
D8
00
20
ENDCHAR
STARTCHAR 0147
ENCODING 327
SWIDTH 777 0
DWIDTH 7 0
BBX 5 8 1 0
BITMAP
70
00
D8
D8
F8
F8
D8
D8
ENDCHAR
STARTCHAR 0148
ENCODING 328
SWIDTH 666 0
DWIDTH 6 0
BBX 5 7 1 0
BITMAP
70
00
F0
F8
D8
D8
D8
ENDCHAR
STARTCHAR 014A
ENCODING 330
SWIDTH 777 0
DWIDTH 7 0
BBX 5 8 1 -2
BITMAP
D8
D8
F8
F8
D8
D8
18
18
ENDCHAR
STARTCHAR 014B
ENCODING 331
SWIDTH 666 0
DWIDTH 6 0
BBX 5 7 1 -2
BITMAP
F0
F8
D8
D8
D8
18
30
ENDCHAR
STARTCHAR 014C
ENCODING 332
SWIDTH 777 0
DWIDTH 7 0
BBX 6 8 1 0
BITMAP
78
00
78
DC
CC
CC
CC
78
ENDCHAR
STARTCHAR 014D
ENCODING 333
SWIDTH 666 0
DWIDTH 6 0
BBX 5 7 1 0
BITMAP
70
00
70
D8
D8
D8
70
ENDCHAR
STARTCHAR 014E
ENCODING 334
SWIDTH 777 0
DWIDTH 7 0
BBX 6 8 1 0
BITMAP
70
00
78
DC
CC
CC
FC
78
ENDCHAR
STARTCHAR 014F
ENCODING 335
SWIDTH 666 0
DWIDTH 6 0
BBX 5 8 1 0
BITMAP
50
70
00
70
D8
D8
D8
70
ENDCHAR
STARTCHAR 0150
ENCODING 336
SWIDTH 777 0
DWIDTH 7 0
BBX 6 8 1 0
BITMAP
68
00
78
DC
CC
CC
CC
78
ENDCHAR
STARTCHAR 0151
ENCODING 337
SWIDTH 666 0
DWIDTH 6 0
BBX 5 7 1 0
BITMAP
78
00
70
D8
D8
D8
70
ENDCHAR
STARTCHAR 0152
ENCODING 338
SWIDTH 1111 0
DWIDTH 10 0
BBX 8 6 1 0
BITMAP
7F
DC
CF
CC
DC
7F
ENDCHAR
STARTCHAR 0153
ENCODING 339
SWIDTH 1000 0
DWIDTH 9 0
BBX 8 5 1 0
BITMAP
7E
DA
DF
DA
6E
ENDCHAR
STARTCHAR 0154
ENCODING 340
SWIDTH 777 0
DWIDTH 7 0
BBX 5 8 1 0
BITMAP
30
00
F0
D8
D8
F8
F0
D8
ENDCHAR
STARTCHAR 0155
ENCODING 341
SWIDTH 555 0
DWIDTH 5 0
BBX 4 7 1 0
BITMAP
60
00
F0
C0
C0
C0
C0
ENDCHAR
STARTCHAR 0156
ENCODING 342
SWIDTH 777 0
DWIDTH 7 0
BBX 5 8 1 -2
BITMAP
F0
D8
D8
F8
F0
D8
00
20
ENDCHAR
STARTCHAR 0157
ENCODING 343
SWIDTH 555 0
DWIDTH 5 0
BBX 4 7 1 -2
BITMAP
F0
C0
C0
C0
C0
00
80
ENDCHAR
STARTCHAR 0158
ENCODING 344
SWIDTH 777 0
DWIDTH 7 0
BBX 5 8 1 0
BITMAP
70
00
F0
D8
D8
F8
F0
D8
ENDCHAR
STARTCHAR 0159
ENCODING 345
SWIDTH 555 0
DWIDTH 5 0
BBX 4 7 1 0
BITMAP
E0
00
F0
C0
C0
C0
C0
ENDCHAR
STARTCHAR 015A
ENCODING 346
SWIDTH 777 0
DWIDTH 7 0
BBX 5 8 1 0
BITMAP
30
00
70
D8
F0
78
D8
70
ENDCHAR
STARTCHAR 015B
ENCODING 347
SWIDTH 666 0
DWIDTH 6 0
BBX 4 7 1 0
BITMAP
30
00
F0
D0
F0
D0
F0
ENDCHAR
STARTCHAR 015C
ENCODING 348
SWIDTH 777 0
DWIDTH 7 0
BBX 5 8 1 0
BITMAP
70
00
70
D8
F0
78
D8
70
ENDCHAR
STARTCHAR 015D
ENCODING 349
SWIDTH 666 0
DWIDTH 6 0
BBX 4 7 1 0
BITMAP
70
00
F0
D0
F0
D0
F0
ENDCHAR
STARTCHAR 015E
ENCODING 350
SWIDTH 777 0
DWIDTH 7 0
BBX 5 8 1 -2
BITMAP
70
D8
F0
78
D8
70
20
30
ENDCHAR
STARTCHAR 015F
ENCODING 351
SWIDTH 666 0
DWIDTH 6 0
BBX 4 7 1 -2
BITMAP
F0
D0
F0
10
F0
20
60
ENDCHAR
STARTCHAR 0160
ENCODING 352
SWIDTH 777 0
DWIDTH 7 0
BBX 5 8 1 0
BITMAP
70
00
70
D8
F0
78
D8
70
ENDCHAR
STARTCHAR 0161
ENCODING 353
SWIDTH 666 0
DWIDTH 6 0
BBX 4 7 1 0
BITMAP
70
00
F0
D0
F0
D0
F0
ENDCHAR
STARTCHAR 0162
ENCODING 354
SWIDTH 777 0
DWIDTH 7 0
BBX 5 8 1 -2
BITMAP
F8
60
60
60
60
60
60
60
ENDCHAR
STARTCHAR 0163
ENCODING 355
SWIDTH 666 0
DWIDTH 6 0
BBX 4 8 1 -2
BITMAP
60
F0
60
60
60
70
20
20
ENDCHAR
STARTCHAR 0164
ENCODING 356
SWIDTH 777 0
DWIDTH 7 0
BBX 5 8 1 0
BITMAP
70
00
F8
60
60
60
60
60
ENDCHAR
STARTCHAR 0165
ENCODING 357
SWIDTH 666 0
DWIDTH 6 0
BBX 5 7 1 0
BITMAP
18
78
F0
60
60
60
70
ENDCHAR
STARTCHAR 0166
ENCODING 358
SWIDTH 777 0
DWIDTH 7 0
BBX 5 6 1 0
BITMAP
F8
60
F0
60
60
60
ENDCHAR
STARTCHAR 0167
ENCODING 359
SWIDTH 666 0
DWIDTH 6 0
BBX 4 6 1 0
BITMAP
60
F0
60
F0
60
70
ENDCHAR
STARTCHAR 0168
ENCODING 360
SWIDTH 777 0
DWIDTH 7 0
BBX 5 9 1 0
BITMAP
70
70
00
D8
D8
D8
D8
D8
70
ENDCHAR
STARTCHAR 0169
ENCODING 361
SWIDTH 666 0
DWIDTH 6 0
BBX 5 8 1 0
BITMAP
70
70
00
D8
D8
D8
F8
F8
ENDCHAR
STARTCHAR 016A
ENCODING 362
SWIDTH 777 0
DWIDTH 7 0
BBX 5 8 1 0
BITMAP
70
00
D8
D8
D8
D8
D8
70
ENDCHAR
STARTCHAR 016B
ENCODING 363
SWIDTH 666 0
DWIDTH 6 0
BBX 5 7 1 0
BITMAP
70
00
D8
D8
D8
F8
F8
ENDCHAR
STARTCHAR 016C
ENCODING 364
SWIDTH 777 0
DWIDTH 7 0
BBX 5 8 1 0
BITMAP
70
00
D8
D8
D8
D8
F8
70
ENDCHAR
STARTCHAR 016D
ENCODING 365
SWIDTH 666 0
DWIDTH 6 0
BBX 5 7 1 0
BITMAP
70
00
D8
D8
D8
F8
F8
ENDCHAR
STARTCHAR 016E
ENCODING 366
SWIDTH 777 0
DWIDTH 7 0
BBX 5 10 1 0
BITMAP
30
30
30
00
D8
D8
D8
D8
D8
70
ENDCHAR
STARTCHAR 016F
ENCODING 367
SWIDTH 666 0
DWIDTH 6 0
BBX 5 8 1 0
BITMAP
20
30
20
D8
D8
D8
F8
F8
ENDCHAR
STARTCHAR 0170
ENCODING 368
SWIDTH 777 0
DWIDTH 7 0
BBX 5 8 1 0
BITMAP
78
00
D8
D8
D8
D8
D8
70
ENDCHAR
STARTCHAR 0171
ENCODING 369
SWIDTH 666 0
DWIDTH 6 0
BBX 5 7 1 0
BITMAP
78
00
D8
D8
D8
F8
F8
ENDCHAR
STARTCHAR 0172
ENCODING 370
SWIDTH 777 0
DWIDTH 7 0
BBX 5 8 1 -2
BITMAP
D8
D8
D8
D8
D8
70
10
18
ENDCHAR
STARTCHAR 0173
ENCODING 371
SWIDTH 666 0
DWIDTH 6 0
BBX 5 6 1 -2
BITMAP
D8
D8
D8
F8
F8
10
ENDCHAR
STARTCHAR 0174
ENCODING 372
SWIDTH 888 0
DWIDTH 8 0
BBX 8 8 0 0
BITMAP
1C
00
DB
DB
5F
7E
76
66
ENDCHAR
STARTCHAR 0175
ENCODING 373
SWIDTH 888 0
DWIDTH 8 0
BBX 8 7 0 0
BITMAP
18
00
DB
DA
5A
7E
6E
ENDCHAR
STARTCHAR 0176
ENCODING 374
SWIDTH 666 0
DWIDTH 6 0
BBX 6 8 0 0
BITMAP
30
00
CC
78
78
30
30
30
ENDCHAR
STARTCHAR 0177
ENCODING 375
SWIDTH 555 0
DWIDTH 5 0
BBX 5 9 0 -2
BITMAP
70
00
D8
D0
D0
70
70
60
E0
ENDCHAR
STARTCHAR 0178
ENCODING 376
SWIDTH 666 0
DWIDTH 6 0
BBX 6 8 0 0
BITMAP
50
00
CC
78
78
30
30
30
ENDCHAR
STARTCHAR 0179
ENCODING 377
SWIDTH 777 0
DWIDTH 7 0
BBX 5 8 1 0
BITMAP
30
00
F8
38
30
60
C0
F8
ENDCHAR
STARTCHAR 017A
ENCODING 378
SWIDTH 666 0
DWIDTH 6 0
BBX 4 7 1 0
BITMAP
20
00
F0
30
60
C0
F0
ENDCHAR
STARTCHAR 017B
ENCODING 379
SWIDTH 777 0
DWIDTH 7 0
BBX 5 8 1 0
BITMAP
60
00
F8
38
70
60
C0
F8
ENDCHAR
STARTCHAR 017C
ENCODING 380
SWIDTH 666 0
DWIDTH 6 0
BBX 4 7 1 1
BITMAP
60
00
F0
30
60
E0
F0
ENDCHAR
STARTCHAR 017D
ENCODING 381
SWIDTH 777 0
DWIDTH 7 0
BBX 5 8 1 0
BITMAP
70
00
F8
38
30
60
C0
F8
ENDCHAR
STARTCHAR 017E
ENCODING 382
SWIDTH 666 0
DWIDTH 6 0
BBX 4 7 1 0
BITMAP
60
00
F0
30
60
C0
F0
ENDCHAR
STARTCHAR 018F
ENCODING 399
SWIDTH 777 0
DWIDTH 7 0
BBX 6 6 1 0
BITMAP
70
D8
FC
C8
D8
78
ENDCHAR
STARTCHAR 0192
ENCODING 402
SWIDTH 666 0
DWIDTH 6 0
BBX 5 6 0 0
BITMAP
18
30
78
30
20
E0
ENDCHAR
STARTCHAR 01A0
ENCODING 416
SWIDTH 888 0
DWIDTH 8 0
BBX 7 7 1 0
BITMAP
06
7C
DC
CC
CC
DC
78
ENDCHAR
STARTCHAR 01A1
ENCODING 417
SWIDTH 777 0
DWIDTH 7 0
BBX 5 6 1 0
BITMAP
18
78
D0
D8
D8
70
ENDCHAR
STARTCHAR 01AF
ENCODING 431
SWIDTH 888 0
DWIDTH 8 0
BBX 7 7 1 0
BITMAP
06
DE
D8
D8
D8
D8
70
ENDCHAR
STARTCHAR 01B0
ENCODING 432
SWIDTH 888 0
DWIDTH 8 0
BBX 6 6 1 0
BITMAP
04
DC
D8
D8
F8
F8
ENDCHAR
STARTCHAR 01C4
ENCODING 452
SWIDTH 1444 0
DWIDTH 13 0
BBX 11 8 1 0
BITMAP
01C0
0000
F3E0
D8E0
D8C0
D980
DB00
F3E0
ENDCHAR
STARTCHAR 01C5
ENCODING 453
SWIDTH 1333 0
DWIDTH 12 0
BBX 10 7 1 0
BITMAP
0180
F000
DBC0
D8C0
D980
DB00
F3C0
ENDCHAR
STARTCHAR 01C6
ENCODING 454
SWIDTH 1333 0
DWIDTH 12 0
BBX 10 7 1 0
BITMAP
1980
1800
7BC0
D8C0
D980
DB00
7BC0
ENDCHAR
STARTCHAR 01C7
ENCODING 455
SWIDTH 1222 0
DWIDTH 11 0
BBX 10 6 1 0
BITMAP
C0C0
C0C0
C0C0
C0C0
F7C0
F380
ENDCHAR
STARTCHAR 01C8
ENCODING 456
SWIDTH 1000 0
DWIDTH 9 0
BBX 7 9 1 -1
BITMAP
06
C0
C6
C6
C6
F6
F6
06
0E
ENDCHAR
STARTCHAR 01C9
ENCODING 457
SWIDTH 666 0
DWIDTH 6 0
BBX 5 9 1 -1
BITMAP
D8
C0
D8
D8
D8
D8
D8
18
30
ENDCHAR
STARTCHAR 01CA
ENCODING 458
SWIDTH 1333 0
DWIDTH 12 0
BBX 11 6 1 0
BITMAP
D860
D860
F860
F860
DBE0
D9C0
ENDCHAR
STARTCHAR 01CB
ENCODING 459
SWIDTH 1111 0
DWIDTH 10 0
BBX 8 9 1 -1
BITMAP
03
D8
DB
FB
FB
DB
DB
03
07
ENDCHAR
STARTCHAR 01CC
ENCODING 460
SWIDTH 1000 0
DWIDTH 9 0
BBX 8 9 1 -1
BITMAP
03
00
F3
FB
DB
DB
DB
03
06
ENDCHAR
STARTCHAR 01CD
ENCODING 461
SWIDTH 666 0
DWIDTH 6 0
BBX 6 8 0 0
BITMAP
30
00
30
78
78
78
7C
CC
ENDCHAR
STARTCHAR 01CE
ENCODING 462
SWIDTH 666 0
DWIDTH 6 0
BBX 5 7 1 0
BITMAP
70
00
70
D0
F8
D8
F8
ENDCHAR
STARTCHAR 01CF
ENCODING 463
SWIDTH 333 0
DWIDTH 3 0
BBX 2 8 1 0
BITMAP
C0
00
C0
C0
C0
C0
C0
C0
ENDCHAR
STARTCHAR 01D0
ENCODING 464
SWIDTH 333 0
DWIDTH 3 0
BBX 2 7 1 0
BITMAP
C0
00
C0
C0
C0
C0
C0
ENDCHAR
STARTCHAR 01D1
ENCODING 465
SWIDTH 777 0
DWIDTH 7 0
BBX 6 8 1 0
BITMAP
30
00
78
DC
CC
CC
CC
78
ENDCHAR
STARTCHAR 01D2
ENCODING 466
SWIDTH 666 0
DWIDTH 6 0
BBX 5 7 1 0
BITMAP
70
00
70
D8
D8
D8
70
ENDCHAR
STARTCHAR 01D3
ENCODING 467
SWIDTH 777 0
DWIDTH 7 0
BBX 5 8 1 0
BITMAP
70
00
D8
D8
D8
D8
D8
70
ENDCHAR
STARTCHAR 01D4
ENCODING 468
SWIDTH 666 0
DWIDTH 6 0
BBX 5 7 1 0
BITMAP
70
00
D8
D8
D8
F8
F8
ENDCHAR
STARTCHAR 01D5
ENCODING 469
SWIDTH 777 0
DWIDTH 7 0
BBX 5 9 1 0
BITMAP
70
50
00
D8
D8
D8
D8
D8
70
ENDCHAR
STARTCHAR 01D6
ENCODING 470
SWIDTH 666 0
DWIDTH 6 0
BBX 5 8 1 0
BITMAP
70
B0
00
D8
D8
D8
F8
F8
ENDCHAR
STARTCHAR 01D7
ENCODING 471
SWIDTH 777 0
DWIDTH 7 0
BBX 5 9 1 0
BITMAP
20
50
00
D8
D8
D8
D8
D8
70
ENDCHAR
STARTCHAR 01D8
ENCODING 472
SWIDTH 666 0
DWIDTH 6 0
BBX 5 8 1 0
BITMAP
30
B0
00
D8
D8
D8
F8
F8
ENDCHAR
STARTCHAR 01D9
ENCODING 473
SWIDTH 777 0
DWIDTH 7 0
BBX 5 9 1 0
BITMAP
20
50
00
D8
D8
D8
D8
D8
70
ENDCHAR
STARTCHAR 01DA
ENCODING 474
SWIDTH 666 0
DWIDTH 6 0
BBX 5 8 1 0
BITMAP
70
B0
00
D8
D8
D8
F8
F8
ENDCHAR
STARTCHAR 01DB
ENCODING 475
SWIDTH 777 0
DWIDTH 7 0
BBX 5 9 1 0
BITMAP
20
50
00
D8
D8
D8
D8
D8
70
ENDCHAR
STARTCHAR 01DC
ENCODING 476
SWIDTH 666 0
DWIDTH 6 0
BBX 5 8 1 0
BITMAP
60
B0
00
D8
D8
D8
F8
F8
ENDCHAR
STARTCHAR 01DD
ENCODING 477
SWIDTH 666 0
DWIDTH 6 0
BBX 5 5 1 0
BITMAP
70
D0
F8
D0
70
ENDCHAR
STARTCHAR 01DE
ENCODING 478
SWIDTH 666 0
DWIDTH 6 0
BBX 6 9 0 0
BITMAP
38
38
00
30
78
78
78
7C
CC
ENDCHAR
STARTCHAR 01DF
ENCODING 479
SWIDTH 666 0
DWIDTH 6 0
BBX 5 8 1 0
BITMAP
70
50
00
70
D0
F8
D8
F8
ENDCHAR
STARTCHAR 01E0
ENCODING 480
SWIDTH 666 0
DWIDTH 6 0
BBX 6 9 0 0
BITMAP
38
30
00
30
78
78
78
7C
CC
ENDCHAR
STARTCHAR 01E1
ENCODING 481
SWIDTH 666 0
DWIDTH 6 0
BBX 5 8 0 0
BITMAP
70
30
00
70
58
78
F8
68
ENDCHAR
STARTCHAR 01E2
ENCODING 482
SWIDTH 1000 0
DWIDTH 9 0
BBX 8 8 0 0
BITMAP
06
00
3F
3C
6F
6C
7C
CF
ENDCHAR
STARTCHAR 01E3
ENCODING 483
SWIDTH 1000 0
DWIDTH 9 0
BBX 8 7 1 0
BITMAP
38
00
7E
DA
FF
DA
EE
ENDCHAR
STARTCHAR 01E6
ENCODING 486
SWIDTH 777 0
DWIDTH 7 0
BBX 5 8 1 0
BITMAP
70
00
70
D8
C0
D8
F8
70
ENDCHAR
STARTCHAR 01E7
ENCODING 487
SWIDTH 666 0
DWIDTH 6 0
BBX 5 9 1 -2
BITMAP
70
00
78
F8
D8
D8
78
D8
70
ENDCHAR
STARTCHAR 01E8
ENCODING 488
SWIDTH 777 0
DWIDTH 7 0
BBX 5 8 1 0
BITMAP
70
00
D8
D0
F0
F0
D8
D8
ENDCHAR
STARTCHAR 01E9
ENCODING 489
SWIDTH 666 0
DWIDTH 6 0
BBX 5 9 1 0
BITMAP
C0
00
C0
C0
D8
F0
F0
F0
D8
ENDCHAR
STARTCHAR 01EA
ENCODING 490
SWIDTH 777 0
DWIDTH 7 0
BBX 6 8 1 -2
BITMAP
78
DC
CC
CC
CC
78
10
08
ENDCHAR
STARTCHAR 01EB
ENCODING 491
SWIDTH 666 0
DWIDTH 6 0
BBX 5 6 1 -2
BITMAP
70
D8
D8
D8
70
30
ENDCHAR
STARTCHAR 01EC
ENCODING 492
SWIDTH 777 0
DWIDTH 7 0
BBX 6 10 1 -2
BITMAP
78
00
78
DC
CC
CC
CC
78
10
08
ENDCHAR
STARTCHAR 01ED
ENCODING 493
SWIDTH 666 0
DWIDTH 6 0
BBX 5 8 1 -2
BITMAP
70
00
70
D8
D8
D8
70
30
ENDCHAR
STARTCHAR 01F1
ENCODING 497
SWIDTH 1444 0
DWIDTH 13 0
BBX 11 6 1 0
BITMAP
F3E0
D8E0
D8C0
D980
DB00
F3E0
ENDCHAR
STARTCHAR 01F2
ENCODING 498
SWIDTH 1333 0
DWIDTH 12 0
BBX 10 6 1 0
BITMAP
F000
DBC0
D8C0
D980
DB00
F3C0
ENDCHAR
STARTCHAR 01F3
ENCODING 499
SWIDTH 1333 0
DWIDTH 12 0
BBX 10 7 1 0
BITMAP
1800
1800
7BC0
D8C0
D980
DB00
7BC0
ENDCHAR
STARTCHAR 01F4
ENCODING 500
SWIDTH 777 0
DWIDTH 7 0
BBX 5 8 1 0
BITMAP
30
00
70
D8
C0
D8
F8
70
ENDCHAR
STARTCHAR 01F5
ENCODING 501
SWIDTH 666 0
DWIDTH 6 0
BBX 5 9 1 -2
BITMAP
30
00
78
F8
D8
D8
78
D8
70
ENDCHAR
STARTCHAR 01F8
ENCODING 504
SWIDTH 777 0
DWIDTH 7 0
BBX 5 8 1 0
BITMAP
60
00
D8
D8
F8
F8
D8
D8
ENDCHAR
STARTCHAR 01F9
ENCODING 505
SWIDTH 666 0
DWIDTH 6 0
BBX 5 7 1 0
BITMAP
60
00
F0
F8
D8
D8
D8
ENDCHAR
STARTCHAR 01FA
ENCODING 506
SWIDTH 666 0
DWIDTH 6 0
BBX 6 9 0 0
BITMAP
30
30
00
30
78
78
58
F8
CC
ENDCHAR
STARTCHAR 01FB
ENCODING 507
SWIDTH 666 0
DWIDTH 6 0
BBX 5 9 1 0
BITMAP
20
60
A0
60
70
F0
F8
B8
F8
ENDCHAR
STARTCHAR 01FC
ENCODING 508
SWIDTH 1000 0
DWIDTH 9 0
BBX 8 8 0 0
BITMAP
02
00
3F
3C
6F
6C
7C
CF
ENDCHAR
STARTCHAR 01FD
ENCODING 509
SWIDTH 1000 0
DWIDTH 9 0
BBX 8 7 1 0
BITMAP
18
00
7E
DA
FF
DA
EE
ENDCHAR
STARTCHAR 01FE
ENCODING 510
SWIDTH 777 0
DWIDTH 7 0
BBX 6 8 1 0
BITMAP
10
00
7C
DC
DC
EC
DC
F8
ENDCHAR
STARTCHAR 01FF
ENCODING 511
SWIDTH 777 0
DWIDTH 7 0
BBX 5 7 1 0
BITMAP
30
00
78
D8
F8
D8
F0
ENDCHAR
STARTCHAR 0200
ENCODING 512
SWIDTH 666 0
DWIDTH 6 0
BBX 6 8 0 0
BITMAP
50
00
30
78
78
78
7C
CC
ENDCHAR
STARTCHAR 0201
ENCODING 513
SWIDTH 666 0
DWIDTH 6 0
BBX 5 7 1 0
BITMAP
E0
00
70
D0
F8
D8
F8
ENDCHAR
STARTCHAR 0202
ENCODING 514
SWIDTH 666 0
DWIDTH 6 0
BBX 6 9 0 0
BITMAP
30
38
00
30
78
78
78
7C
CC
ENDCHAR
STARTCHAR 0203
ENCODING 515
SWIDTH 666 0
DWIDTH 6 0
BBX 5 8 1 0
BITMAP
60
50
00
70
D0
F8
D8
F8
ENDCHAR
STARTCHAR 0204
ENCODING 516
SWIDTH 555 0
DWIDTH 5 0
BBX 4 8 1 0
BITMAP
A0
00
F0
C0
F0
C0
C0
F0
ENDCHAR
STARTCHAR 0205
ENCODING 517
SWIDTH 666 0
DWIDTH 6 0
BBX 5 7 1 0
BITMAP
E0
00
70
D0
F8
D0
70
ENDCHAR
STARTCHAR 0206
ENCODING 518
SWIDTH 555 0
DWIDTH 5 0
BBX 4 9 1 0
BITMAP
60
70
00
F0
C0
F0
C0
C0
F0
ENDCHAR
STARTCHAR 0207
ENCODING 519
SWIDTH 666 0
DWIDTH 6 0
BBX 5 8 1 0
BITMAP
60
50
00
70
D0
F8
D0
70
ENDCHAR
STARTCHAR 0208
ENCODING 520
SWIDTH 333 0
DWIDTH 3 0
BBX 3 8 0 0
BITMAP
A0
00
60
60
60
60
60
60
ENDCHAR
STARTCHAR 0209
ENCODING 521
SWIDTH 333 0
DWIDTH 3 0
BBX 3 7 0 0
BITMAP
A0
00
60
60
60
60
60
ENDCHAR
STARTCHAR 020A
ENCODING 522
SWIDTH 333 0
DWIDTH 3 0
BBX 3 9 0 0
BITMAP
60
E0
00
60
60
60
60
60
60
ENDCHAR
STARTCHAR 020B
ENCODING 523
SWIDTH 333 0
DWIDTH 3 0
BBX 3 8 0 0
BITMAP
60
E0
00
60
60
60
60
60
ENDCHAR
STARTCHAR 020C
ENCODING 524
SWIDTH 777 0
DWIDTH 7 0
BBX 6 8 1 0
BITMAP
50
00
78
DC
CC
CC
CC
78
ENDCHAR
STARTCHAR 020D
ENCODING 525
SWIDTH 666 0
DWIDTH 6 0
BBX 5 7 1 0
BITMAP
F0
00
70
D8
D8
D8
70
ENDCHAR
STARTCHAR 020E
ENCODING 526
SWIDTH 777 0
DWIDTH 7 0
BBX 6 9 1 0
BITMAP
30
78
00
78
DC
CC
CC
CC
78
ENDCHAR
STARTCHAR 020F
ENCODING 527
SWIDTH 666 0
DWIDTH 6 0
BBX 5 8 1 0
BITMAP
60
50
00
70
D8
D8
D8
70
ENDCHAR
STARTCHAR 0210
ENCODING 528
SWIDTH 777 0
DWIDTH 7 0
BBX 5 8 1 0
BITMAP
F0
00
F0
D8
D8
F8
F0
D8
ENDCHAR
STARTCHAR 0211
ENCODING 529
SWIDTH 555 0
DWIDTH 5 0
BBX 5 7 0 0
BITMAP
F0
00
78
60
60
60
60
ENDCHAR
STARTCHAR 0212
ENCODING 530
SWIDTH 777 0
DWIDTH 7 0
BBX 5 9 1 0
BITMAP
20
70
00
F0
D8
D8
F8
F0
D8
ENDCHAR
STARTCHAR 0213
ENCODING 531
SWIDTH 555 0
DWIDTH 5 0
BBX 4 8 1 0
BITMAP
60
A0
00
F0
C0
C0
C0
C0
ENDCHAR
STARTCHAR 0214
ENCODING 532
SWIDTH 777 0
DWIDTH 7 0
BBX 5 8 1 0
BITMAP
F0
00
D8
D8
D8
D8
D8
70
ENDCHAR
STARTCHAR 0215
ENCODING 533
SWIDTH 666 0
DWIDTH 6 0
BBX 5 7 1 0
BITMAP
F0
00
D8
D8
D8
F8
F8
ENDCHAR
STARTCHAR 0216
ENCODING 534
SWIDTH 777 0
DWIDTH 7 0
BBX 5 9 1 0
BITMAP
20
70
00
D8
D8
D8
D8
D8
70
ENDCHAR
STARTCHAR 0217
ENCODING 535
SWIDTH 666 0
DWIDTH 6 0
BBX 5 8 1 0
BITMAP
60
50
00
D8
D8
D8
F8
F8
ENDCHAR
STARTCHAR 0218
ENCODING 536
SWIDTH 777 0
DWIDTH 7 0
BBX 5 8 1 -2
BITMAP
70
D8
F0
78
D8
70
00
20
ENDCHAR
STARTCHAR 0219
ENCODING 537
SWIDTH 666 0
DWIDTH 6 0
BBX 4 7 1 -2
BITMAP
F0
D0
F0
D0
F0
00
20
ENDCHAR
STARTCHAR 021A
ENCODING 538
SWIDTH 777 0
DWIDTH 7 0
BBX 5 8 1 -2
BITMAP
F8
60
60
60
60
60
00
60
ENDCHAR
STARTCHAR 021B
ENCODING 539
SWIDTH 666 0
DWIDTH 6 0
BBX 4 8 1 -2
BITMAP
60
F0
60
60
60
70
00
20
ENDCHAR
STARTCHAR 021E
ENCODING 542
SWIDTH 777 0
DWIDTH 7 0
BBX 6 8 1 0
BITMAP
70
00
CC
CC
FC
CC
CC
CC
ENDCHAR
STARTCHAR 021F
ENCODING 543
SWIDTH 666 0
DWIDTH 6 0
BBX 5 9 1 0
BITMAP
C0
00
C0
C0
F0
F8
D8
D8
D8
ENDCHAR
STARTCHAR 0226
ENCODING 550
SWIDTH 666 0
DWIDTH 6 0
BBX 6 8 0 0
BITMAP
30
00
70
78
78
D8
FC
CC
ENDCHAR
STARTCHAR 0227
ENCODING 551
SWIDTH 666 0
DWIDTH 6 0
BBX 5 7 0 1
BITMAP
30
00
70
58
78
D8
68
ENDCHAR
STARTCHAR 0228
ENCODING 552
SWIDTH 555 0
DWIDTH 5 0
BBX 4 8 1 -2
BITMAP
F0
C0
F0
C0
C0
F0
60
60
ENDCHAR
STARTCHAR 0229
ENCODING 553
SWIDTH 666 0
DWIDTH 6 0
BBX 5 7 1 -2
BITMAP
70
D0
F8
C0
70
20
20
ENDCHAR
STARTCHAR 022A
ENCODING 554
SWIDTH 777 0
DWIDTH 7 0
BBX 6 9 1 0
BITMAP
78
28
00
78
DC
CC
CC
CC
78
ENDCHAR
STARTCHAR 022B
ENCODING 555
SWIDTH 666 0
DWIDTH 6 0
BBX 5 8 1 0
BITMAP
70
50
00
70
D8
D8
D8
70
ENDCHAR
STARTCHAR 022C
ENCODING 556
SWIDTH 777 0
DWIDTH 7 0
BBX 6 9 1 0
BITMAP
78
70
00
78
DC
CC
CC
CC
78
ENDCHAR
STARTCHAR 022D
ENCODING 557
SWIDTH 666 0
DWIDTH 6 0
BBX 5 8 1 0
BITMAP
70
70
70
70
D8
D8
D8
70
ENDCHAR
STARTCHAR 022E
ENCODING 558
SWIDTH 777 0
DWIDTH 7 0
BBX 6 8 1 0
BITMAP
30
00
78
DC
CC
CC
CC
78
ENDCHAR
STARTCHAR 022F
ENCODING 559
SWIDTH 666 0
DWIDTH 6 0
BBX 5 7 1 1
BITMAP
60
00
70
D8
D8
D8
70
ENDCHAR
STARTCHAR 0230
ENCODING 560
SWIDTH 777 0
DWIDTH 7 0
BBX 6 9 1 0
BITMAP
78
10
00
78
DC
CC
CC
CC
78
ENDCHAR
STARTCHAR 0231
ENCODING 561
SWIDTH 666 0
DWIDTH 6 0
BBX 5 8 1 0
BITMAP
70
60
00
70
D8
D8
D8
70
ENDCHAR
STARTCHAR 0232
ENCODING 562
SWIDTH 666 0
DWIDTH 6 0
BBX 6 8 0 0
BITMAP
70
00
CC
78
78
30
30
30
ENDCHAR
STARTCHAR 0233
ENCODING 563
SWIDTH 555 0
DWIDTH 5 0
BBX 5 9 0 -2
BITMAP
70
00
D8
D0
D0
70
70
60
E0
ENDCHAR
STARTCHAR 0237
ENCODING 567
SWIDTH 333 0
DWIDTH 3 0
BBX 3 7 0 -2
BITMAP
60
60
60
60
60
60
C0
ENDCHAR
STARTCHAR 0259
ENCODING 601
SWIDTH 666 0
DWIDTH 6 0
BBX 5 5 1 0
BITMAP
70
D0
F8
D0
70
ENDCHAR
STARTCHAR 02BC
ENCODING 700
SWIDTH 333 0
DWIDTH 3 0
BBX 2 3 0 3
BITMAP
40
40
C0
ENDCHAR
STARTCHAR 02C6
ENCODING 710
SWIDTH 444 0
DWIDTH 4 0
BBX 3 1 1 6
BITMAP
E0
ENDCHAR
STARTCHAR 02C7
ENCODING 711
SWIDTH 444 0
DWIDTH 4 0
BBX 3 1 1 6
BITMAP
E0
ENDCHAR
STARTCHAR 02D8
ENCODING 728
SWIDTH 444 0
DWIDTH 4 0
BBX 3 1 1 6
BITMAP
E0
ENDCHAR
STARTCHAR 02D9
ENCODING 729
SWIDTH 444 0
DWIDTH 4 0
BBX 2 1 1 6
BITMAP
C0
ENDCHAR
STARTCHAR 02DA
ENCODING 730
SWIDTH 444 0
DWIDTH 4 0
BBX 2 2 1 5
BITMAP
C0
C0
ENDCHAR
STARTCHAR 02DB
ENCODING 731
SWIDTH 444 0
DWIDTH 4 0
BBX 2 2 1 -2
BITMAP
80
C0
ENDCHAR
STARTCHAR 02DC
ENCODING 732
SWIDTH 444 0
DWIDTH 4 0
BBX 3 2 1 6
BITMAP
A0
40
ENDCHAR
STARTCHAR 02DD
ENCODING 733
SWIDTH 444 0
DWIDTH 4 0
BBX 3 1 1 6
BITMAP
A0
ENDCHAR
STARTCHAR 0300
ENCODING 768
SWIDTH 0 0
DWIDTH 0 0
BBX 1 1 -1 6
BITMAP
80
ENDCHAR
STARTCHAR 0301
ENCODING 769
SWIDTH 0 0
DWIDTH 0 0
BBX 1 1 0 6
BITMAP
80
ENDCHAR
STARTCHAR 0302
ENCODING 770
SWIDTH 0 0
DWIDTH 0 0
BBX 2 1 -1 6
BITMAP
C0
ENDCHAR
STARTCHAR 0303
ENCODING 771
SWIDTH 0 0
DWIDTH 0 0
BBX 4 2 -2 6
BITMAP
50
A0
ENDCHAR
STARTCHAR 0304
ENCODING 772
SWIDTH 0 0
DWIDTH 0 0
BBX 4 1 -2 6
BITMAP
F0
ENDCHAR
STARTCHAR 0306
ENCODING 774
SWIDTH 0 0
DWIDTH 0 0
BBX 2 1 -1 6
BITMAP
C0
ENDCHAR
STARTCHAR 0307
ENCODING 775
SWIDTH 0 0
DWIDTH 0 0
BBX 2 1 -1 6
BITMAP
C0
ENDCHAR
STARTCHAR 0308
ENCODING 776
SWIDTH 0 0
DWIDTH 0 0
BBX 4 1 -2 6
BITMAP
F0
ENDCHAR
STARTCHAR 0309
ENCODING 777
SWIDTH 0 0
DWIDTH 0 0
BBX 2 2 -1 5
BITMAP
C0
40
ENDCHAR
STARTCHAR 030A
ENCODING 778
SWIDTH 0 0
DWIDTH 0 0
BBX 2 2 -1 5
BITMAP
C0
C0
ENDCHAR
STARTCHAR 030B
ENCODING 779
SWIDTH 0 0
DWIDTH 0 0
BBX 3 1 -1 6
BITMAP
A0
ENDCHAR
STARTCHAR 030C
ENCODING 780
SWIDTH 0 0
DWIDTH 0 0
BBX 2 1 -1 6
BITMAP
C0
ENDCHAR
STARTCHAR 030F
ENCODING 783
SWIDTH 0 0
DWIDTH 0 0
BBX 3 1 -2 6
BITMAP
A0
ENDCHAR
STARTCHAR 0311
ENCODING 785
SWIDTH 0 0
DWIDTH 0 0
BBX 4 2 -2 5
BITMAP
60
90
ENDCHAR
STARTCHAR 031B
ENCODING 795
SWIDTH 0 0
DWIDTH 0 0
BBX 2 2 -2 4
BITMAP
40
C0
ENDCHAR
STARTCHAR 0323
ENCODING 803
SWIDTH 0 0
DWIDTH 0 0
BBX 2 1 -1 -1
BITMAP
C0
ENDCHAR
STARTCHAR 0324
ENCODING 804
SWIDTH 0 0
DWIDTH 0 0
BBX 4 1 -2 -2
BITMAP
F0
ENDCHAR
STARTCHAR 0325
ENCODING 805
SWIDTH 0 0
DWIDTH 0 0
BBX 2 2 -1 -3
BITMAP
C0
C0
ENDCHAR
STARTCHAR 0326
ENCODING 806
SWIDTH 0 0
DWIDTH 0 0
BBX 2 1 -1 -2
BITMAP
C0
ENDCHAR
STARTCHAR 0327
ENCODING 807
SWIDTH 0 0
DWIDTH 0 0
BBX 2 2 -1 -2
BITMAP
C0
C0
ENDCHAR
STARTCHAR 0328
ENCODING 808
SWIDTH 0 0
DWIDTH 0 0
BBX 2 2 -1 -2
BITMAP
80
C0
ENDCHAR
STARTCHAR 032D
ENCODING 813
SWIDTH 0 0
DWIDTH 0 0
BBX 2 1 -1 -1
BITMAP
C0
ENDCHAR
STARTCHAR 032E
ENCODING 814
SWIDTH 0 0
DWIDTH 0 0
BBX 2 1 -1 -2
BITMAP
C0
ENDCHAR
STARTCHAR 0330
ENCODING 816
SWIDTH 0 0
DWIDTH 0 0
BBX 3 1 -2 -2
BITMAP
E0
ENDCHAR
STARTCHAR 0331
ENCODING 817
SWIDTH 0 0
DWIDTH 0 0
BBX 4 1 -2 -2
BITMAP
F0
ENDCHAR
STARTCHAR 0332
ENCODING 818
SWIDTH 0 0
DWIDTH 0 0
BBX 4 1 -2 -2
BITMAP
F0
ENDCHAR
STARTCHAR 037E
ENCODING 894
SWIDTH 333 0
DWIDTH 3 0
BBX 2 7 1 -2
BITMAP
C0
C0
00
00
C0
80
80
ENDCHAR
STARTCHAR 0384
ENCODING 900
SWIDTH 444 0
DWIDTH 4 0
BBX 2 1 1 6
BITMAP
C0
ENDCHAR
STARTCHAR 0385
ENCODING 901
SWIDTH 666 0
DWIDTH 6 0
BBX 4 1 1 6
BITMAP
F0
ENDCHAR
STARTCHAR 0386
ENCODING 902
SWIDTH 777 0
DWIDTH 7 0
BBX 6 6 1 0
BITMAP
B0
78
78
78
7C
CC
ENDCHAR
STARTCHAR 0387
ENCODING 903
SWIDTH 333 0
DWIDTH 3 0
BBX 2 2 1 3
BITMAP
C0
C0
ENDCHAR
STARTCHAR 0388
ENCODING 904
SWIDTH 777 0
DWIDTH 7 0
BBX 6 6 1 0
BITMAP
BC
30
3C
30
30
3C
ENDCHAR
STARTCHAR 0389
ENCODING 905
SWIDTH 1000 0
DWIDTH 9 0
BBX 7 6 1 0
BITMAP
B6
36
3E
36
36
36
ENDCHAR
STARTCHAR 038A
ENCODING 906
SWIDTH 555 0
DWIDTH 5 0
BBX 4 6 1 0
BITMAP
B0
30
30
30
30
30
ENDCHAR
STARTCHAR 038C
ENCODING 908
SWIDTH 888 0
DWIDTH 8 0
BBX 8 6 0 0
BITMAP
5E
F7
33
33
37
1E
ENDCHAR
STARTCHAR 038E
ENCODING 910
SWIDTH 888 0
DWIDTH 8 0
BBX 8 6 0 0
BITMAP
B3
1E
1E
0C
0C
0C
ENDCHAR
STARTCHAR 038F
ENCODING 911
SWIDTH 1000 0
DWIDTH 9 0
BBX 7 6 1 0
BITMAP
BC
E6
66
66
34
76
ENDCHAR
STARTCHAR 0390
ENCODING 912
SWIDTH 444 0
DWIDTH 4 0
BBX 5 7 -1 0
BITMAP
B8
00
30
30
30
30
38
ENDCHAR
STARTCHAR 0391
ENCODING 913
SWIDTH 666 0
DWIDTH 6 0
BBX 6 6 0 0
BITMAP
30
78
78
78
7C
CC
ENDCHAR
STARTCHAR 0392
ENCODING 914
SWIDTH 777 0
DWIDTH 7 0
BBX 5 6 1 0
BITMAP
F8
D8
F0
D8
D8
F0
ENDCHAR
STARTCHAR 0393
ENCODING 915
SWIDTH 555 0
DWIDTH 5 0
BBX 4 6 1 0
BITMAP
F0
C0
C0
C0
C0
C0
ENDCHAR
STARTCHAR 0394
ENCODING 916
SWIDTH 888 0
DWIDTH 8 0
BBX 6 6 1 0
BITMAP
30
78
78
48
CC
FC
ENDCHAR
STARTCHAR 0395
ENCODING 917
SWIDTH 555 0
DWIDTH 5 0
BBX 4 6 1 0
BITMAP
F0
C0
F0
C0
C0
F0
ENDCHAR
STARTCHAR 0396
ENCODING 918
SWIDTH 777 0
DWIDTH 7 0
BBX 5 6 1 0
BITMAP
F8
38
30
60
C0
F8
ENDCHAR
STARTCHAR 0397
ENCODING 919
SWIDTH 777 0
DWIDTH 7 0
BBX 6 6 1 0
BITMAP
CC
CC
FC
CC
CC
CC
ENDCHAR
STARTCHAR 0398
ENCODING 920
SWIDTH 888 0
DWIDTH 8 0
BBX 6 6 1 0
BITMAP
78
CC
FC
CC
CC
78
ENDCHAR
STARTCHAR 0399
ENCODING 921
SWIDTH 333 0
DWIDTH 3 0
BBX 2 6 1 0
BITMAP
C0
C0
C0
C0
C0
C0
ENDCHAR
STARTCHAR 039A
ENCODING 922
SWIDTH 777 0
DWIDTH 7 0
BBX 5 6 1 0
BITMAP
D8
D0
F0
F0
D8
D8
ENDCHAR
STARTCHAR 039B
ENCODING 923
SWIDTH 666 0
DWIDTH 6 0
BBX 6 6 0 0
BITMAP
30
78
78
58
4C
CC
ENDCHAR
STARTCHAR 039C
ENCODING 924
SWIDTH 888 0
DWIDTH 8 0
BBX 7 6 1 0
BITMAP
C6
EE
EE
FE
D6
C6
ENDCHAR
STARTCHAR 039D
ENCODING 925
SWIDTH 777 0
DWIDTH 7 0
BBX 5 6 1 0
BITMAP
D8
D8
F8
F8
D8
D8
ENDCHAR
STARTCHAR 039E
ENCODING 926
SWIDTH 777 0
DWIDTH 7 0
BBX 5 6 1 0
BITMAP
F8
00
F0
00
00
F8
ENDCHAR
STARTCHAR 039F
ENCODING 927
SWIDTH 777 0
DWIDTH 7 0
BBX 6 6 1 0
BITMAP
78
DC
CC
CC
CC
78
ENDCHAR
STARTCHAR 03A0
ENCODING 928
SWIDTH 777 0
DWIDTH 7 0
BBX 5 6 1 0
BITMAP
F8
D8
D8
D8
D8
D8
ENDCHAR
STARTCHAR 03A1
ENCODING 929
SWIDTH 777 0
DWIDTH 7 0
BBX 5 6 1 0
BITMAP
F0
D8
D8
F8
C0
C0
ENDCHAR
STARTCHAR 03A3
ENCODING 931
SWIDTH 777 0
DWIDTH 7 0
BBX 5 6 1 0
BITMAP
F8
E0
60
60
E0
F8
ENDCHAR
STARTCHAR 03A4
ENCODING 932
SWIDTH 777 0
DWIDTH 7 0
BBX 5 6 1 0
BITMAP
F8
60
60
60
60
60
ENDCHAR
STARTCHAR 03A5
ENCODING 933
SWIDTH 666 0
DWIDTH 6 0
BBX 6 6 0 0
BITMAP
CC
78
78
30
30
30
ENDCHAR
STARTCHAR 03A6
ENCODING 934
SWIDTH 1000 0
DWIDTH 9 0
BBX 7 8 1 -1
BITMAP
18
7C
DE
DE
DE
FE
7C
18
ENDCHAR
STARTCHAR 03A7
ENCODING 935
SWIDTH 666 0
DWIDTH 6 0
BBX 6 6 0 0
BITMAP
CC
78
70
70
78
CC
ENDCHAR
STARTCHAR 03A8
ENCODING 936
SWIDTH 888 0
DWIDTH 8 0
BBX 6 6 1 0
BITMAP
FC
FC
FC
FC
7C
30
ENDCHAR
STARTCHAR 03A9
ENCODING 937
SWIDTH 888 0
DWIDTH 8 0
BBX 6 6 1 0
BITMAP
78
CC
CC
CC
68
EC
ENDCHAR
STARTCHAR 03AA
ENCODING 938
SWIDTH 333 0
DWIDTH 3 0
BBX 3 8 0 0
BITMAP
A0
00
60
60
60
60
60
60
ENDCHAR
STARTCHAR 03AB
ENCODING 939
SWIDTH 666 0
DWIDTH 6 0
BBX 6 8 0 0
BITMAP
50
00
CC
78
78
30
30
30
ENDCHAR
STARTCHAR 03AC
ENCODING 940
SWIDTH 777 0
DWIDTH 7 0
BBX 6 7 1 0
BITMAP
20
00
78
D8
D8
D8
7C
ENDCHAR
STARTCHAR 03AD
ENCODING 941
SWIDTH 666 0
DWIDTH 6 0
BBX 5 7 1 0
BITMAP
20
00
F0
D8
60
D8
F0
ENDCHAR
STARTCHAR 03AE
ENCODING 942
SWIDTH 666 0
DWIDTH 6 0
BBX 6 9 0 -2
BITMAP
30
00
D8
6C
6C
6C
6C
0C
0C
ENDCHAR
STARTCHAR 03AF
ENCODING 943
SWIDTH 444 0
DWIDTH 4 0
BBX 3 7 1 0
BITMAP
C0
00
C0
C0
C0
C0
E0
ENDCHAR
STARTCHAR 03B0
ENCODING 944
SWIDTH 666 0
DWIDTH 6 0
BBX 6 7 0 0
BITMAP
D8
00
6C
6C
6C
7C
38
ENDCHAR
STARTCHAR 03B1
ENCODING 945
SWIDTH 777 0
DWIDTH 7 0
BBX 6 5 1 0
BITMAP
78
D8
D8
D8
7C
ENDCHAR
STARTCHAR 03B2
ENCODING 946
SWIDTH 777 0
DWIDTH 7 0
BBX 5 9 1 -2
BITMAP
70
D0
D0
F0
D8
D8
F8
C0
C0
ENDCHAR
STARTCHAR 03B3
ENCODING 947
SWIDTH 666 0
DWIDTH 6 0
BBX 6 7 0 -2
BITMAP
CC
4C
6C
78
38
30
30
ENDCHAR
STARTCHAR 03B4
ENCODING 948
SWIDTH 666 0
DWIDTH 6 0
BBX 5 7 1 0
BITMAP
70
60
70
F8
D8
D8
70
ENDCHAR
STARTCHAR 03B5
ENCODING 949
SWIDTH 666 0
DWIDTH 6 0
BBX 5 5 1 0
BITMAP
F0
D8
60
D8
F0
ENDCHAR
STARTCHAR 03B6
ENCODING 950
SWIDTH 666 0
DWIDTH 6 0
BBX 4 8 1 -1
BITMAP
F0
70
E0
C0
C0
F0
30
30
ENDCHAR
STARTCHAR 03B7
ENCODING 951
SWIDTH 666 0
DWIDTH 6 0
BBX 6 7 0 -2
BITMAP
D8
6C
6C
6C
6C
0C
0C
ENDCHAR
STARTCHAR 03B8
ENCODING 952
SWIDTH 777 0
DWIDTH 7 0
BBX 5 7 1 0
BITMAP
70
D8
D8
F8
D8
D8
70
ENDCHAR
STARTCHAR 03B9
ENCODING 953
SWIDTH 444 0
DWIDTH 4 0
BBX 3 5 1 0
BITMAP
C0
C0
C0
C0
E0
ENDCHAR
STARTCHAR 03BA
ENCODING 954
SWIDTH 666 0
DWIDTH 6 0
BBX 5 5 1 0
BITMAP
D8
F0
F0
D0
D8
ENDCHAR
STARTCHAR 03BB
ENCODING 955
SWIDTH 666 0
DWIDTH 6 0
BBX 5 7 1 0
BITMAP
C0
60
60
60
F0
F0
98
ENDCHAR
STARTCHAR 03BC
ENCODING 956
SWIDTH 777 0
DWIDTH 7 0
BBX 5 7 1 -2
BITMAP
D8
D8
D8
D8
F8
C0
C0
ENDCHAR
STARTCHAR 03BD
ENCODING 957
SWIDTH 666 0
DWIDTH 6 0
BBX 5 5 1 0
BITMAP
98
D8
D8
70
70
ENDCHAR
STARTCHAR 03BE
ENCODING 958
SWIDTH 666 0
DWIDTH 6 0
BBX 4 9 1 -2
BITMAP
F0
F0
C0
F0
C0
E0
70
30
30
ENDCHAR
STARTCHAR 03BF
ENCODING 959
SWIDTH 666 0
DWIDTH 6 0
BBX 5 5 1 0
BITMAP
70
D8
D8
D8
70
ENDCHAR
STARTCHAR 03C0
ENCODING 960
SWIDTH 888 0
DWIDTH 8 0
BBX 6 5 1 0
BITMAP
FC
6C
6C
6C
6C
ENDCHAR
STARTCHAR 03C1
ENCODING 961
SWIDTH 666 0
DWIDTH 6 0
BBX 5 7 1 -2
BITMAP
70
D8
D8
D8
F0
C0
C0
ENDCHAR
STARTCHAR 03C2
ENCODING 962
SWIDTH 666 0
DWIDTH 6 0
BBX 4 7 1 -2
BITMAP
70
D0
C0
E0
70
30
30
ENDCHAR
STARTCHAR 03C3
ENCODING 963
SWIDTH 777 0
DWIDTH 7 0
BBX 6 5 1 0
BITMAP
7C
D8
D8
D8
70
ENDCHAR
STARTCHAR 03C4
ENCODING 964
SWIDTH 666 0
DWIDTH 6 0
BBX 4 5 1 0
BITMAP
F0
60
60
60
70
ENDCHAR
STARTCHAR 03C5
ENCODING 965
SWIDTH 666 0
DWIDTH 6 0
BBX 5 5 1 0
BITMAP
D8
D8
D8
F8
70
ENDCHAR
STARTCHAR 03C6
ENCODING 966
SWIDTH 888 0
DWIDTH 8 0
BBX 7 8 1 -2
BITMAP
30
7C
F6
F6
F6
7C
30
30
ENDCHAR
STARTCHAR 03C7
ENCODING 967
SWIDTH 777 0
DWIDTH 7 0
BBX 5 7 1 -2
BITMAP
D8
D0
70
20
70
58
D8
ENDCHAR
STARTCHAR 03C8
ENCODING 968
SWIDTH 888 0
DWIDTH 8 0
BBX 7 8 1 -2
BITMAP
30
F6
F6
F6
FE
7C
30
30
ENDCHAR
STARTCHAR 03C9
ENCODING 969
SWIDTH 888 0
DWIDTH 8 0
BBX 7 5 1 0
BITMAP
CC
F6
F6
F6
7C
ENDCHAR
STARTCHAR 03CA
ENCODING 970
SWIDTH 444 0
DWIDTH 4 0
BBX 4 7 0 0
BITMAP
A0
00
60
60
60
60
70
ENDCHAR
STARTCHAR 03CB
ENCODING 971
SWIDTH 666 0
DWIDTH 6 0
BBX 5 7 1 0
BITMAP
A0
00
D8
D8
D8
F8
70
ENDCHAR
STARTCHAR 03CC
ENCODING 972
SWIDTH 666 0
DWIDTH 6 0
BBX 5 7 1 0
BITMAP
20
00
70
D8
D8
D8
70
ENDCHAR
STARTCHAR 03CD
ENCODING 973
SWIDTH 666 0
DWIDTH 6 0
BBX 5 7 1 0
BITMAP
20
00
D8
D8
D8
F8
70
ENDCHAR
STARTCHAR 03CE
ENCODING 974
SWIDTH 888 0
DWIDTH 8 0
BBX 7 7 1 0
BITMAP
10
00
CC
F6
F6
F6
7C
ENDCHAR
STARTCHAR 0400
ENCODING 1024
SWIDTH 555 0
DWIDTH 5 0
BBX 4 8 1 0
BITMAP
40
00
F0
C0
F0
C0
C0
F0
ENDCHAR
STARTCHAR 0401
ENCODING 1025
SWIDTH 555 0
DWIDTH 5 0
BBX 4 8 1 0
BITMAP
A0
00
F0
C0
F0
C0
C0
F0
ENDCHAR
STARTCHAR 0402
ENCODING 1026
SWIDTH 1000 0
DWIDTH 9 0
BBX 7 6 1 0
BITMAP
F8
60
7C
66
66
6C
ENDCHAR
STARTCHAR 0403
ENCODING 1027
SWIDTH 666 0
DWIDTH 6 0
BBX 4 8 1 0
BITMAP
20
00
F0
C0
C0
C0
C0
C0
ENDCHAR
STARTCHAR 0404
ENCODING 1028
SWIDTH 777 0
DWIDTH 7 0
BBX 5 6 1 0
BITMAP
78
D8
F0
C8
D8
70
ENDCHAR
STARTCHAR 0405
ENCODING 1029
SWIDTH 777 0
DWIDTH 7 0
BBX 5 6 1 0
BITMAP
70
D8
F0
78
D8
70
ENDCHAR
STARTCHAR 0406
ENCODING 1030
SWIDTH 444 0
DWIDTH 4 0
BBX 2 6 1 0
BITMAP
C0
C0
C0
C0
C0
C0
ENDCHAR
STARTCHAR 0407
ENCODING 1031
SWIDTH 444 0
DWIDTH 4 0
BBX 3 8 0 0
BITMAP
A0
00
60
60
60
60
60
60
ENDCHAR
STARTCHAR 0408
ENCODING 1032
SWIDTH 555 0
DWIDTH 5 0
BBX 5 6 0 0
BITMAP
18
18
18
18
F8
70
ENDCHAR
STARTCHAR 0409
ENCODING 1033
SWIDTH 1111 0
DWIDTH 10 0
BBX 9 6 1 0
BITMAP
7C00
6C00
6F00
6D80
6D80
CF00
ENDCHAR
STARTCHAR 040A
ENCODING 1034
SWIDTH 1111 0
DWIDTH 10 0
BBX 8 6 1 0
BITMAP
D8
D8
FF
DB
DB
DF
ENDCHAR
STARTCHAR 040B
ENCODING 1035
SWIDTH 888 0
DWIDTH 8 0
BBX 7 6 1 0
BITMAP
F8
60
7C
66
66
66
ENDCHAR
STARTCHAR 040C
ENCODING 1036
SWIDTH 777 0
DWIDTH 7 0
BBX 5 8 1 0
BITMAP
30
00
D8
F0
F0
F0
D8
D8
ENDCHAR
STARTCHAR 040D
ENCODING 1037
SWIDTH 777 0
DWIDTH 7 0
BBX 6 8 1 0
BITMAP
60
00
CC
DC
FC
EC
EC
CC
ENDCHAR
STARTCHAR 040E
ENCODING 1038
SWIDTH 666 0
DWIDTH 6 0
BBX 6 9 0 0
BITMAP
40
30
00
CC
78
78
30
70
60
ENDCHAR
STARTCHAR 040F
ENCODING 1039
SWIDTH 777 0
DWIDTH 7 0
BBX 5 7 1 -1
BITMAP
C8
C8
C8
C8
F8
F8
30
ENDCHAR
STARTCHAR 0410
ENCODING 1040
SWIDTH 666 0
DWIDTH 6 0
BBX 6 6 0 0
BITMAP
30
78
78
78
7C
CC
ENDCHAR
STARTCHAR 0411
ENCODING 1041
SWIDTH 777 0
DWIDTH 7 0
BBX 5 6 1 0
BITMAP
F0
C0
F0
D8
D8
F0
ENDCHAR
STARTCHAR 0412
ENCODING 1042
SWIDTH 777 0
DWIDTH 7 0
BBX 5 6 1 0
BITMAP
F8
D8
F0
D8
D8
F0
ENDCHAR
STARTCHAR 0413
ENCODING 1043
SWIDTH 666 0
DWIDTH 6 0
BBX 4 6 1 0
BITMAP
F0
C0
C0
C0
C0
C0
ENDCHAR
STARTCHAR 0414
ENCODING 1044
SWIDTH 888 0
DWIDTH 8 0
BBX 7 8 1 -2
BITMAP
7C
6C
6C
6C
4C
FE
C6
C6
ENDCHAR
STARTCHAR 0415
ENCODING 1045
SWIDTH 555 0
DWIDTH 5 0
BBX 4 6 1 0
BITMAP
F0
C0
F0
C0
C0
F0
ENDCHAR
STARTCHAR 0416
ENCODING 1046
SWIDTH 1000 0
DWIDTH 9 0
BBX 8 6 1 0
BITMAP
DB
DE
7E
7E
DB
DB
ENDCHAR
STARTCHAR 0417
ENCODING 1047
SWIDTH 777 0
DWIDTH 7 0
BBX 5 6 1 0
BITMAP
70
D8
70
18
D8
70
ENDCHAR
STARTCHAR 0418
ENCODING 1048
SWIDTH 777 0
DWIDTH 7 0
BBX 6 6 1 0
BITMAP
CC
DC
FC
EC
EC
CC
ENDCHAR
STARTCHAR 0419
ENCODING 1049
SWIDTH 777 0
DWIDTH 7 0
BBX 6 9 1 0
BITMAP
48
30
00
CC
DC
FC
EC
EC
CC
ENDCHAR
STARTCHAR 041A
ENCODING 1050
SWIDTH 777 0
DWIDTH 7 0
BBX 5 6 1 0
BITMAP
D8
F0
F0
F0
D8
D8
ENDCHAR
STARTCHAR 041B
ENCODING 1051
SWIDTH 777 0
DWIDTH 7 0
BBX 6 6 1 0
BITMAP
7C
6C
6C
6C
6C
CC
ENDCHAR
STARTCHAR 041C
ENCODING 1052
SWIDTH 1000 0
DWIDTH 9 0
BBX 7 6 1 0
BITMAP
C6
EE
EE
FE
D6
C6
ENDCHAR
STARTCHAR 041D
ENCODING 1053
SWIDTH 888 0
DWIDTH 8 0
BBX 6 6 1 0
BITMAP
CC
CC
FC
CC
CC
CC
ENDCHAR
STARTCHAR 041E
ENCODING 1054
SWIDTH 777 0
DWIDTH 7 0
BBX 6 6 1 0
BITMAP
78
DC
CC
CC
CC
78
ENDCHAR
STARTCHAR 041F
ENCODING 1055
SWIDTH 777 0
DWIDTH 7 0
BBX 5 6 1 0
BITMAP
F8
D8
D8
D8
D8
D8
ENDCHAR
STARTCHAR 0420
ENCODING 1056
SWIDTH 777 0
DWIDTH 7 0
BBX 5 6 1 0
BITMAP
F0
D8
D8
F8
C0
C0
ENDCHAR
STARTCHAR 0421
ENCODING 1057
SWIDTH 777 0
DWIDTH 7 0
BBX 5 6 1 0
BITMAP
78
D8
C0
C0
D8
78
ENDCHAR
STARTCHAR 0422
ENCODING 1058
SWIDTH 777 0
DWIDTH 7 0
BBX 5 6 1 0
BITMAP
F8
60
60
60
60
60
ENDCHAR
STARTCHAR 0423
ENCODING 1059
SWIDTH 666 0
DWIDTH 6 0
BBX 6 6 0 0
BITMAP
CC
68
78
30
70
60
ENDCHAR
STARTCHAR 0424
ENCODING 1060
SWIDTH 1000 0
DWIDTH 9 0
BBX 8 6 1 0
BITMAP
7E
DF
DB
DB
7E
18
ENDCHAR
STARTCHAR 0425
ENCODING 1061
SWIDTH 666 0
DWIDTH 6 0
BBX 6 6 0 0
BITMAP
CC
78
70
70
78
CC
ENDCHAR
STARTCHAR 0426
ENCODING 1062
SWIDTH 888 0
DWIDTH 8 0
BBX 6 8 1 -2
BITMAP
D8
D8
D8
D8
FC
FC
0C
0C
ENDCHAR
STARTCHAR 0427
ENCODING 1063
SWIDTH 777 0
DWIDTH 7 0
BBX 5 6 1 0
BITMAP
D8
D8
F8
78
18
18
ENDCHAR
STARTCHAR 0428
ENCODING 1064
SWIDTH 1000 0
DWIDTH 9 0
BBX 8 6 1 0
BITMAP
DB
DB
DB
DB
FF
FF
ENDCHAR
STARTCHAR 0429
ENCODING 1065
SWIDTH 1111 0
DWIDTH 10 0
BBX 9 7 1 -1
BITMAP
DB00
DB00
DB00
DB00
FF80
FF80
0180
ENDCHAR
STARTCHAR 042A
ENCODING 1066
SWIDTH 888 0
DWIDTH 8 0
BBX 6 6 1 0
BITMAP
E0
60
78
6C
6C
78
ENDCHAR
STARTCHAR 042B
ENCODING 1067
SWIDTH 1000 0
DWIDTH 9 0
BBX 7 6 1 0
BITMAP
C6
C6
F6
DE
DE
F6
ENDCHAR
STARTCHAR 042C
ENCODING 1068
SWIDTH 777 0
DWIDTH 7 0
BBX 5 6 1 0
BITMAP
C0
C0
F0
D8
D8
F0
ENDCHAR
STARTCHAR 042D
ENCODING 1069
SWIDTH 777 0
DWIDTH 7 0
BBX 6 6 0 0
BITMAP
78
CC
3C
CC
DC
78
ENDCHAR
STARTCHAR 042E
ENCODING 1070
SWIDTH 1000 0
DWIDTH 9 0
BBX 8 6 1 0
BITMAP
DE
F3
F3
F3
F3
DE
ENDCHAR
STARTCHAR 042F
ENCODING 1071
SWIDTH 777 0
DWIDTH 7 0
BBX 5 6 1 0
BITMAP
78
D8
D8
F8
78
D8
ENDCHAR
STARTCHAR 0430
ENCODING 1072
SWIDTH 666 0
DWIDTH 6 0
BBX 5 5 1 0
BITMAP
70
D0
F8
D8
F8
ENDCHAR
STARTCHAR 0431
ENCODING 1073
SWIDTH 777 0
DWIDTH 7 0
BBX 5 7 1 0
BITMAP
18
70
F0
D8
D8
D8
70
ENDCHAR
STARTCHAR 0432
ENCODING 1074
SWIDTH 666 0
DWIDTH 6 0
BBX 4 5 1 0
BITMAP
F0
D0
F0
D0
F0
ENDCHAR
STARTCHAR 0433
ENCODING 1075
SWIDTH 555 0
DWIDTH 5 0
BBX 3 5 1 0
BITMAP
E0
C0
C0
C0
C0
ENDCHAR
STARTCHAR 0434
ENCODING 1076
SWIDTH 777 0
DWIDTH 7 0
BBX 6 7 1 -2
BITMAP
78
78
78
78
FC
CC
CC
ENDCHAR
STARTCHAR 0435
ENCODING 1077
SWIDTH 666 0
DWIDTH 6 0
BBX 5 5 1 0
BITMAP
70
D0
F8
D0
70
ENDCHAR
STARTCHAR 0436
ENCODING 1078
SWIDTH 888 0
DWIDTH 8 0
BBX 8 5 0 0
BITMAP
DA
7E
7C
7E
DB
ENDCHAR
STARTCHAR 0437
ENCODING 1079
SWIDTH 555 0
DWIDTH 5 0
BBX 5 5 0 0
BITMAP
70
D0
30
D8
70
ENDCHAR
STARTCHAR 0438
ENCODING 1080
SWIDTH 666 0
DWIDTH 6 0
BBX 5 5 1 0
BITMAP
D8
F8
F8
F8
D8
ENDCHAR
STARTCHAR 0439
ENCODING 1081
SWIDTH 666 0
DWIDTH 6 0
BBX 5 7 1 0
BITMAP
50
70
D8
F8
F8
F8
D8
ENDCHAR
STARTCHAR 043A
ENCODING 1082
SWIDTH 666 0
DWIDTH 6 0
BBX 5 5 1 0
BITMAP
D8
F0
F0
F0
D8
ENDCHAR
STARTCHAR 043B
ENCODING 1083
SWIDTH 777 0
DWIDTH 7 0
BBX 5 5 1 0
BITMAP
78
78
78
78
D8
ENDCHAR
STARTCHAR 043C
ENCODING 1084
SWIDTH 888 0
DWIDTH 8 0
BBX 6 5 1 0
BITMAP
CC
FC
FC
FC
CC
ENDCHAR
STARTCHAR 043D
ENCODING 1085
SWIDTH 666 0
DWIDTH 6 0
BBX 5 5 1 0
BITMAP
D8
D8
F8
D8
D8
ENDCHAR
STARTCHAR 043E
ENCODING 1086
SWIDTH 666 0
DWIDTH 6 0
BBX 5 5 1 0
BITMAP
70
D8
D8
D8
70
ENDCHAR
STARTCHAR 043F
ENCODING 1087
SWIDTH 666 0
DWIDTH 6 0
BBX 5 5 1 0
BITMAP
F8
D8
D8
D8
D8
ENDCHAR
STARTCHAR 0440
ENCODING 1088
SWIDTH 666 0
DWIDTH 6 0
BBX 5 7 1 -2
BITMAP
F0
F8
D8
F8
F0
C0
C0
ENDCHAR
STARTCHAR 0441
ENCODING 1089
SWIDTH 666 0
DWIDTH 6 0
BBX 4 5 1 0
BITMAP
70
D0
C0
D0
70
ENDCHAR
STARTCHAR 0442
ENCODING 1090
SWIDTH 666 0
DWIDTH 6 0
BBX 4 5 1 0
BITMAP
F0
60
60
60
60
ENDCHAR
STARTCHAR 0443
ENCODING 1091
SWIDTH 555 0
DWIDTH 5 0
BBX 5 7 0 -2
BITMAP
D8
D0
D0
70
70
60
E0
ENDCHAR
STARTCHAR 0444
ENCODING 1092
SWIDTH 888 0
DWIDTH 8 0
BBX 6 8 1 -2
BITMAP
30
78
FC
FC
FC
78
30
30
ENDCHAR
STARTCHAR 0445
ENCODING 1093
SWIDTH 666 0
DWIDTH 6 0
BBX 5 5 0 0
BITMAP
D8
70
30
70
D8
ENDCHAR
STARTCHAR 0446
ENCODING 1094
SWIDTH 777 0
DWIDTH 7 0
BBX 5 6 1 -1
BITMAP
D8
D8
D8
D8
F8
18
ENDCHAR
STARTCHAR 0447
ENCODING 1095
SWIDTH 666 0
DWIDTH 6 0
BBX 5 5 1 0
BITMAP
D8
D8
F8
18
18
ENDCHAR
STARTCHAR 0448
ENCODING 1096
SWIDTH 888 0
DWIDTH 8 0
BBX 6 5 1 0
BITMAP
FC
FC
FC
FC
FC
ENDCHAR
STARTCHAR 0449
ENCODING 1097
SWIDTH 1000 0
DWIDTH 9 0
BBX 8 6 1 -1
BITMAP
F6
F6
F6
F6
FF
03
ENDCHAR
STARTCHAR 044A
ENCODING 1098
SWIDTH 777 0
DWIDTH 7 0
BBX 5 5 1 0
BITMAP
E0
60
78
68
78
ENDCHAR
STARTCHAR 044B
ENCODING 1099
SWIDTH 888 0
DWIDTH 8 0
BBX 7 5 1 0
BITMAP
C6
C6
F6
DE
F6
ENDCHAR
STARTCHAR 044C
ENCODING 1100
SWIDTH 666 0
DWIDTH 6 0
BBX 4 5 1 0
BITMAP
C0
C0
F0
D0
F0
ENDCHAR
STARTCHAR 044D
ENCODING 1101
SWIDTH 555 0
DWIDTH 5 0
BBX 5 5 0 0
BITMAP
70
58
38
D8
70
ENDCHAR
STARTCHAR 044E
ENCODING 1102
SWIDTH 888 0
DWIDTH 8 0
BBX 7 5 1 0
BITMAP
DC
F6
F6
F6
DC
ENDCHAR
STARTCHAR 044F
ENCODING 1103
SWIDTH 555 0
DWIDTH 5 0
BBX 4 5 1 0
BITMAP
F0
B0
F0
F0
B0
ENDCHAR
STARTCHAR 0450
ENCODING 1104
SWIDTH 666 0
DWIDTH 6 0
BBX 5 7 1 0
BITMAP
60
00
70
D0
F8
D0
70
ENDCHAR
STARTCHAR 0451
ENCODING 1105
SWIDTH 666 0
DWIDTH 6 0
BBX 5 7 1 0
BITMAP
50
00
70
D0
F8
D0
70
ENDCHAR
STARTCHAR 0452
ENCODING 1106
SWIDTH 666 0
DWIDTH 6 0
BBX 5 9 1 -2
BITMAP
C0
E0
F0
F8
D8
D8
D8
18
30
ENDCHAR
STARTCHAR 0453
ENCODING 1107
SWIDTH 555 0
DWIDTH 5 0
BBX 3 7 1 0
BITMAP
60
00
E0
C0
C0
C0
C0
ENDCHAR
STARTCHAR 0454
ENCODING 1108
SWIDTH 555 0
DWIDTH 5 0
BBX 5 5 0 0
BITMAP
70
D8
E0
D8
70
ENDCHAR
STARTCHAR 0455
ENCODING 1109
SWIDTH 666 0
DWIDTH 6 0
BBX 4 5 1 0
BITMAP
F0
D0
F0
D0
F0
ENDCHAR
STARTCHAR 0456
ENCODING 1110
SWIDTH 333 0
DWIDTH 3 0
BBX 2 7 1 0
BITMAP
C0
00
C0
C0
C0
C0
C0
ENDCHAR
STARTCHAR 0457
ENCODING 1111
SWIDTH 444 0
DWIDTH 4 0
BBX 4 7 0 0
BITMAP
F0
00
60
60
60
60
60
ENDCHAR
STARTCHAR 0458
ENCODING 1112
SWIDTH 333 0
DWIDTH 3 0
BBX 3 9 0 -2
BITMAP
60
00
60
60
60
60
60
60
C0
ENDCHAR
STARTCHAR 0459
ENCODING 1113
SWIDTH 1111 0
DWIDTH 10 0
BBX 8 5 1 0
BITMAP
78
7F
7B
7B
DE
ENDCHAR
STARTCHAR 045A
ENCODING 1114
SWIDTH 1000 0
DWIDTH 9 0
BBX 7 5 1 0
BITMAP
D8
D8
FE
DA
DE
ENDCHAR
STARTCHAR 045B
ENCODING 1115
SWIDTH 666 0
DWIDTH 6 0
BBX 5 7 1 0
BITMAP
C0
E0
F0
F8
D8
D8
D8
ENDCHAR
STARTCHAR 045C
ENCODING 1116
SWIDTH 666 0
DWIDTH 6 0
BBX 5 7 1 0
BITMAP
30
00
D8
F0
F0
F0
D8
ENDCHAR
STARTCHAR 045D
ENCODING 1117
SWIDTH 666 0
DWIDTH 6 0
BBX 5 7 1 0
BITMAP
60
00
D8
F8
F8
F8
D8
ENDCHAR
STARTCHAR 045E
ENCODING 1118
SWIDTH 555 0
DWIDTH 5 0
BBX 5 9 0 -2
BITMAP
50
70
D8
D0
D0
70
70
60
E0
ENDCHAR
STARTCHAR 045F
ENCODING 1119
SWIDTH 666 0
DWIDTH 6 0
BBX 5 6 1 -1
BITMAP
D8
D8
D8
D8
F8
60
ENDCHAR
STARTCHAR 0462
ENCODING 1122
SWIDTH 777 0
DWIDTH 7 0
BBX 6 7 0 0
BITMAP
60
F8
60
78
6C
6C
78
ENDCHAR
STARTCHAR 0463
ENCODING 1123
SWIDTH 666 0
DWIDTH 6 0
BBX 5 7 0 0
BITMAP
60
60
F0
60
78
68
78
ENDCHAR
STARTCHAR 0472
ENCODING 1138
SWIDTH 777 0
DWIDTH 7 0
BBX 6 6 1 0
BITMAP
78
DC
FC
CC
CC
78
ENDCHAR
STARTCHAR 0473
ENCODING 1139
SWIDTH 666 0
DWIDTH 6 0
BBX 5 5 1 0
BITMAP
70
D8
F8
D8
70
ENDCHAR
STARTCHAR 0474
ENCODING 1140
SWIDTH 777 0
DWIDTH 7 0
BBX 7 6 0 0
BITMAP
CE
6C
78
78
78
30
ENDCHAR
STARTCHAR 0475
ENCODING 1141
SWIDTH 666 0
DWIDTH 6 0
BBX 6 5 0 0
BITMAP
CC
58
50
70
70
ENDCHAR
STARTCHAR 048A
ENCODING 1162
SWIDTH 888 0
DWIDTH 8 0
BBX 6 11 1 -2
BITMAP
48
30
00
CC
DC
FC
EC
EC
CC
04
0C
ENDCHAR
STARTCHAR 048B
ENCODING 1163
SWIDTH 777 0
DWIDTH 7 0
BBX 5 9 1 -2
BITMAP
50
70
D8
F8
F8
F8
D8
08
18
ENDCHAR
STARTCHAR 048C
ENCODING 1164
SWIDTH 777 0
DWIDTH 7 0
BBX 6 7 0 0
BITMAP
60
F8
60
78
6C
6C
78
ENDCHAR
STARTCHAR 048D
ENCODING 1165
SWIDTH 666 0
DWIDTH 6 0
BBX 5 7 0 0
BITMAP
60
60
F0
60
78
68
78
ENDCHAR
STARTCHAR 048E
ENCODING 1166
SWIDTH 777 0
DWIDTH 7 0
BBX 5 6 1 0
BITMAP
F0
D8
F8
F0
D0
C0
ENDCHAR
STARTCHAR 048F
ENCODING 1167
SWIDTH 666 0
DWIDTH 6 0
BBX 5 7 1 -2
BITMAP
F0
F8
D8
F8
F0
D0
C0
ENDCHAR
STARTCHAR 0490
ENCODING 1168
SWIDTH 666 0
DWIDTH 6 0
BBX 4 7 1 0
BITMAP
30
F0
C0
C0
C0
C0
C0
ENDCHAR
STARTCHAR 0491
ENCODING 1169
SWIDTH 555 0
DWIDTH 5 0
BBX 4 6 1 0
BITMAP
30
F0
C0
C0
C0
C0
ENDCHAR
STARTCHAR 0492
ENCODING 1170
SWIDTH 555 0
DWIDTH 5 0
BBX 5 6 0 0
BITMAP
78
60
F0
60
60
60
ENDCHAR
STARTCHAR 0493
ENCODING 1171
SWIDTH 555 0
DWIDTH 5 0
BBX 4 5 0 0
BITMAP
70
60
E0
60
60
ENDCHAR
STARTCHAR 0494
ENCODING 1172
SWIDTH 777 0
DWIDTH 7 0
BBX 5 6 1 0
BITMAP
F0
C0
F8
D8
D8
F8
ENDCHAR
STARTCHAR 0495
ENCODING 1173
SWIDTH 777 0
DWIDTH 7 0
BBX 5 7 1 -2
BITMAP
E0
C0
C0
F0
D8
18
30
ENDCHAR
STARTCHAR 0496
ENCODING 1174
SWIDTH 1111 0
DWIDTH 10 0
BBX 9 8 1 -2
BITMAP
DB00
DF00
7E00
7E00
DB80
DB80
0180
0180
ENDCHAR
STARTCHAR 0497
ENCODING 1175
SWIDTH 888 0
DWIDTH 8 0
BBX 8 7 0 -2
BITMAP
DA
7E
7C
7E
DB
03
03
ENDCHAR
STARTCHAR 0498
ENCODING 1176
SWIDTH 666 0
DWIDTH 6 0
BBX 4 7 1 -1
BITMAP
F0
B0
60
30
F0
E0
60
ENDCHAR
STARTCHAR 0499
ENCODING 1177
SWIDTH 666 0
DWIDTH 6 0
BBX 5 6 0 -1
BITMAP
78
58
30
D8
70
30
ENDCHAR
STARTCHAR 049A
ENCODING 1178
SWIDTH 777 0
DWIDTH 7 0
BBX 6 8 1 -2
BITMAP
D8
F0
F0
F0
DC
DC
0C
0C
ENDCHAR
STARTCHAR 049B
ENCODING 1179
SWIDTH 666 0
DWIDTH 6 0
BBX 5 7 1 -2
BITMAP
F0
F0
E0
F0
F8
18
18
ENDCHAR
STARTCHAR 049C
ENCODING 1180
SWIDTH 777 0
DWIDTH 7 0
BBX 6 6 1 0
BITMAP
CC
F8
F8
F8
CC
CC
ENDCHAR
STARTCHAR 049D
ENCODING 1181
SWIDTH 777 0
DWIDTH 7 0
BBX 6 5 1 0
BITMAP
C8
F8
F8
F8
CC
ENDCHAR
STARTCHAR 049E
ENCODING 1182
SWIDTH 777 0
DWIDTH 7 0
BBX 6 6 0 0
BITMAP
EC
78
78
78
6C
6C
ENDCHAR
STARTCHAR 049F
ENCODING 1183
SWIDTH 666 0
DWIDTH 6 0
BBX 5 6 1 0
BITMAP
E0
D8
F0
F0
F0
D8
ENDCHAR
STARTCHAR 04A0
ENCODING 1184
SWIDTH 888 0
DWIDTH 8 0
BBX 7 6 0 0
BITMAP
F6
3C
3C
3C
36
36
ENDCHAR
STARTCHAR 04A1
ENCODING 1185
SWIDTH 777 0
DWIDTH 7 0
BBX 7 5 0 0
BITMAP
F6
3C
3C
3C
36
ENDCHAR
STARTCHAR 04A2
ENCODING 1186
SWIDTH 888 0
DWIDTH 8 0
BBX 6 8 1 -2
BITMAP
CC
CC
FC
CC
CC
CC
0C
0C
ENDCHAR
STARTCHAR 04A3
ENCODING 1187
SWIDTH 777 0
DWIDTH 7 0
BBX 6 7 1 -2
BITMAP
D8
D8
F8
D8
DC
0C
0C
ENDCHAR
STARTCHAR 04A4
ENCODING 1188
SWIDTH 1000 0
DWIDTH 9 0
BBX 8 6 1 0
BITMAP
CF
CC
FC
CC
CC
CC
ENDCHAR
STARTCHAR 04A5
ENCODING 1189
SWIDTH 888 0
DWIDTH 8 0
BBX 6 5 1 0
BITMAP
DC
D8
F8
D8
D8
ENDCHAR
STARTCHAR 04A6
ENCODING 1190
SWIDTH 1111 0
DWIDTH 10 0
BBX 8 6 1 0
BITMAP
F8
D8
DF
D9
D9
DB
ENDCHAR
STARTCHAR 04A7
ENCODING 1191
SWIDTH 1111 0
DWIDTH 10 0
BBX 8 7 1 -2
BITMAP
F8
D8
D8
DE
DB
03
06
ENDCHAR
STARTCHAR 04A8
ENCODING 1192
SWIDTH 1000 0
DWIDTH 9 0
BBX 8 6 1 0
BITMAP
60
EC
DE
DE
FE
7F
ENDCHAR
STARTCHAR 04A9
ENCODING 1193
SWIDTH 1000 0
DWIDTH 9 0
BBX 7 5 1 0
BITMAP
40
DC
F6
F6
7E
ENDCHAR
STARTCHAR 04AA
ENCODING 1194
SWIDTH 777 0
DWIDTH 7 0
BBX 6 8 1 -2
BITMAP
78
D8
C0
CC
F8
70
30
30
ENDCHAR
STARTCHAR 04AB
ENCODING 1195
SWIDTH 666 0
DWIDTH 6 0
BBX 4 7 1 -2
BITMAP
70
D0
C0
D0
70
20
20
ENDCHAR
STARTCHAR 04AC
ENCODING 1196
SWIDTH 777 0
DWIDTH 7 0
BBX 5 8 1 -2
BITMAP
F8
60
60
60
60
70
30
30
ENDCHAR
STARTCHAR 04AD
ENCODING 1197
SWIDTH 666 0
DWIDTH 6 0
BBX 4 7 1 -2
BITMAP
F0
60
60
60
70
30
30
ENDCHAR
STARTCHAR 04AE
ENCODING 1198
SWIDTH 666 0
DWIDTH 6 0
BBX 6 6 0 0
BITMAP
CC
78
78
30
30
30
ENDCHAR
STARTCHAR 04AF
ENCODING 1199
SWIDTH 666 0
DWIDTH 6 0
BBX 4 7 1 -2
BITMAP
90
F0
F0
60
60
60
60
ENDCHAR
STARTCHAR 04B0
ENCODING 1200
SWIDTH 666 0
DWIDTH 6 0
BBX 6 6 0 0
BITMAP
CC
78
70
78
30
30
ENDCHAR
STARTCHAR 04B1
ENCODING 1201
SWIDTH 666 0
DWIDTH 6 0
BBX 4 7 1 -2
BITMAP
90
F0
F0
60
60
F0
60
ENDCHAR
STARTCHAR 04B2
ENCODING 1202
SWIDTH 666 0
DWIDTH 6 0
BBX 6 8 0 -2
BITMAP
D8
D8
70
70
DC
DC
0C
0C
ENDCHAR
STARTCHAR 04B3
ENCODING 1203
SWIDTH 666 0
DWIDTH 6 0
BBX 5 7 1 -2
BITMAP
F0
F0
60
F0
B8
18
18
ENDCHAR
STARTCHAR 04B4
ENCODING 1204
SWIDTH 1000 0
DWIDTH 9 0
BBX 8 8 0 -2
BITMAP
FE
36
36
36
3F
3F
03
03
ENDCHAR
STARTCHAR 04B5
ENCODING 1205
SWIDTH 777 0
DWIDTH 7 0
BBX 7 6 0 -1
BITMAP
FC
6C
6C
6C
7E
06
ENDCHAR
STARTCHAR 04B6
ENCODING 1206
SWIDTH 888 0
DWIDTH 8 0
BBX 6 8 1 -2
BITMAP
D8
D8
F8
78
18
1C
0C
0C
ENDCHAR
STARTCHAR 04B7
ENCODING 1207
SWIDTH 777 0
DWIDTH 7 0
BBX 5 7 1 -2
BITMAP
D8
D8
F8
18
18
18
18
ENDCHAR
STARTCHAR 04B8
ENCODING 1208
SWIDTH 777 0
DWIDTH 7 0
BBX 6 6 1 0
BITMAP
CC
CC
EC
FC
2C
0C
ENDCHAR
STARTCHAR 04B9
ENCODING 1209
SWIDTH 777 0
DWIDTH 7 0
BBX 5 5 1 0
BITMAP
D8
F8
F8
38
18
ENDCHAR
STARTCHAR 04BA
ENCODING 1210
SWIDTH 777 0
DWIDTH 7 0
BBX 5 6 1 0
BITMAP
C0
C0
F0
D8
D8
D8
ENDCHAR
STARTCHAR 04BB
ENCODING 1211
SWIDTH 666 0
DWIDTH 6 0
BBX 5 7 1 0
BITMAP
C0
C0
F0
F8
D8
D8
D8
ENDCHAR
STARTCHAR 04BC
ENCODING 1212
SWIDTH 888 0
DWIDTH 8 0
BBX 8 6 0 0
BITMAP
1E
F2
7F
30
3E
1E
ENDCHAR
STARTCHAR 04BD
ENCODING 1213
SWIDTH 777 0
DWIDTH 7 0
BBX 6 5 1 0
BITMAP
38
E8
FC
68
38
ENDCHAR
STARTCHAR 04BE
ENCODING 1214
SWIDTH 888 0
DWIDTH 8 0
BBX 8 7 0 -1
BITMAP
1E
F2
7F
30
3E
1E
0C
ENDCHAR
STARTCHAR 04BF
ENCODING 1215
SWIDTH 777 0
DWIDTH 7 0
BBX 6 6 1 -1
BITMAP
38
F8
FC
48
38
30
ENDCHAR
STARTCHAR 04C0
ENCODING 1216
SWIDTH 444 0
DWIDTH 4 0
BBX 2 6 1 0
BITMAP
C0
C0
C0
C0
C0
C0
ENDCHAR
STARTCHAR 04C1
ENCODING 1217
SWIDTH 1000 0
DWIDTH 9 0
BBX 8 8 1 0
BITMAP
18
00
DB
DE
7E
7E
DB
DB
ENDCHAR
STARTCHAR 04C2
ENCODING 1218
SWIDTH 888 0
DWIDTH 8 0
BBX 8 7 0 0
BITMAP
28
18
DA
7E
7C
7E
DB
ENDCHAR
STARTCHAR 04C3
ENCODING 1219
SWIDTH 777 0
DWIDTH 7 0
BBX 6 8 1 -2
BITMAP
CC
D8
F8
F8
DC
CC
3C
38
ENDCHAR
STARTCHAR 04C4
ENCODING 1220
SWIDTH 666 0
DWIDTH 6 0
BBX 5 7 1 -2
BITMAP
D8
F0
F0
D8
D8
18
30
ENDCHAR
STARTCHAR 04C5
ENCODING 1221
SWIDTH 888 0
DWIDTH 8 0
BBX 6 8 1 -2
BITMAP
7C
6C
6C
6C
6C
CC
04
0C
ENDCHAR
STARTCHAR 04C6
ENCODING 1222
SWIDTH 888 0
DWIDTH 8 0
BBX 6 7 1 -2
BITMAP
78
78
78
78
DC
0C
08
ENDCHAR
STARTCHAR 04C7
ENCODING 1223
SWIDTH 777 0
DWIDTH 7 0
BBX 6 8 1 -2
BITMAP
CC
CC
CC
FC
CC
CC
0C
18
ENDCHAR
STARTCHAR 04C8
ENCODING 1224
SWIDTH 666 0
DWIDTH 6 0
BBX 5 7 1 -2
BITMAP
D8
D8
F8
D8
D8
18
30
ENDCHAR
STARTCHAR 04C9
ENCODING 1225
SWIDTH 888 0
DWIDTH 8 0
BBX 6 8 1 -2
BITMAP
CC
CC
FC
CC
CC
CC
04
0C
ENDCHAR
STARTCHAR 04CA
ENCODING 1226
SWIDTH 777 0
DWIDTH 7 0
BBX 5 7 1 -2
BITMAP
D8
D8
F8
D8
D8
08
18
ENDCHAR
STARTCHAR 04CB
ENCODING 1227
SWIDTH 777 0
DWIDTH 7 0
BBX 5 8 1 -2
BITMAP
D8
D8
F8
78
18
18
18
18
ENDCHAR
STARTCHAR 04CC
ENCODING 1228
SWIDTH 666 0
DWIDTH 6 0
BBX 5 7 1 -2
BITMAP
D8
D8
F8
18
38
30
30
ENDCHAR
STARTCHAR 04CD
ENCODING 1229
SWIDTH 1000 0
DWIDTH 9 0
BBX 7 8 1 -2
BITMAP
CE
EE
EE
FE
D6
C6
06
06
ENDCHAR
STARTCHAR 04CE
ENCODING 1230
SWIDTH 888 0
DWIDTH 8 0
BBX 6 7 1 -2
BITMAP
CC
FC
FC
FC
CC
04
0C
ENDCHAR
STARTCHAR 04CF
ENCODING 1231
SWIDTH 333 0
DWIDTH 3 0
BBX 2 7 1 0
BITMAP
C0
C0
C0
C0
C0
C0
C0
ENDCHAR
STARTCHAR 04D0
ENCODING 1232
SWIDTH 777 0
DWIDTH 7 0
BBX 5 9 1 0
BITMAP
50
70
00
70
50
50
D8
F8
D8
ENDCHAR
STARTCHAR 04D1
ENCODING 1233
SWIDTH 666 0
DWIDTH 6 0
BBX 5 8 1 0
BITMAP
50
50
70
70
D0
F8
D8
F8
ENDCHAR
STARTCHAR 04D2
ENCODING 1234
SWIDTH 666 0
DWIDTH 6 0
BBX 6 8 0 0
BITMAP
38
00
30
78
78
78
7C
CC
ENDCHAR
STARTCHAR 04D3
ENCODING 1235
SWIDTH 666 0
DWIDTH 6 0
BBX 5 7 1 0
BITMAP
50
00
70
D0
F8
D8
F8
ENDCHAR
STARTCHAR 04D4
ENCODING 1236
SWIDTH 1000 0
DWIDTH 9 0
BBX 8 6 0 0
BITMAP
3F
3C
6F
6C
7C
CF
ENDCHAR
STARTCHAR 04D5
ENCODING 1237
SWIDTH 1000 0
DWIDTH 9 0
BBX 8 5 1 0
BITMAP
7E
DA
FF
DA
EE
ENDCHAR
STARTCHAR 04D6
ENCODING 1238
SWIDTH 666 0
DWIDTH 6 0
BBX 4 9 1 0
BITMAP
80
60
00
F0
C0
F0
C0
C0
F0
ENDCHAR
STARTCHAR 04D7
ENCODING 1239
SWIDTH 666 0
DWIDTH 6 0
BBX 5 8 1 0
BITMAP
50
50
60
70
D0
F8
D0
70
ENDCHAR
STARTCHAR 04D8
ENCODING 1240
SWIDTH 777 0
DWIDTH 7 0
BBX 6 6 1 0
BITMAP
70
D8
FC
C8
D8
78
ENDCHAR
STARTCHAR 04D9
ENCODING 1241
SWIDTH 666 0
DWIDTH 6 0
BBX 5 5 1 0
BITMAP
70
D0
F8
D0
70
ENDCHAR
STARTCHAR 04DA
ENCODING 1242
SWIDTH 777 0
DWIDTH 7 0
BBX 6 8 1 0
BITMAP
38
00
70
D8
FC
C8
D8
78
ENDCHAR
STARTCHAR 04DB
ENCODING 1243
SWIDTH 666 0
DWIDTH 6 0
BBX 5 7 1 0
BITMAP
50
00
70
D0
F8
D0
70
ENDCHAR
STARTCHAR 04DC
ENCODING 1244
SWIDTH 1000 0
DWIDTH 9 0
BBX 8 8 1 0
BITMAP
28
00
DB
DE
7E
7E
DB
DB
ENDCHAR
STARTCHAR 04DD
ENCODING 1245
SWIDTH 888 0
DWIDTH 8 0
BBX 8 7 0 0
BITMAP
3C
00
DA
7E
7C
7E
DB
ENDCHAR
STARTCHAR 04DE
ENCODING 1246
SWIDTH 777 0
DWIDTH 7 0
BBX 5 8 1 0
BITMAP
70
00
70
D8
70
18
D8
70
ENDCHAR
STARTCHAR 04DF
ENCODING 1247
SWIDTH 555 0
DWIDTH 5 0
BBX 5 7 0 0
BITMAP
50
00
70
D0
30
D8
70
ENDCHAR
STARTCHAR 04E0
ENCODING 1248
SWIDTH 777 0
DWIDTH 7 0
BBX 5 6 1 0
BITMAP
F0
20
70
38
D8
F0
ENDCHAR
STARTCHAR 04E1
ENCODING 1249
SWIDTH 666 0
DWIDTH 6 0
BBX 5 7 1 -2
BITMAP
F0
30
60
70
18
F0
F0
ENDCHAR
STARTCHAR 04E2
ENCODING 1250
SWIDTH 777 0
DWIDTH 7 0
BBX 6 8 1 0
BITMAP
70
00
CC
DC
FC
EC
EC
CC
ENDCHAR
STARTCHAR 04E3
ENCODING 1251
SWIDTH 666 0
DWIDTH 6 0
BBX 5 6 1 0
BITMAP
70
D8
F8
F8
F8
D8
ENDCHAR
STARTCHAR 04E4
ENCODING 1252
SWIDTH 777 0
DWIDTH 7 0
BBX 6 8 1 0
BITMAP
50
00
CC
DC
FC
EC
EC
CC
ENDCHAR
STARTCHAR 04E5
ENCODING 1253
SWIDTH 666 0
DWIDTH 6 0
BBX 5 7 1 0
BITMAP
F0
00
D8
F8
F8
F8
D8
ENDCHAR
STARTCHAR 04E6
ENCODING 1254
SWIDTH 777 0
DWIDTH 7 0
BBX 6 8 1 0
BITMAP
28
00
78
DC
CC
CC
CC
78
ENDCHAR
STARTCHAR 04E7
ENCODING 1255
SWIDTH 666 0
DWIDTH 6 0
BBX 5 7 1 0
BITMAP
50
00
70
D8
D8
D8
70
ENDCHAR
STARTCHAR 04E8
ENCODING 1256
SWIDTH 777 0
DWIDTH 7 0
BBX 6 6 1 0
BITMAP
78
DC
FC
CC
CC
78
ENDCHAR
STARTCHAR 04E9
ENCODING 1257
SWIDTH 666 0
DWIDTH 6 0
BBX 5 5 0 0
BITMAP
70
58
F8
58
70
ENDCHAR
STARTCHAR 04EA
ENCODING 1258
SWIDTH 777 0
DWIDTH 7 0
BBX 6 8 1 0
BITMAP
28
00
78
DC
FC
CC
CC
78
ENDCHAR
STARTCHAR 04EB
ENCODING 1259
SWIDTH 666 0
DWIDTH 6 0
BBX 5 7 0 0
BITMAP
50
00
70
58
F8
58
70
ENDCHAR
STARTCHAR 04EC
ENCODING 1260
SWIDTH 777 0
DWIDTH 7 0
BBX 6 8 0 0
BITMAP
70
00
78
CC
3C
CC
DC
78
ENDCHAR
STARTCHAR 04ED
ENCODING 1261
SWIDTH 555 0
DWIDTH 5 0
BBX 5 7 0 0
BITMAP
50
00
70
58
38
D8
70
ENDCHAR
STARTCHAR 04EE
ENCODING 1262
SWIDTH 666 0
DWIDTH 6 0
BBX 6 8 0 0
BITMAP
38
00
CC
68
78
30
70
60
ENDCHAR
STARTCHAR 04EF
ENCODING 1263
SWIDTH 555 0
DWIDTH 5 0
BBX 5 8 0 -2
BITMAP
70
D8
D0
D0
70
70
60
E0
ENDCHAR
STARTCHAR 04F0
ENCODING 1264
SWIDTH 666 0
DWIDTH 6 0
BBX 6 8 0 0
BITMAP
70
00
CC
68
78
30
70
60
ENDCHAR
STARTCHAR 04F1
ENCODING 1265
SWIDTH 555 0
DWIDTH 5 0
BBX 5 9 0 -2
BITMAP
50
00
D8
D0
D0
70
70
60
E0
ENDCHAR
STARTCHAR 04F2
ENCODING 1266
SWIDTH 666 0
DWIDTH 6 0
BBX 6 8 0 0
BITMAP
28
00
CC
68
78
30
70
60
ENDCHAR
STARTCHAR 04F3
ENCODING 1267
SWIDTH 555 0
DWIDTH 5 0
BBX 5 9 0 -2
BITMAP
78
00
D8
D0
D0
70
70
60
E0
ENDCHAR
STARTCHAR 04F4
ENCODING 1268
SWIDTH 777 0
DWIDTH 7 0
BBX 5 8 1 0
BITMAP
50
00
D8
D8
F8
78
18
18
ENDCHAR
STARTCHAR 04F5
ENCODING 1269
SWIDTH 666 0
DWIDTH 6 0
BBX 5 7 1 0
BITMAP
50
00
D8
D8
F8
18
18
ENDCHAR
STARTCHAR 04F6
ENCODING 1270
SWIDTH 666 0
DWIDTH 6 0
BBX 4 8 1 -2
BITMAP
F0
C0
C0
C0
C0
E0
60
60
ENDCHAR
STARTCHAR 04F7
ENCODING 1271
SWIDTH 555 0
DWIDTH 5 0
BBX 4 7 1 -2
BITMAP
F0
C0
C0
C0
E0
60
60
ENDCHAR
STARTCHAR 04F8
ENCODING 1272
SWIDTH 1000 0
DWIDTH 9 0
BBX 7 8 1 0
BITMAP
28
00
C6
C6
F6
DE
DE
F6
ENDCHAR
STARTCHAR 04F9
ENCODING 1273
SWIDTH 888 0
DWIDTH 8 0
BBX 7 7 1 0
BITMAP
50
00
C6
C6
F6
DE
F6
ENDCHAR
STARTCHAR 04FA
ENCODING 1274
SWIDTH 666 0
DWIDTH 6 0
BBX 5 7 0 -1
BITMAP
78
60
F0
60
60
60
E0
ENDCHAR
STARTCHAR 04FB
ENCODING 1275
SWIDTH 555 0
DWIDTH 5 0
BBX 4 7 0 -2
BITMAP
70
60
E0
60
60
60
C0
ENDCHAR
STARTCHAR 04FC
ENCODING 1276
SWIDTH 666 0
DWIDTH 6 0
BBX 6 8 0 -2
BITMAP
EC
78
38
38
78
CC
1C
18
ENDCHAR
STARTCHAR 04FD
ENCODING 1277
SWIDTH 555 0
DWIDTH 5 0
BBX 4 7 1 -2
BITMAP
F0
E0
60
E0
F0
30
20
ENDCHAR
STARTCHAR 04FE
ENCODING 1278
SWIDTH 777 0
DWIDTH 7 0
BBX 5 6 1 0
BITMAP
D8
70
F8
70
D8
D8
ENDCHAR
STARTCHAR 04FF
ENCODING 1279
SWIDTH 666 0
DWIDTH 6 0
BBX 5 5 0 0
BITMAP
D8
78
78
70
58
ENDCHAR
STARTCHAR 0510
ENCODING 1296
SWIDTH 777 0
DWIDTH 7 0
BBX 5 6 1 0
BITMAP
70
D8
70
C0
D8
70
ENDCHAR
STARTCHAR 0511
ENCODING 1297
SWIDTH 666 0
DWIDTH 6 0
BBX 5 5 1 0
BITMAP
F0
D8
60
D8
70
ENDCHAR
STARTCHAR 0512
ENCODING 1298
SWIDTH 777 0
DWIDTH 7 0
BBX 6 8 1 -2
BITMAP
7C
6C
6C
6C
6C
CC
0C
18
ENDCHAR
STARTCHAR 0513
ENCODING 1299
SWIDTH 777 0
DWIDTH 7 0
BBX 5 7 1 -2
BITMAP
78
78
78
78
D8
18
10
ENDCHAR
STARTCHAR 051C
ENCODING 1308
SWIDTH 1000 0
DWIDTH 9 0
BBX 8 6 0 0
BITMAP
DB
DB
5F
7E
76
66
ENDCHAR
STARTCHAR 051D
ENCODING 1309
SWIDTH 888 0
DWIDTH 8 0
BBX 8 5 0 0
BITMAP
DB
DA
5A
7E
6E
ENDCHAR
STARTCHAR 0524
ENCODING 1316
SWIDTH 888 0
DWIDTH 8 0
BBX 6 8 1 -2
BITMAP
F8
D8
D8
D8
D8
DC
0C
0C
ENDCHAR
STARTCHAR 0525
ENCODING 1317
SWIDTH 777 0
DWIDTH 7 0
BBX 5 7 1 -2
BITMAP
F8
D8
D8
D8
D8
18
18
ENDCHAR
STARTCHAR 0526
ENCODING 1318
SWIDTH 888 0
DWIDTH 8 0
BBX 6 8 1 -2
BITMAP
C0
C0
F0
D8
D8
DC
0C
0C
ENDCHAR
STARTCHAR 0527
ENCODING 1319
SWIDTH 777 0
DWIDTH 7 0
BBX 6 9 1 -2
BITMAP
C0
C0
F0
F8
D8
D8
DC
0C
0C
ENDCHAR
STARTCHAR 052E
ENCODING 1326
SWIDTH 888 0
DWIDTH 8 0
BBX 7 8 1 -2
BITMAP
7C
6C
6C
6C
6C
CE
06
06
ENDCHAR
STARTCHAR 052F
ENCODING 1327
SWIDTH 777 0
DWIDTH 7 0
BBX 6 7 1 -2
BITMAP
78
78
78
78
DC
0C
0C
ENDCHAR
STARTCHAR 0E3F
ENCODING 3647
SWIDTH 666 0
DWIDTH 6 0
BBX 5 6 1 0
BITMAP
F0
D0
F0
B0
D8
F0
ENDCHAR
STARTCHAR 1E00
ENCODING 7680
SWIDTH 666 0
DWIDTH 6 0
BBX 6 9 0 -3
BITMAP
30
70
78
78
78
CC
30
30
30
ENDCHAR
STARTCHAR 1E01
ENCODING 7681
SWIDTH 666 0
DWIDTH 6 0
BBX 5 8 1 -3
BITMAP
70
F0
F8
B8
F8
00
60
60
ENDCHAR
STARTCHAR 1E02
ENCODING 7682
SWIDTH 777 0
DWIDTH 7 0
BBX 5 8 1 0
BITMAP
60
00
F8
D8
F0
D8
D8
F0
ENDCHAR
STARTCHAR 1E03
ENCODING 7683
SWIDTH 666 0
DWIDTH 6 0
BBX 5 9 1 0
BITMAP
C0
00
C0
C0
F0
F8
D8
F8
F0
ENDCHAR
STARTCHAR 1E04
ENCODING 7684
SWIDTH 777 0
DWIDTH 7 0
BBX 5 8 1 -2
BITMAP
F8
D8
F0
D8
D8
F0
00
60
ENDCHAR
STARTCHAR 1E05
ENCODING 7685
SWIDTH 666 0
DWIDTH 6 0
BBX 5 9 1 -2
BITMAP
C0
C0
F0
F8
D8
F8
F0
00
40
ENDCHAR
STARTCHAR 1E06
ENCODING 7686
SWIDTH 777 0
DWIDTH 7 0
BBX 5 8 1 -2
BITMAP
F0
D8
D8
F0
D8
F8
00
70
ENDCHAR
STARTCHAR 1E07
ENCODING 7687
SWIDTH 666 0
DWIDTH 6 0
BBX 5 9 1 -2
BITMAP
C0
C0
F0
F8
D8
F8
F0
00
70
ENDCHAR
STARTCHAR 1E08
ENCODING 7688
SWIDTH 777 0
DWIDTH 7 0
BBX 6 10 1 -2
BITMAP
30
00
78
D8
C0
CC
F8
70
30
30
ENDCHAR
STARTCHAR 1E09
ENCODING 7689
SWIDTH 666 0
DWIDTH 6 0
BBX 4 9 1 -2
BITMAP
30
00
70
D0
C0
D0
70
20
20
ENDCHAR
STARTCHAR 1E0A
ENCODING 7690
SWIDTH 777 0
DWIDTH 7 0
BBX 5 8 1 0
BITMAP
60
00
F0
D8
D8
D8
D8
F0
ENDCHAR
STARTCHAR 1E0B
ENCODING 7691
SWIDTH 666 0
DWIDTH 6 0
BBX 5 9 1 0
BITMAP
18
00
18
18
78
D8
D8
D8
78
ENDCHAR
STARTCHAR 1E0C
ENCODING 7692
SWIDTH 777 0
DWIDTH 7 0
BBX 5 8 1 -2
BITMAP
F0
D8
D8
D8
D8
F0
00
40
ENDCHAR
STARTCHAR 1E0D
ENCODING 7693
SWIDTH 666 0
DWIDTH 6 0
BBX 5 9 1 -2
BITMAP
18
18
78
D8
D8
D8
78
00
20
ENDCHAR
STARTCHAR 1E0E
ENCODING 7694
SWIDTH 777 0
DWIDTH 7 0
BBX 5 8 1 -2
BITMAP
F0
D8
D8
D8
D8
F0
00
60
ENDCHAR
STARTCHAR 1E0F
ENCODING 7695
SWIDTH 666 0
DWIDTH 6 0
BBX 5 9 1 -2
BITMAP
18
18
78
D8
D8
D8
78
00
70
ENDCHAR
STARTCHAR 1E10
ENCODING 7696
SWIDTH 777 0
DWIDTH 7 0
BBX 5 8 1 -2
BITMAP
F0
D8
D8
D8
D8
F0
00
20
ENDCHAR
STARTCHAR 1E11
ENCODING 7697
SWIDTH 666 0
DWIDTH 6 0
BBX 5 10 1 -3
BITMAP
18
18
78
D8
D8
D8
78
00
20
20
ENDCHAR
STARTCHAR 1E12
ENCODING 7698
SWIDTH 777 0
DWIDTH 7 0
BBX 5 8 1 -2
BITMAP
F0
D8
D8
D8
D8
F0
00
60
ENDCHAR
STARTCHAR 1E13
ENCODING 7699
SWIDTH 666 0
DWIDTH 6 0
BBX 5 9 1 -2
BITMAP
18
18
78
D8
D8
D8
78
00
70
ENDCHAR
STARTCHAR 1E14
ENCODING 7700
SWIDTH 555 0
DWIDTH 5 0
BBX 4 9 1 0
BITMAP
60
70
00
F0
C0
F0
C0
C0
F0
ENDCHAR
STARTCHAR 1E15
ENCODING 7701
SWIDTH 666 0
DWIDTH 6 0
BBX 5 8 1 0
BITMAP
60
70
00
70
D0
F8
D0
70
ENDCHAR
STARTCHAR 1E16
ENCODING 7702
SWIDTH 555 0
DWIDTH 5 0
BBX 4 9 1 0
BITMAP
20
70
00
F0
C0
F0
C0
C0
F0
ENDCHAR
STARTCHAR 1E17
ENCODING 7703
SWIDTH 666 0
DWIDTH 6 0
BBX 5 8 1 0
BITMAP
30
70
00
70
D0
F8
D0
70
ENDCHAR
STARTCHAR 1E18
ENCODING 7704
SWIDTH 555 0
DWIDTH 5 0
BBX 4 8 1 -2
BITMAP
F0
C0
C0
F0
C0
F0
00
60
ENDCHAR
STARTCHAR 1E19
ENCODING 7705
SWIDTH 666 0
DWIDTH 6 0
BBX 5 7 1 -2
BITMAP
70
D0
F8
D0
70
00
60
ENDCHAR
STARTCHAR 1E1A
ENCODING 7706
SWIDTH 555 0
DWIDTH 5 0
BBX 4 8 1 -2
BITMAP
F0
C0
F0
C0
C0
F0
00
70
ENDCHAR
STARTCHAR 1E1B
ENCODING 7707
SWIDTH 666 0
DWIDTH 6 0
BBX 5 7 1 -2
BITMAP
70
D0
F8
D0
70
00
70
ENDCHAR
STARTCHAR 1E1C
ENCODING 7708
SWIDTH 555 0
DWIDTH 5 0
BBX 4 10 1 -2
BITMAP
60
00
F0
C0
F0
C0
C0
F0
60
60
ENDCHAR
STARTCHAR 1E1D
ENCODING 7709
SWIDTH 666 0
DWIDTH 6 0
BBX 5 10 1 -2
BITMAP
50
60
00
70
D0
F8
D0
70
20
20
ENDCHAR
STARTCHAR 1E1E
ENCODING 7710
SWIDTH 666 0
DWIDTH 6 0
BBX 4 8 1 0
BITMAP
60
00
F0
C0
C0
F0
C0
C0
ENDCHAR
STARTCHAR 1E1F
ENCODING 7711
SWIDTH 555 0
DWIDTH 5 0
BBX 3 9 1 0
BITMAP
60
00
60
60
E0
60
60
60
60
ENDCHAR
STARTCHAR 1E20
ENCODING 7712
SWIDTH 777 0
DWIDTH 7 0
BBX 5 8 1 0
BITMAP
70
00
70
D8
C0
D8
F8
70
ENDCHAR
STARTCHAR 1E21
ENCODING 7713
SWIDTH 666 0
DWIDTH 6 0
BBX 5 9 1 -2
BITMAP
70
00
78
F8
D8
D8
78
D8
70
ENDCHAR
STARTCHAR 1E22
ENCODING 7714
SWIDTH 777 0
DWIDTH 7 0
BBX 6 8 1 0
BITMAP
30
00
CC
CC
FC
CC
CC
CC
ENDCHAR
STARTCHAR 1E23
ENCODING 7715
SWIDTH 666 0
DWIDTH 6 0
BBX 5 9 1 0
BITMAP
C0
00
C0
C0
F0
F8
D8
D8
D8
ENDCHAR
STARTCHAR 1E24
ENCODING 7716
SWIDTH 777 0
DWIDTH 7 0
BBX 6 8 1 -2
BITMAP
CC
CC
CC
FC
CC
CC
00
20
ENDCHAR
STARTCHAR 1E25
ENCODING 7717
SWIDTH 666 0
DWIDTH 6 0
BBX 5 9 1 -2
BITMAP
C0
C0
F0
F8
D8
D8
D8
00
40
ENDCHAR
STARTCHAR 1E26
ENCODING 7718
SWIDTH 777 0
DWIDTH 7 0
BBX 6 8 1 0
BITMAP
50
00
CC
CC
FC
CC
CC
CC
ENDCHAR
STARTCHAR 1E27
ENCODING 7719
SWIDTH 666 0
DWIDTH 6 0
BBX 6 9 0 0
BITMAP
A0
00
60
60
78
7C
6C
6C
6C
ENDCHAR
STARTCHAR 1E28
ENCODING 7720
SWIDTH 777 0
DWIDTH 7 0
BBX 6 8 1 -2
BITMAP
CC
CC
FC
CC
CC
CC
40
40
ENDCHAR
STARTCHAR 1E29
ENCODING 7721
SWIDTH 666 0
DWIDTH 6 0
BBX 5 9 1 -2
BITMAP
C0
C0
F0
F8
D8
D8
D8
40
40
ENDCHAR
STARTCHAR 1E2A
ENCODING 7722
SWIDTH 777 0
DWIDTH 7 0
BBX 6 9 1 -3
BITMAP
CC
CC
FC
CC
CC
CC
00
78
30
ENDCHAR
STARTCHAR 1E2B
ENCODING 7723
SWIDTH 666 0
DWIDTH 6 0
BBX 5 10 1 -3
BITMAP
C0
C0
F0
F8
D8
D8
D8
00
70
60
ENDCHAR
STARTCHAR 1E2C
ENCODING 7724
SWIDTH 333 0
DWIDTH 3 0
BBX 4 8 0 -2
BITMAP
60
60
60
60
60
60
00
F0
ENDCHAR
STARTCHAR 1E2D
ENCODING 7725
SWIDTH 333 0
DWIDTH 3 0
BBX 4 9 0 -1
BITMAP
60
00
60
60
60
60
60
00
F0
ENDCHAR
STARTCHAR 1E2E
ENCODING 7726
SWIDTH 333 0
DWIDTH 3 0
BBX 3 9 0 0
BITMAP
60
A0
00
60
60
60
60
60
60
ENDCHAR
STARTCHAR 1E2F
ENCODING 7727
SWIDTH 333 0
DWIDTH 3 0
BBX 3 8 0 0
BITMAP
60
A0
00
60
60
60
60
60
ENDCHAR
STARTCHAR 1E30
ENCODING 7728
SWIDTH 777 0
DWIDTH 7 0
BBX 5 8 1 0
BITMAP
30
00
D8
D0
F0
F0
D8
D8
ENDCHAR
STARTCHAR 1E31
ENCODING 7729
SWIDTH 666 0
DWIDTH 6 0
BBX 5 9 1 0
BITMAP
40
00
C0
C0
D8
F0
F0
F0
D8
ENDCHAR
STARTCHAR 1E32
ENCODING 7730
SWIDTH 777 0
DWIDTH 7 0
BBX 5 8 1 -2
BITMAP
D8
D0
F0
F0
D8
D8
00
20
ENDCHAR
STARTCHAR 1E33
ENCODING 7731
SWIDTH 666 0
DWIDTH 6 0
BBX 5 9 1 -2
BITMAP
C0
C0
D8
F0
F0
F0
D8
00
40
ENDCHAR
STARTCHAR 1E34
ENCODING 7732
SWIDTH 777 0
DWIDTH 7 0
BBX 5 8 1 -2
BITMAP
D8
D0
F0
F0
D8
D8
00
70
ENDCHAR
STARTCHAR 1E35
ENCODING 7733
SWIDTH 666 0
DWIDTH 6 0
BBX 5 9 1 -2
BITMAP
C0
C0
D8
F0
F0
F0
D8
00
70
ENDCHAR
STARTCHAR 1E36
ENCODING 7734
SWIDTH 666 0
DWIDTH 6 0
BBX 4 8 1 -2
BITMAP
C0
C0
C0
C0
F0
F0
00
40
ENDCHAR
STARTCHAR 1E37
ENCODING 7735
SWIDTH 333 0
DWIDTH 3 0
BBX 2 9 1 -2
BITMAP
C0
C0
C0
C0
C0
C0
C0
00
80
ENDCHAR
STARTCHAR 1E38
ENCODING 7736
SWIDTH 666 0
DWIDTH 6 0
BBX 5 10 0 -2
BITMAP
E0
00
60
60
60
60
78
78
00
20
ENDCHAR
STARTCHAR 1E39
ENCODING 7737
SWIDTH 333 0
DWIDTH 3 0
BBX 3 11 0 -2
BITMAP
E0
00
60
60
60
60
60
60
60
00
40
ENDCHAR
STARTCHAR 1E3A
ENCODING 7738
SWIDTH 666 0
DWIDTH 6 0
BBX 4 8 1 -2
BITMAP
C0
C0
C0
C0
F0
F0
00
E0
ENDCHAR
STARTCHAR 1E3B
ENCODING 7739
SWIDTH 333 0
DWIDTH 3 0
BBX 3 9 0 -2
BITMAP
60
60
60
60
60
60
60
00
E0
ENDCHAR
STARTCHAR 1E3C
ENCODING 7740
SWIDTH 666 0
DWIDTH 6 0
BBX 4 8 1 -2
BITMAP
C0
C0
C0
C0
F0
F0
00
60
ENDCHAR
STARTCHAR 1E3D
ENCODING 7741
SWIDTH 333 0
DWIDTH 3 0
BBX 2 9 1 -2
BITMAP
C0
C0
C0
C0
C0
C0
C0
00
C0
ENDCHAR
STARTCHAR 1E3E
ENCODING 7742
SWIDTH 888 0
DWIDTH 8 0
BBX 7 8 1 0
BITMAP
18
00
C6
EE
EE
FE
D6
C6
ENDCHAR
STARTCHAR 1E3F
ENCODING 7743
SWIDTH 1000 0
DWIDTH 9 0
BBX 8 7 1 0
BITMAP
08
00
F6
FF
DB
DB
DB
ENDCHAR
STARTCHAR 1E40
ENCODING 7744
SWIDTH 888 0
DWIDTH 8 0
BBX 7 8 1 0
BITMAP
30
00
CE
EE
FE
FE
F6
C6
ENDCHAR
STARTCHAR 1E41
ENCODING 7745
SWIDTH 1000 0
DWIDTH 9 0
BBX 8 7 1 1
BITMAP
18
00
F6
FF
DB
DB
DB
ENDCHAR
STARTCHAR 1E42
ENCODING 7746
SWIDTH 888 0
DWIDTH 8 0
BBX 7 8 1 -2
BITMAP
C6
EE
EE
FE
D6
C6
00
20
ENDCHAR
STARTCHAR 1E43
ENCODING 7747
SWIDTH 1000 0
DWIDTH 9 0
BBX 8 7 1 -2
BITMAP
F6
FF
DB
DB
DB
00
10
ENDCHAR
STARTCHAR 1E44
ENCODING 7748
SWIDTH 777 0
DWIDTH 7 0
BBX 5 8 1 0
BITMAP
30
00
C8
E8
E8
F8
D8
C8
ENDCHAR
STARTCHAR 1E45
ENCODING 7749
SWIDTH 666 0
DWIDTH 6 0
BBX 5 7 1 1
BITMAP
60
00
F0
F8
D8
D8
D8
ENDCHAR
STARTCHAR 1E46
ENCODING 7750
SWIDTH 777 0
DWIDTH 7 0
BBX 5 8 1 -2
BITMAP
D8
D8
F8
F8
D8
D8
00
20
ENDCHAR
STARTCHAR 1E47
ENCODING 7751
SWIDTH 666 0
DWIDTH 6 0
BBX 5 7 1 -2
BITMAP
F0
F8
D8
D8
D8
00
40
ENDCHAR
STARTCHAR 1E48
ENCODING 7752
SWIDTH 777 0
DWIDTH 7 0
BBX 5 8 1 -2
BITMAP
D8
D8
F8
F8
D8
D8
00
70
ENDCHAR
STARTCHAR 1E49
ENCODING 7753
SWIDTH 666 0
DWIDTH 6 0
BBX 5 7 1 -2
BITMAP
F0
F8
D8
D8
D8
00
70
ENDCHAR
STARTCHAR 1E4A
ENCODING 7754
SWIDTH 777 0
DWIDTH 7 0
BBX 5 8 1 -2
BITMAP
D8
D8
F8
F8
D8
D8
00
70
ENDCHAR
STARTCHAR 1E4B
ENCODING 7755
SWIDTH 666 0
DWIDTH 6 0
BBX 5 7 1 -2
BITMAP
F0
F8
D8
D8
D8
00
70
ENDCHAR
STARTCHAR 1E4C
ENCODING 7756
SWIDTH 777 0
DWIDTH 7 0
BBX 6 10 1 0
BITMAP
10
28
50
00
78
DC
CC
CC
CC
78
ENDCHAR
STARTCHAR 1E4D
ENCODING 7757
SWIDTH 666 0
DWIDTH 6 0
BBX 5 10 1 0
BITMAP
10
20
70
70
00
70
D8
D8
D8
70
ENDCHAR
STARTCHAR 1E4E
ENCODING 7758
SWIDTH 777 0
DWIDTH 7 0
BBX 6 10 1 0
BITMAP
28
28
50
00
78
DC
CC
CC
CC
78
ENDCHAR
STARTCHAR 1E4F
ENCODING 7759
SWIDTH 666 0
DWIDTH 6 0
BBX 5 10 1 0
BITMAP
50
50
70
70
00
70
D8
D8
D8
70
ENDCHAR
STARTCHAR 1E50
ENCODING 7760
SWIDTH 777 0
DWIDTH 7 0
BBX 6 9 1 0
BITMAP
20
78
00
78
DC
CC
CC
CC
78
ENDCHAR
STARTCHAR 1E51
ENCODING 7761
SWIDTH 666 0
DWIDTH 6 0
BBX 5 8 1 0
BITMAP
60
70
00
70
D8
D8
D8
70
ENDCHAR
STARTCHAR 1E52
ENCODING 7762
SWIDTH 777 0
DWIDTH 7 0
BBX 6 9 1 0
BITMAP
30
78
00
78
DC
CC
CC
CC
78
ENDCHAR
STARTCHAR 1E53
ENCODING 7763
SWIDTH 666 0
DWIDTH 6 0
BBX 5 8 1 0
BITMAP
30
70
00
70
D8
D8
D8
70
ENDCHAR
STARTCHAR 1E54
ENCODING 7764
SWIDTH 777 0
DWIDTH 7 0
BBX 5 8 1 0
BITMAP
30
00
F0
D8
D8
F8
C0
C0
ENDCHAR
STARTCHAR 1E55
ENCODING 7765
SWIDTH 666 0
DWIDTH 6 0
BBX 5 9 1 -2
BITMAP
30
00
F0
F8
D8
F8
F0
C0
C0
ENDCHAR
STARTCHAR 1E56
ENCODING 7766
SWIDTH 777 0
DWIDTH 7 0
BBX 5 8 1 0
BITMAP
60
00
F0
D8
D8
F8
C0
C0
ENDCHAR
STARTCHAR 1E57
ENCODING 7767
SWIDTH 666 0
DWIDTH 6 0
BBX 5 9 1 -1
BITMAP
60
00
F0
F8
D8
F8
F0
C0
C0
ENDCHAR
STARTCHAR 1E58
ENCODING 7768
SWIDTH 777 0
DWIDTH 7 0
BBX 5 8 1 0
BITMAP
60
00
F0
D8
D8
F8
F0
D8
ENDCHAR
STARTCHAR 1E59
ENCODING 7769
SWIDTH 555 0
DWIDTH 5 0
BBX 4 7 1 1
BITMAP
60
00
F0
C0
C0
C0
C0
ENDCHAR
STARTCHAR 1E5A
ENCODING 7770
SWIDTH 777 0
DWIDTH 7 0
BBX 5 8 1 -2
BITMAP
F0
D8
D8
F8
F0
D8
00
60
ENDCHAR
STARTCHAR 1E5B
ENCODING 7771
SWIDTH 555 0
DWIDTH 5 0
BBX 4 7 1 -2
BITMAP
F0
C0
C0
C0
C0
00
80
ENDCHAR
STARTCHAR 1E5C
ENCODING 7772
SWIDTH 777 0
DWIDTH 7 0
BBX 5 10 1 -2
BITMAP
70
00
F0
D8
D8
F8
F0
D8
00
60
ENDCHAR
STARTCHAR 1E5D
ENCODING 7773
SWIDTH 555 0
DWIDTH 5 0
BBX 4 9 1 -2
BITMAP
E0
00
F0
C0
C0
C0
C0
00
80
ENDCHAR
STARTCHAR 1E5E
ENCODING 7774
SWIDTH 777 0
DWIDTH 7 0
BBX 5 8 1 -2
BITMAP
F0
D8
D8
F8
F0
D8
00
70
ENDCHAR
STARTCHAR 1E5F
ENCODING 7775
SWIDTH 555 0
DWIDTH 5 0
BBX 5 7 0 -2
BITMAP
78
60
60
60
60
00
E0
ENDCHAR
STARTCHAR 1E60
ENCODING 7776
SWIDTH 777 0
DWIDTH 7 0
BBX 5 8 1 0
BITMAP
30
00
78
E8
F0
78
D8
78
ENDCHAR
STARTCHAR 1E61
ENCODING 7777
SWIDTH 666 0
DWIDTH 6 0
BBX 5 7 0 1
BITMAP
30
00
70
78
78
D8
78
ENDCHAR
STARTCHAR 1E62
ENCODING 7778
SWIDTH 777 0
DWIDTH 7 0
BBX 5 8 1 -2
BITMAP
70
D8
F0
78
D8
70
00
30
ENDCHAR
STARTCHAR 1E63
ENCODING 7779
SWIDTH 666 0
DWIDTH 6 0
BBX 4 7 1 -2
BITMAP
F0
D0
F0
D0
F0
00
20
ENDCHAR
STARTCHAR 1E64
ENCODING 7780
SWIDTH 777 0
DWIDTH 7 0
BBX 5 8 1 0
BITMAP
70
00
70
D8
F0
78
D8
70
ENDCHAR
STARTCHAR 1E65
ENCODING 7781
SWIDTH 555 0
DWIDTH 5 0
BBX 5 8 0 0
BITMAP
08
70
00
70
50
70
D0
70
ENDCHAR
STARTCHAR 1E66
ENCODING 7782
SWIDTH 777 0
DWIDTH 7 0
BBX 5 8 1 2
BITMAP
50
20
70
D8
F0
78
D8
70
ENDCHAR
STARTCHAR 1E67
ENCODING 7783
SWIDTH 666 0
DWIDTH 6 0
BBX 5 9 0 0
BITMAP
30
00
70
00
70
78
78
D8
78
ENDCHAR
STARTCHAR 1E68
ENCODING 7784
SWIDTH 777 0
DWIDTH 7 0
BBX 5 10 1 -2
BITMAP
30
00
78
E8
F0
78
D8
78
00
30
ENDCHAR
STARTCHAR 1E69
ENCODING 7785
SWIDTH 666 0
DWIDTH 6 0
BBX 5 9 0 -1
BITMAP
30
00
70
78
78
D8
78
00
20
ENDCHAR
STARTCHAR 1E6A
ENCODING 7786
SWIDTH 777 0
DWIDTH 7 0
BBX 5 8 1 0
BITMAP
60
00
F8
60
60
60
60
60
ENDCHAR
STARTCHAR 1E6B
ENCODING 7787
SWIDTH 666 0
DWIDTH 6 0
BBX 4 8 1 0
BITMAP
60
00
60
F0
60
60
60
70
ENDCHAR
STARTCHAR 1E6C
ENCODING 7788
SWIDTH 777 0
DWIDTH 7 0
BBX 5 8 1 -2
BITMAP
F8
60
60
60
60
60
00
20
ENDCHAR
STARTCHAR 1E6D
ENCODING 7789
SWIDTH 666 0
DWIDTH 6 0
BBX 4 8 1 -2
BITMAP
60
F0
60
60
60
70
00
20
ENDCHAR
STARTCHAR 1E6E
ENCODING 7790
SWIDTH 777 0
DWIDTH 7 0
BBX 5 8 1 -2
BITMAP
F8
60
60
60
60
60
00
70
ENDCHAR
STARTCHAR 1E6F
ENCODING 7791
SWIDTH 666 0
DWIDTH 6 0
BBX 4 8 1 -2
BITMAP
60
F0
60
60
60
70
00
70
ENDCHAR
STARTCHAR 1E70
ENCODING 7792
SWIDTH 777 0
DWIDTH 7 0
BBX 5 8 1 -2
BITMAP
F8
60
60
60
60
60
00
70
ENDCHAR
STARTCHAR 1E71
ENCODING 7793
SWIDTH 666 0
DWIDTH 6 0
BBX 4 8 1 -2
BITMAP
60
F0
60
60
60
70
00
70
ENDCHAR
STARTCHAR 1E72
ENCODING 7794
SWIDTH 777 0
DWIDTH 7 0
BBX 5 8 1 -2
BITMAP
D8
D8
D8
D8
D8
70
00
50
ENDCHAR
STARTCHAR 1E73
ENCODING 7795
SWIDTH 666 0
DWIDTH 6 0
BBX 5 7 1 -2
BITMAP
D8
D8
D8
F8
F8
00
B0
ENDCHAR
STARTCHAR 1E74
ENCODING 7796
SWIDTH 777 0
DWIDTH 7 0
BBX 5 8 1 -2
BITMAP
D8
D8
D8
D8
D8
70
00
70
ENDCHAR
STARTCHAR 1E75
ENCODING 7797
SWIDTH 666 0
DWIDTH 6 0
BBX 5 7 1 -2
BITMAP
D8
D8
D8
F8
F8
00
70
ENDCHAR
STARTCHAR 1E76
ENCODING 7798
SWIDTH 777 0
DWIDTH 7 0
BBX 5 8 1 -2
BITMAP
D8
D8
D8
D8
D8
70
00
70
ENDCHAR
STARTCHAR 1E77
ENCODING 7799
SWIDTH 666 0
DWIDTH 6 0
BBX 5 7 1 -2
BITMAP
D8
D8
D8
F8
F8
00
70
ENDCHAR
STARTCHAR 1E78
ENCODING 7800
SWIDTH 777 0
DWIDTH 7 0
BBX 5 10 1 0
BITMAP
20
70
70
00
D8
D8
D8
D8
D8
70
ENDCHAR
STARTCHAR 1E79
ENCODING 7801
SWIDTH 666 0
DWIDTH 6 0
BBX 5 10 1 0
BITMAP
10
20
70
70
00
D8
D8
D8
F8
F8
ENDCHAR
STARTCHAR 1E7A
ENCODING 7802
SWIDTH 777 0
DWIDTH 7 0
BBX 5 9 1 0
BITMAP
50
70
00
D8
D8
D8
D8
D8
70
ENDCHAR
STARTCHAR 1E7B
ENCODING 7803
SWIDTH 666 0
DWIDTH 6 0
BBX 5 8 1 0
BITMAP
A0
70
00
D8
D8
D8
F8
F8
ENDCHAR
STARTCHAR 1E7C
ENCODING 7804
SWIDTH 666 0
DWIDTH 6 0
BBX 6 9 0 0
BITMAP
28
10
00
CC
6C
78
78
78
30
ENDCHAR
STARTCHAR 1E7D
ENCODING 7805
SWIDTH 555 0
DWIDTH 5 0
BBX 5 8 0 0
BITMAP
70
70
00
D8
58
50
70
70
ENDCHAR
STARTCHAR 1E7E
ENCODING 7806
SWIDTH 666 0
DWIDTH 6 0
BBX 6 8 0 -2
BITMAP
CC
6C
78
78
78
30
00
30
ENDCHAR
STARTCHAR 1E7F
ENCODING 7807
SWIDTH 555 0
DWIDTH 5 0
BBX 5 7 0 -2
BITMAP
D8
58
50
70
70
00
20
ENDCHAR
STARTCHAR 1E80
ENCODING 7808
SWIDTH 888 0
DWIDTH 8 0
BBX 8 8 0 0
BITMAP
10
00
DB
DB
5F
7E
76
66
ENDCHAR
STARTCHAR 1E81
ENCODING 7809
SWIDTH 888 0
DWIDTH 8 0
BBX 8 7 0 0
BITMAP
10
00
DB
DA
5A
7E
6E
ENDCHAR
STARTCHAR 1E82
ENCODING 7810
SWIDTH 888 0
DWIDTH 8 0
BBX 8 8 0 0
BITMAP
0C
00
DB
DB
5F
7E
76
66
ENDCHAR
STARTCHAR 1E83
ENCODING 7811
SWIDTH 888 0
DWIDTH 8 0
BBX 8 7 0 0
BITMAP
08
00
DB
DA
5A
7E
6E
ENDCHAR
STARTCHAR 1E84
ENCODING 7812
SWIDTH 888 0
DWIDTH 8 0
BBX 8 8 0 0
BITMAP
14
00
DB
DB
5F
7E
76
66
ENDCHAR
STARTCHAR 1E85
ENCODING 7813
SWIDTH 888 0
DWIDTH 8 0
BBX 8 7 0 0
BITMAP
3C
00
DB
DA
5A
7E
6E
ENDCHAR
STARTCHAR 1E86
ENCODING 7814
SWIDTH 888 0
DWIDTH 8 0
BBX 8 8 0 0
BITMAP
18
00
DB
DB
FB
FE
66
66
ENDCHAR
STARTCHAR 1E87
ENCODING 7815
SWIDTH 888 0
DWIDTH 8 0
BBX 8 7 0 1
BITMAP
18
00
DB
DB
7A
6E
66
ENDCHAR
STARTCHAR 1E88
ENCODING 7816
SWIDTH 888 0
DWIDTH 8 0
BBX 8 8 0 -2
BITMAP
DB
DB
5F
7E
76
66
00
08
ENDCHAR
STARTCHAR 1E89
ENCODING 7817
SWIDTH 888 0
DWIDTH 8 0
BBX 8 7 0 -2
BITMAP
DB
DA
5A
7E
6E
00
18
ENDCHAR
STARTCHAR 1E8A
ENCODING 7818
SWIDTH 666 0
DWIDTH 6 0
BBX 6 8 0 0
BITMAP
30
00
CC
78
78
78
78
CC
ENDCHAR
STARTCHAR 1E8B
ENCODING 7819
SWIDTH 666 0
DWIDTH 6 0
BBX 5 7 0 1
BITMAP
30
00
D8
78
30
78
D8
ENDCHAR
STARTCHAR 1E8C
ENCODING 7820
SWIDTH 666 0
DWIDTH 6 0
BBX 6 8 0 0
BITMAP
70
00
CC
78
70
70
78
CC
ENDCHAR
STARTCHAR 1E8D
ENCODING 7821
SWIDTH 555 0
DWIDTH 5 0
BBX 5 7 0 0
BITMAP
50
00
D8
70
30
70
D8
ENDCHAR
STARTCHAR 1E8E
ENCODING 7822
SWIDTH 666 0
DWIDTH 6 0
BBX 6 8 0 0
BITMAP
30
00
CC
78
78
30
30
30
ENDCHAR
STARTCHAR 1E8F
ENCODING 7823
SWIDTH 666 0
DWIDTH 6 0
BBX 6 9 0 -1
BITMAP
30
00
CC
58
78
78
70
30
E0
ENDCHAR
STARTCHAR 1E90
ENCODING 7824
SWIDTH 777 0
DWIDTH 7 0
BBX 5 8 1 0
BITMAP
70
00
F8
38
30
60
C0
F8
ENDCHAR
STARTCHAR 1E91
ENCODING 7825
SWIDTH 666 0
DWIDTH 6 0
BBX 4 7 1 0
BITMAP
60
00
F0
30
60
C0
F0
ENDCHAR
STARTCHAR 1E92
ENCODING 7826
SWIDTH 777 0
DWIDTH 7 0
BBX 5 8 1 -2
BITMAP
F8
38
30
60
C0
F8
00
20
ENDCHAR
STARTCHAR 1E93
ENCODING 7827
SWIDTH 666 0
DWIDTH 6 0
BBX 4 7 1 -2
BITMAP
F0
30
60
C0
F0
00
20
ENDCHAR
STARTCHAR 1E94
ENCODING 7828
SWIDTH 777 0
DWIDTH 7 0
BBX 5 8 1 -2
BITMAP
F8
38
30
60
C0
F8
00
70
ENDCHAR
STARTCHAR 1E95
ENCODING 7829
SWIDTH 666 0
DWIDTH 6 0
BBX 4 7 1 -2
BITMAP
F0
30
60
C0
F0
00
F0
ENDCHAR
STARTCHAR 1E96
ENCODING 7830
SWIDTH 666 0
DWIDTH 6 0
BBX 5 9 1 -2
BITMAP
C0
C0
F0
F8
D8
D8
D8
00
70
ENDCHAR
STARTCHAR 1E97
ENCODING 7831
SWIDTH 666 0
DWIDTH 6 0
BBX 4 8 1 0
BITMAP
F0
00
60
F0
60
60
60
70
ENDCHAR
STARTCHAR 1E98
ENCODING 7832
SWIDTH 888 0
DWIDTH 8 0
BBX 7 8 0 0
BITMAP
18
18
18
DA
5E
5E
7E
6C
ENDCHAR
STARTCHAR 1E99
ENCODING 7833
SWIDTH 555 0
DWIDTH 5 0
BBX 4 10 1 -2
BITMAP
60
A0
60
B0
F0
F0
60
60
60
C0
ENDCHAR
STARTCHAR 1E9E
ENCODING 7838
SWIDTH 777 0
DWIDTH 7 0
BBX 6 6 1 0
BITMAP
7C
C8
D8
D8
E8
F8
ENDCHAR
STARTCHAR 1EA0
ENCODING 7840
SWIDTH 666 0
DWIDTH 6 0
BBX 6 8 0 -2
BITMAP
30
78
78
78
7C
CC
00
30
ENDCHAR
STARTCHAR 1EA1
ENCODING 7841
SWIDTH 666 0
DWIDTH 6 0
BBX 5 7 1 -2
BITMAP
70
D0
F8
D8
F8
00
20
ENDCHAR
STARTCHAR 1EA2
ENCODING 7842
SWIDTH 666 0
DWIDTH 6 0
BBX 6 10 0 0
BITMAP
20
30
10
00
38
38
78
68
7C
CC
ENDCHAR
STARTCHAR 1EA3
ENCODING 7843
SWIDTH 666 0
DWIDTH 6 0
BBX 5 9 1 0
BITMAP
20
30
20
00
70
D0
F8
D8
F8
ENDCHAR
STARTCHAR 1EA4
ENCODING 7844
SWIDTH 666 0
DWIDTH 6 0
BBX 6 9 0 0
BITMAP
04
30
00
30
78
78
78
7C
CC
ENDCHAR
STARTCHAR 1EA5
ENCODING 7845
SWIDTH 666 0
DWIDTH 6 0
BBX 6 8 1 0
BITMAP
0C
70
00
70
D0
F8
D8
F8
ENDCHAR
STARTCHAR 1EA6
ENCODING 7846
SWIDTH 666 0
DWIDTH 6 0
BBX 6 8 0 0
BITMAP
38
00
30
78
78
78
7C
CC
ENDCHAR
STARTCHAR 1EA7
ENCODING 7847
SWIDTH 666 0
DWIDTH 6 0
BBX 5 8 1 0
BITMAP
18
70
00
70
D0
F8
D8
F8
ENDCHAR
STARTCHAR 1EA8
ENCODING 7848
SWIDTH 666 0
DWIDTH 6 0
BBX 6 9 0 0
BITMAP
08
38
00
70
70
58
58
F8
CC
ENDCHAR
STARTCHAR 1EA9
ENCODING 7849
SWIDTH 666 0
DWIDTH 6 0
BBX 5 9 1 0
BITMAP
10
10
70
00
70
D0
F8
D8
F8
ENDCHAR
STARTCHAR 1EAA
ENCODING 7850
SWIDTH 666 0
DWIDTH 6 0
BBX 6 10 0 0
BITMAP
20
10
30
00
30
78
78
78
7C
CC
ENDCHAR
STARTCHAR 1EAB
ENCODING 7851
SWIDTH 666 0
DWIDTH 6 0
BBX 5 9 1 0
BITMAP
70
20
70
00
70
D0
F8
D8
F8
ENDCHAR
STARTCHAR 1EAC
ENCODING 7852
SWIDTH 666 0
DWIDTH 6 0
BBX 6 10 0 -2
BITMAP
30
00
30
78
78
78
7C
CC
00
30
ENDCHAR
STARTCHAR 1EAD
ENCODING 7853
SWIDTH 666 0
DWIDTH 6 0
BBX 5 9 1 -2
BITMAP
70
00
70
D0
F8
D8
F8
00
20
ENDCHAR
STARTCHAR 1EAE
ENCODING 7854
SWIDTH 666 0
DWIDTH 6 0
BBX 6 9 0 0
BITMAP
10
30
00
30
78
78
78
7C
CC
ENDCHAR
STARTCHAR 1EAF
ENCODING 7855
SWIDTH 666 0
DWIDTH 6 0
BBX 5 9 1 0
BITMAP
30
00
50
60
70
D0
F8
D8
F8
ENDCHAR
STARTCHAR 1EB0
ENCODING 7856
SWIDTH 666 0
DWIDTH 6 0
BBX 6 9 0 0
BITMAP
20
30
00
30
78
78
78
7C
CC
ENDCHAR
STARTCHAR 1EB1
ENCODING 7857
SWIDTH 666 0
DWIDTH 6 0
BBX 5 9 1 0
BITMAP
40
00
50
60
70
D0
F8
D8
F8
ENDCHAR
STARTCHAR 1EB2
ENCODING 7858
SWIDTH 666 0
DWIDTH 6 0
BBX 6 10 0 0
BITMAP
20
00
30
00
30
78
78
78
7C
CC
ENDCHAR
STARTCHAR 1EB3
ENCODING 7859
SWIDTH 666 0
DWIDTH 6 0
BBX 5 9 1 0
BITMAP
60
20
50
70
70
D0
F8
D8
F8
ENDCHAR
STARTCHAR 1EB4
ENCODING 7860
SWIDTH 666 0
DWIDTH 6 0
BBX 6 11 0 0
BITMAP
20
30
00
30
00
30
78
78
78
7C
CC
ENDCHAR
STARTCHAR 1EB5
ENCODING 7861
SWIDTH 666 0
DWIDTH 6 0
BBX 5 9 1 0
BITMAP
50
70
50
70
70
D0
F8
D8
F8
ENDCHAR
STARTCHAR 1EB6
ENCODING 7862
SWIDTH 666 0
DWIDTH 6 0
BBX 6 11 0 -2
BITMAP
28
30
00
30
78
78
78
7C
CC
00
30
ENDCHAR
STARTCHAR 1EB7
ENCODING 7863
SWIDTH 666 0
DWIDTH 6 0
BBX 5 9 1 -2
BITMAP
70
00
70
D0
F8
D8
F8
00
20
ENDCHAR
STARTCHAR 1EB8
ENCODING 7864
SWIDTH 555 0
DWIDTH 5 0
BBX 4 8 1 -2
BITMAP
F0
C0
C0
F0
C0
F0
00
40
ENDCHAR
STARTCHAR 1EB9
ENCODING 7865
SWIDTH 666 0
DWIDTH 6 0
BBX 5 7 1 -2
BITMAP
70
D0
F8
D0
70
00
20
ENDCHAR
STARTCHAR 1EBA
ENCODING 7866
SWIDTH 666 0
DWIDTH 6 0
BBX 4 10 1 0
BITMAP
40
60
20
00
F0
C0
F0
C0
C0
F0
ENDCHAR
STARTCHAR 1EBB
ENCODING 7867
SWIDTH 666 0
DWIDTH 6 0
BBX 5 9 1 0
BITMAP
20
30
20
00
70
D0
F8
D0
70
ENDCHAR
STARTCHAR 1EBC
ENCODING 7868
SWIDTH 555 0
DWIDTH 5 0
BBX 4 9 1 0
BITMAP
50
20
00
F0
C0
F0
C0
C0
F0
ENDCHAR
STARTCHAR 1EBD
ENCODING 7869
SWIDTH 666 0
DWIDTH 6 0
BBX 5 8 1 0
BITMAP
50
70
00
70
D0
F8
D0
70
ENDCHAR
STARTCHAR 1EBE
ENCODING 7870
SWIDTH 555 0
DWIDTH 5 0
BBX 5 9 1 0
BITMAP
08
60
00
F0
C0
F0
C0
C0
F0
ENDCHAR
STARTCHAR 1EBF
ENCODING 7871
SWIDTH 666 0
DWIDTH 6 0
BBX 5 8 1 0
BITMAP
08
70
00
70
D0
F8
D0
70
ENDCHAR
STARTCHAR 1EC0
ENCODING 7872
SWIDTH 555 0
DWIDTH 5 0
BBX 4 8 1 0
BITMAP
70
00
F0
C0
F0
C0
C0
F0
ENDCHAR
STARTCHAR 1EC1
ENCODING 7873
SWIDTH 666 0
DWIDTH 6 0
BBX 5 8 1 0
BITMAP
18
70
00
70
D0
F8
D0
70
ENDCHAR
STARTCHAR 1EC2
ENCODING 7874
SWIDTH 666 0
DWIDTH 6 0
BBX 4 9 1 0
BITMAP
10
60
00
F0
C0
F0
C0
C0
F0
ENDCHAR
STARTCHAR 1EC3
ENCODING 7875
SWIDTH 666 0
DWIDTH 6 0
BBX 5 9 1 0
BITMAP
10
10
70
00
70
D0
F8
D0
70
ENDCHAR
STARTCHAR 1EC4
ENCODING 7876
SWIDTH 555 0
DWIDTH 5 0
BBX 4 10 1 0
BITMAP
40
20
60
00
F0
C0
F0
C0
C0
F0
ENDCHAR
STARTCHAR 1EC5
ENCODING 7877
SWIDTH 666 0
DWIDTH 6 0
BBX 5 9 1 0
BITMAP
70
20
70
00
70
D0
F8
D0
70
ENDCHAR
STARTCHAR 1EC6
ENCODING 7878
SWIDTH 555 0
DWIDTH 5 0
BBX 4 10 1 -2
BITMAP
60
00
F0
C0
C0
F0
C0
F0
00
40
ENDCHAR
STARTCHAR 1EC7
ENCODING 7879
SWIDTH 666 0
DWIDTH 6 0
BBX 5 9 1 -2
BITMAP
70
00
70
D0
F8
D0
70
00
20
ENDCHAR
STARTCHAR 1EC8
ENCODING 7880
SWIDTH 333 0
DWIDTH 3 0
BBX 2 10 1 0
BITMAP
80
C0
40
00
C0
C0
C0
C0
C0
C0
ENDCHAR
STARTCHAR 1EC9
ENCODING 7881
SWIDTH 333 0
DWIDTH 3 0
BBX 2 9 1 0
BITMAP
80
C0
40
00
C0
C0
C0
C0
C0
ENDCHAR
STARTCHAR 1ECA
ENCODING 7882
SWIDTH 333 0
DWIDTH 3 0
BBX 2 8 1 -2
BITMAP
C0
C0
C0
C0
C0
C0
00
80
ENDCHAR
STARTCHAR 1ECB
ENCODING 7883
SWIDTH 333 0
DWIDTH 3 0
BBX 2 9 1 -1
BITMAP
C0
00
C0
C0
C0
C0
C0
00
80
ENDCHAR
STARTCHAR 1ECC
ENCODING 7884
SWIDTH 777 0
DWIDTH 7 0
BBX 6 8 1 -2
BITMAP
78
DC
CC
CC
CC
78
00
10
ENDCHAR
STARTCHAR 1ECD
ENCODING 7885
SWIDTH 666 0
DWIDTH 6 0
BBX 5 7 1 -2
BITMAP
70
D8
D8
D8
70
00
20
ENDCHAR
STARTCHAR 1ECE
ENCODING 7886
SWIDTH 777 0
DWIDTH 7 0
BBX 6 10 1 0
BITMAP
20
30
10
00
78
CC
CC
CC
CC
78
ENDCHAR
STARTCHAR 1ECF
ENCODING 7887
SWIDTH 666 0
DWIDTH 6 0
BBX 5 9 1 0
BITMAP
20
20
20
00
70
D8
D8
D8
70
ENDCHAR
STARTCHAR 1ED0
ENCODING 7888
SWIDTH 777 0
DWIDTH 7 0
BBX 6 9 1 0
BITMAP
04
70
00
78
DC
CC
CC
CC
78
ENDCHAR
STARTCHAR 1ED1
ENCODING 7889
SWIDTH 666 0
DWIDTH 6 0
BBX 6 8 1 0
BITMAP
0C
70
00
70
D8
D8
D8
70
ENDCHAR
STARTCHAR 1ED2
ENCODING 7890
SWIDTH 777 0
DWIDTH 7 0
BBX 6 8 1 0
BITMAP
38
00
78
DC
CC
CC
CC
78
ENDCHAR
STARTCHAR 1ED3
ENCODING 7891
SWIDTH 666 0
DWIDTH 6 0
BBX 5 8 1 0
BITMAP
08
70
00
70
D8
D8
D8
70
ENDCHAR
STARTCHAR 1ED4
ENCODING 7892
SWIDTH 777 0
DWIDTH 7 0
BBX 6 9 1 0
BITMAP
08
30
00
78
DC
CC
CC
CC
78
ENDCHAR
STARTCHAR 1ED5
ENCODING 7893
SWIDTH 666 0
DWIDTH 6 0
BBX 5 9 1 0
BITMAP
18
08
70
00
70
D8
D8
D8
70
ENDCHAR
STARTCHAR 1ED6
ENCODING 7894
SWIDTH 777 0
DWIDTH 7 0
BBX 6 10 1 0
BITMAP
30
10
30
00
78
DC
CC
CC
CC
78
ENDCHAR
STARTCHAR 1ED7
ENCODING 7895
SWIDTH 666 0
DWIDTH 6 0
BBX 5 9 1 0
BITMAP
70
00
70
00
70
D8
D8
D8
70
ENDCHAR
STARTCHAR 1ED8
ENCODING 7896
SWIDTH 777 0
DWIDTH 7 0
BBX 6 10 1 -2
BITMAP
70
00
78
DC
CC
CC
CC
78
00
10
ENDCHAR
STARTCHAR 1ED9
ENCODING 7897
SWIDTH 666 0
DWIDTH 6 0
BBX 5 9 1 -2
BITMAP
70
00
70
D8
D8
D8
70
00
20
ENDCHAR
STARTCHAR 1EDA
ENCODING 7898
SWIDTH 888 0
DWIDTH 8 0
BBX 7 8 1 0
BITMAP
10
06
7C
DC
CC
CC
DC
78
ENDCHAR
STARTCHAR 1EDB
ENCODING 7899
SWIDTH 777 0
DWIDTH 7 0
BBX 5 7 1 0
BITMAP
20
18
78
D0
D8
D8
70
ENDCHAR
STARTCHAR 1EDC
ENCODING 7900
SWIDTH 888 0
DWIDTH 8 0
BBX 7 8 1 0
BITMAP
60
06
7C
DC
CC
CC
DC
78
ENDCHAR
STARTCHAR 1EDD
ENCODING 7901
SWIDTH 777 0
DWIDTH 7 0
BBX 5 7 1 0
BITMAP
60
18
78
D0
D8
D8
70
ENDCHAR
STARTCHAR 1EDE
ENCODING 7902
SWIDTH 888 0
DWIDTH 8 0
BBX 7 9 1 0
BITMAP
30
10
06
7C
DC
CC
CC
CC
78
ENDCHAR
STARTCHAR 1EDF
ENCODING 7903
SWIDTH 777 0
DWIDTH 7 0
BBX 5 8 1 0
BITMAP
20
20
08
78
D8
D8
D8
70
ENDCHAR
STARTCHAR 1EE0
ENCODING 7904
SWIDTH 888 0
DWIDTH 8 0
BBX 7 10 1 0
BITMAP
20
70
00
06
7C
DC
CC
CC
DC
78
ENDCHAR
STARTCHAR 1EE1
ENCODING 7905
SWIDTH 777 0
DWIDTH 7 0
BBX 5 9 1 0
BITMAP
60
60
00
18
78
D0
D8
D8
70
ENDCHAR
STARTCHAR 1EE2
ENCODING 7906
SWIDTH 888 0
DWIDTH 8 0
BBX 7 9 1 -2
BITMAP
06
7C
DC
CC
CC
DC
78
00
10
ENDCHAR
STARTCHAR 1EE3
ENCODING 7907
SWIDTH 777 0
DWIDTH 7 0
BBX 5 8 1 -2
BITMAP
18
78
D0
D8
D8
70
00
20
ENDCHAR
STARTCHAR 1EE4
ENCODING 7908
SWIDTH 777 0
DWIDTH 7 0
BBX 5 8 1 -2
BITMAP
D8
D8
D8
D8
D8
70
00
20
ENDCHAR
STARTCHAR 1EE5
ENCODING 7909
SWIDTH 666 0
DWIDTH 6 0
BBX 5 7 1 -2
BITMAP
D8
D8
D8
F8
F8
00
40
ENDCHAR
STARTCHAR 1EE6
ENCODING 7910
SWIDTH 777 0
DWIDTH 7 0
BBX 5 10 1 0
BITMAP
20
20
20
00
D8
D8
D8
D8
D8
70
ENDCHAR
STARTCHAR 1EE7
ENCODING 7911
SWIDTH 666 0
DWIDTH 6 0
BBX 5 9 1 0
BITMAP
20
20
20
00
D8
D8
D8
F8
F8
ENDCHAR
STARTCHAR 1EE8
ENCODING 7912
SWIDTH 888 0
DWIDTH 8 0
BBX 7 8 1 0
BITMAP
30
06
DE
D8
D8
D8
D8
70
ENDCHAR
STARTCHAR 1EE9
ENCODING 7913
SWIDTH 888 0
DWIDTH 8 0
BBX 6 7 1 0
BITMAP
30
04
DC
D8
D8
F8
F8
ENDCHAR
STARTCHAR 1EEA
ENCODING 7914
SWIDTH 888 0
DWIDTH 8 0
BBX 7 8 1 0
BITMAP
60
06
DE
D8
D8
D8
D8
70
ENDCHAR
STARTCHAR 1EEB
ENCODING 7915
SWIDTH 888 0
DWIDTH 8 0
BBX 6 7 1 0
BITMAP
60
04
DC
D8
D8
F8
F8
ENDCHAR
STARTCHAR 1EEC
ENCODING 7916
SWIDTH 888 0
DWIDTH 8 0
BBX 7 9 1 0
BITMAP
20
20
06
DE
D8
D8
D8
D8
70
ENDCHAR
STARTCHAR 1EED
ENCODING 7917
SWIDTH 888 0
DWIDTH 8 0
BBX 6 8 1 0
BITMAP
20
20
04
DC
D8
D8
F8
F8
ENDCHAR
STARTCHAR 1EEE
ENCODING 7918
SWIDTH 888 0
DWIDTH 8 0
BBX 7 10 1 0
BITMAP
70
70
00
06
DE
D8
D8
D8
D8
70
ENDCHAR
STARTCHAR 1EEF
ENCODING 7919
SWIDTH 888 0
DWIDTH 8 0
BBX 6 9 1 0
BITMAP
70
70
00
04
DC
D8
D8
F8
F8
ENDCHAR
STARTCHAR 1EF0
ENCODING 7920
SWIDTH 888 0
DWIDTH 8 0
BBX 7 9 1 -2
BITMAP
06
DE
D8
D8
D8
D8
70
00
20
ENDCHAR
STARTCHAR 1EF1
ENCODING 7921
SWIDTH 888 0
DWIDTH 8 0
BBX 6 8 1 -2
BITMAP
04
DC
D8
D8
F8
F8
00
40
ENDCHAR
STARTCHAR 1EF2
ENCODING 7922
SWIDTH 666 0
DWIDTH 6 0
BBX 6 8 0 0
BITMAP
20
00
CC
78
78
30
30
30
ENDCHAR
STARTCHAR 1EF3
ENCODING 7923
SWIDTH 555 0
DWIDTH 5 0
BBX 5 9 0 -2
BITMAP
60
00
D8
D0
D0
70
70
60
E0
ENDCHAR
STARTCHAR 1EF4
ENCODING 7924
SWIDTH 666 0
DWIDTH 6 0
BBX 6 8 0 -2
BITMAP
CC
78
78
30
30
30
00
20
ENDCHAR
STARTCHAR 1EF5
ENCODING 7925
SWIDTH 666 0
DWIDTH 6 0
BBX 6 7 0 -2
BITMAP
CC
78
78
78
38
70
6C
ENDCHAR
STARTCHAR 1EF6
ENCODING 7926
SWIDTH 666 0
DWIDTH 6 0
BBX 6 10 0 0
BITMAP
20
30
10
00
CC
78
78
30
30
30
ENDCHAR
STARTCHAR 1EF7
ENCODING 7927
SWIDTH 666 0
DWIDTH 6 0
BBX 5 10 1 -2
BITMAP
20
20
00
D8
D8
D0
50
70
60
E0
ENDCHAR
STARTCHAR 1EF8
ENCODING 7928
SWIDTH 666 0
DWIDTH 6 0
BBX 6 9 0 0
BITMAP
28
50
00
CC
78
78
30
30
30
ENDCHAR
STARTCHAR 1EF9
ENCODING 7929
SWIDTH 555 0
DWIDTH 5 0
BBX 5 10 0 -2
BITMAP
70
70
00
D8
D0
D0
70
70
60
E0
ENDCHAR
STARTCHAR 2000
ENCODING 8192
SWIDTH 555 0
DWIDTH 5 0
BBX 0 0 0 0
BITMAP
ENDCHAR
STARTCHAR 2001
ENCODING 8193
SWIDTH 1000 0
DWIDTH 9 0
BBX 0 0 0 0
BITMAP
ENDCHAR
STARTCHAR 2002
ENCODING 8194
SWIDTH 666 0
DWIDTH 6 0
BBX 0 0 0 0
BITMAP
ENDCHAR
STARTCHAR 2003
ENCODING 8195
SWIDTH 1000 0
DWIDTH 9 0
BBX 0 0 0 0
BITMAP
ENDCHAR
STARTCHAR 2004
ENCODING 8196
SWIDTH 333 0
DWIDTH 3 0
BBX 0 0 0 0
BITMAP
ENDCHAR
STARTCHAR 2005
ENCODING 8197
SWIDTH 222 0
DWIDTH 2 0
BBX 0 0 0 0
BITMAP
ENDCHAR
STARTCHAR 2006
ENCODING 8198
SWIDTH 222 0
DWIDTH 2 0
BBX 0 0 0 0
BITMAP
ENDCHAR
STARTCHAR 2007
ENCODING 8199
SWIDTH 666 0
DWIDTH 6 0
BBX 0 0 0 0
BITMAP
ENDCHAR
STARTCHAR 2008
ENCODING 8200
SWIDTH 333 0
DWIDTH 3 0
BBX 0 0 0 0
BITMAP
ENDCHAR
STARTCHAR 2009
ENCODING 8201
SWIDTH 222 0
DWIDTH 2 0
BBX 0 0 0 0
BITMAP
ENDCHAR
STARTCHAR 200A
ENCODING 8202
SWIDTH 111 0
DWIDTH 1 0
BBX 0 0 0 0
BITMAP
ENDCHAR
STARTCHAR 200B
ENCODING 8203
SWIDTH 0 0
DWIDTH 0 0
BBX 0 0 0 0
BITMAP
ENDCHAR
STARTCHAR 200D
ENCODING 8205
SWIDTH 0 0
DWIDTH 0 0
BBX 0 0 0 0
BITMAP
ENDCHAR
STARTCHAR 2010
ENCODING 8208
SWIDTH 444 0
DWIDTH 4 0
BBX 3 1 1 2
BITMAP
E0
ENDCHAR
STARTCHAR 2011
ENCODING 8209
SWIDTH 444 0
DWIDTH 4 0
BBX 3 1 1 2
BITMAP
E0
ENDCHAR
STARTCHAR 2012
ENCODING 8210
SWIDTH 666 0
DWIDTH 6 0
BBX 6 1 0 2
BITMAP
FC
ENDCHAR
STARTCHAR 2013
ENCODING 8211
SWIDTH 666 0
DWIDTH 6 0
BBX 6 1 0 2
BITMAP
FC
ENDCHAR
STARTCHAR 2014
ENCODING 8212
SWIDTH 1000 0
DWIDTH 9 0
BBX 9 1 0 2
BITMAP
FF80
ENDCHAR
STARTCHAR 2018
ENCODING 8216
SWIDTH 333 0
DWIDTH 3 0
BBX 1 3 1 3
BITMAP
80
80
80
ENDCHAR
STARTCHAR 2019
ENCODING 8217
SWIDTH 333 0
DWIDTH 3 0
BBX 2 3 0 3
BITMAP
40
40
C0
ENDCHAR
STARTCHAR 201A
ENCODING 8218
SWIDTH 333 0
DWIDTH 3 0
BBX 2 3 0 -2
BITMAP
40
40
C0
ENDCHAR
STARTCHAR 201C
ENCODING 8220
SWIDTH 555 0
DWIDTH 5 0
BBX 4 3 1 3
BITMAP
B0
B0
B0
ENDCHAR
STARTCHAR 201D
ENCODING 8221
SWIDTH 555 0
DWIDTH 5 0
BBX 5 3 0 3
BITMAP
58
58
D8
ENDCHAR
STARTCHAR 201E
ENCODING 8222
SWIDTH 555 0
DWIDTH 5 0
BBX 5 3 0 -2
BITMAP
58
58
D8
ENDCHAR
STARTCHAR 2020
ENCODING 8224
SWIDTH 555 0
DWIDTH 5 0
BBX 3 4 1 2
BITMAP
60
E0
60
60
ENDCHAR
STARTCHAR 2021
ENCODING 8225
SWIDTH 555 0
DWIDTH 5 0
BBX 3 5 1 1
BITMAP
40
E0
40
E0
40
ENDCHAR
STARTCHAR 2022
ENCODING 8226
SWIDTH 666 0
DWIDTH 6 0
BBX 4 4 1 1
BITMAP
60
F0
F0
60
ENDCHAR
STARTCHAR 2023
ENCODING 8227
SWIDTH 444 0
DWIDTH 4 0
BBX 3 3 1 1
BITMAP
C0
E0
C0
ENDCHAR
STARTCHAR 2026
ENCODING 8230
SWIDTH 1000 0
DWIDTH 9 0
BBX 8 2 1 0
BITMAP
DB
DB
ENDCHAR
STARTCHAR 202F
ENCODING 8239
SWIDTH 222 0
DWIDTH 2 0
BBX 0 0 0 0
BITMAP
ENDCHAR
STARTCHAR 2030
ENCODING 8240
SWIDTH 1333 0
DWIDTH 12 0
BBX 11 6 1 0
BITMAP
EC00
A800
F000
1EC0
2AE0
6EC0
ENDCHAR
STARTCHAR 2032
ENCODING 8242
SWIDTH 333 0
DWIDTH 3 0
BBX 2 3 0 3
BITMAP
40
40
C0
ENDCHAR
STARTCHAR 2033
ENCODING 8243
SWIDTH 555 0
DWIDTH 5 0
BBX 5 3 0 3
BITMAP
58
58
D0
ENDCHAR
STARTCHAR 2034
ENCODING 8244
SWIDTH 888 0
DWIDTH 8 0
BBX 7 3 0 3
BITMAP
5E
5E
D6
ENDCHAR
STARTCHAR 2039
ENCODING 8249
SWIDTH 444 0
DWIDTH 4 0
BBX 2 4 1 1
BITMAP
40
80
80
40
ENDCHAR
STARTCHAR 203A
ENCODING 8250
SWIDTH 444 0
DWIDTH 4 0
BBX 2 4 1 1
BITMAP
80
C0
C0
80
ENDCHAR
STARTCHAR 2043
ENCODING 8259
SWIDTH 555 0
DWIDTH 5 0
BBX 3 1 1 2
BITMAP
E0
ENDCHAR
STARTCHAR 2044
ENCODING 8260
SWIDTH 333 0
DWIDTH 3 0
BBX 5 6 -1 0
BITMAP
18
10
20
20
40
C0
ENDCHAR
STARTCHAR 205F
ENCODING 8287
SWIDTH 222 0
DWIDTH 2 0
BBX 0 0 0 0
BITMAP
ENDCHAR
STARTCHAR 2060
ENCODING 8288
SWIDTH 0 0
DWIDTH 0 0
BBX 0 0 0 0
BITMAP
ENDCHAR
STARTCHAR 2070
ENCODING 8304
SWIDTH 555 0
DWIDTH 5 0
BBX 3 4 1 4
BITMAP
E0
A0
A0
E0
ENDCHAR
STARTCHAR 2071
ENCODING 8305
SWIDTH 333 0
DWIDTH 3 0
BBX 2 6 0 2
BITMAP
C0
00
40
40
40
40
ENDCHAR
STARTCHAR 2074
ENCODING 8308
SWIDTH 555 0
DWIDTH 5 0
BBX 4 4 1 4
BITMAP
60
A0
F0
20
ENDCHAR
STARTCHAR 2075
ENCODING 8309
SWIDTH 555 0
DWIDTH 5 0
BBX 4 4 1 4
BITMAP
E0
A0
F0
E0
ENDCHAR
STARTCHAR 2076
ENCODING 8310
SWIDTH 555 0
DWIDTH 5 0
BBX 4 4 1 4
BITMAP
E0
A0
F0
E0
ENDCHAR
STARTCHAR 2077
ENCODING 8311
SWIDTH 555 0
DWIDTH 5 0
BBX 3 4 1 4
BITMAP
E0
60
40
C0
ENDCHAR
STARTCHAR 2078
ENCODING 8312
SWIDTH 555 0
DWIDTH 5 0
BBX 3 4 1 4
BITMAP
E0
60
E0
E0
ENDCHAR
STARTCHAR 2079
ENCODING 8313
SWIDTH 555 0
DWIDTH 5 0
BBX 3 4 1 4
BITMAP
E0
E0
60
E0
ENDCHAR
STARTCHAR 207A
ENCODING 8314
SWIDTH 555 0
DWIDTH 5 0
BBX 3 3 1 4
BITMAP
40
E0
40
ENDCHAR
STARTCHAR 207B
ENCODING 8315
SWIDTH 555 0
DWIDTH 5 0
BBX 3 1 1 5
BITMAP
E0
ENDCHAR
STARTCHAR 207C
ENCODING 8316
SWIDTH 555 0
DWIDTH 5 0
BBX 3 3 1 5
BITMAP
E0
00
E0
ENDCHAR
STARTCHAR 207D
ENCODING 8317
SWIDTH 333 0
DWIDTH 3 0
BBX 2 5 1 3
BITMAP
C0
80
80
80
C0
ENDCHAR
STARTCHAR 207E
ENCODING 8318
SWIDTH 333 0
DWIDTH 3 0
BBX 2 5 0 3
BITMAP
C0
40
40
40
C0
ENDCHAR
STARTCHAR 207F
ENCODING 8319
SWIDTH 555 0
DWIDTH 5 0
BBX 3 4 1 2
BITMAP
E0
A0
A0
A0
ENDCHAR
STARTCHAR 2080
ENCODING 8320
SWIDTH 555 0
DWIDTH 5 0
BBX 3 4 1 -2
BITMAP
E0
A0
A0
E0
ENDCHAR
STARTCHAR 2081
ENCODING 8321
SWIDTH 333 0
DWIDTH 3 0
BBX 2 4 0 -2
BITMAP
C0
40
40
40
ENDCHAR
STARTCHAR 2082
ENCODING 8322
SWIDTH 555 0
DWIDTH 5 0
BBX 3 4 1 -2
BITMAP
E0
20
40
E0
ENDCHAR
STARTCHAR 2083
ENCODING 8323
SWIDTH 555 0
DWIDTH 5 0
BBX 3 4 1 -2
BITMAP
E0
60
20
E0
ENDCHAR
STARTCHAR 2084
ENCODING 8324
SWIDTH 555 0
DWIDTH 5 0
BBX 4 4 1 -2
BITMAP
60
A0
F0
20
ENDCHAR
STARTCHAR 2085
ENCODING 8325
SWIDTH 555 0
DWIDTH 5 0
BBX 4 4 1 -2
BITMAP
E0
E0
30
E0
ENDCHAR
STARTCHAR 2086
ENCODING 8326
SWIDTH 555 0
DWIDTH 5 0
BBX 4 4 1 -2
BITMAP
E0
E0
F0
E0
ENDCHAR
STARTCHAR 2087
ENCODING 8327
SWIDTH 555 0
DWIDTH 5 0
BBX 3 4 1 -2
BITMAP
E0
60
40
C0
ENDCHAR
STARTCHAR 2088
ENCODING 8328
SWIDTH 555 0
DWIDTH 5 0
BBX 3 4 1 -2
BITMAP
E0
60
E0
E0
ENDCHAR
STARTCHAR 2089
ENCODING 8329
SWIDTH 555 0
DWIDTH 5 0
BBX 3 4 1 -2
BITMAP
E0
E0
60
E0
ENDCHAR
STARTCHAR 208A
ENCODING 8330
SWIDTH 555 0
DWIDTH 5 0
BBX 3 3 1 -1
BITMAP
40
E0
40
ENDCHAR
STARTCHAR 208B
ENCODING 8331
SWIDTH 555 0
DWIDTH 5 0
BBX 3 1 1 0
BITMAP
E0
ENDCHAR
STARTCHAR 208C
ENCODING 8332
SWIDTH 555 0
DWIDTH 5 0
BBX 3 3 1 -1
BITMAP
E0
00
E0
ENDCHAR
STARTCHAR 208D
ENCODING 8333
SWIDTH 333 0
DWIDTH 3 0
BBX 2 5 1 -2
BITMAP
C0
80
80
80
C0
ENDCHAR
STARTCHAR 208E
ENCODING 8334
SWIDTH 333 0
DWIDTH 3 0
BBX 2 5 0 -2
BITMAP
C0
40
40
40
C0
ENDCHAR
STARTCHAR 20A1
ENCODING 8353
SWIDTH 777 0
DWIDTH 7 0
BBX 5 6 1 0
BITMAP
70
D8
F0
F0
F8
70
ENDCHAR
STARTCHAR 20A2
ENCODING 8354
SWIDTH 777 0
DWIDTH 7 0
BBX 5 6 1 0
BITMAP
70
D8
F0
E0
F8
70
ENDCHAR
STARTCHAR 20A3
ENCODING 8355
SWIDTH 666 0
DWIDTH 6 0
BBX 5 6 0 0
BITMAP
78
60
78
60
F0
60
ENDCHAR
STARTCHAR 20A4
ENCODING 8356
SWIDTH 777 0
DWIDTH 7 0
BBX 5 6 1 0
BITMAP
38
60
F0
F0
60
F8
ENDCHAR
STARTCHAR 20A5
ENCODING 8357
SWIDTH 777 0
DWIDTH 7 0
BBX 5 8 1 -1
BITMAP
10
F8
F8
E8
E8
E8
40
40
ENDCHAR
STARTCHAR 20A6
ENCODING 8358
SWIDTH 777 0
DWIDTH 7 0
BBX 7 6 0 0
BITMAP
7C
7C
FE
7C
7C
7C
ENDCHAR
STARTCHAR 20A7
ENCODING 8359
SWIDTH 777 0
DWIDTH 7 0
BBX 6 6 0 0
BITMAP
78
6C
FC
7C
60
60
ENDCHAR
STARTCHAR 20A8
ENCODING 8360
SWIDTH 666 0
DWIDTH 6 0
BBX 5 6 1 0
BITMAP
E0
B8
F8
F8
E8
B8
ENDCHAR
STARTCHAR 20A9
ENCODING 8361
SWIDTH 666 0
DWIDTH 6 0
BBX 6 6 0 0
BITMAP
5C
7C
FC
78
68
68
ENDCHAR
STARTCHAR 20AA
ENCODING 8362
SWIDTH 777 0
DWIDTH 7 0
BBX 6 6 1 0
BITMAP
FC
DC
FC
FC
EC
FC
ENDCHAR
STARTCHAR 20AB
ENCODING 8363
SWIDTH 777 0
DWIDTH 7 0
BBX 5 9 1 -2
BITMAP
18
38
78
D8
D8
D8
78
00
70
ENDCHAR
STARTCHAR 20AC
ENCODING 8364
SWIDTH 666 0
DWIDTH 6 0
BBX 5 6 1 0
BITMAP
78
E0
F0
F0
E0
78
ENDCHAR
STARTCHAR 20AD
ENCODING 8365
SWIDTH 666 0
DWIDTH 6 0
BBX 5 6 1 0
BITMAP
D8
F0
F8
F0
D0
D8
ENDCHAR
STARTCHAR 20AE
ENCODING 8366
SWIDTH 777 0
DWIDTH 7 0
BBX 5 6 1 0
BITMAP
F8
30
38
78
70
30
ENDCHAR
STARTCHAR 20B1
ENCODING 8369
SWIDTH 777 0
DWIDTH 7 0
BBX 6 6 0 0
BITMAP
78
FC
FC
7C
60
60
ENDCHAR
STARTCHAR 20B2
ENCODING 8370
SWIDTH 777 0
DWIDTH 7 0
BBX 5 8 1 -1
BITMAP
20
70
F8
E0
F8
F8
70
20
ENDCHAR
STARTCHAR 20B3
ENCODING 8371
SWIDTH 666 0
DWIDTH 6 0
BBX 6 6 0 0
BITMAP
30
78
FC
58
FC
CC
ENDCHAR
STARTCHAR 20B4
ENCODING 8372
SWIDTH 777 0
DWIDTH 7 0
BBX 5 6 1 0
BITMAP
78
D8
F8
F8
D8
F0
ENDCHAR
STARTCHAR 20B5
ENCODING 8373
SWIDTH 777 0
DWIDTH 7 0
BBX 5 8 1 -1
BITMAP
20
70
F8
E0
E0
F8
70
20
ENDCHAR
STARTCHAR 20B8
ENCODING 8376
SWIDTH 777 0
DWIDTH 7 0
BBX 5 6 1 0
BITMAP
F8
F8
60
60
60
60
ENDCHAR
STARTCHAR 20B9
ENCODING 8377
SWIDTH 666 0
DWIDTH 6 0
BBX 4 6 1 0
BITMAP
F0
30
60
E0
C0
60
ENDCHAR
STARTCHAR 20BA
ENCODING 8378
SWIDTH 666 0
DWIDTH 6 0
BBX 4 6 1 0
BITMAP
C0
C0
C0
D0
F0
E0
ENDCHAR
STARTCHAR 20BC
ENCODING 8380
SWIDTH 777 0
DWIDTH 7 0
BBX 5 7 1 0
BITMAP
20
20
70
F8
F8
F8
F8
ENDCHAR
STARTCHAR 20BD
ENCODING 8381
SWIDTH 777 0
DWIDTH 7 0
BBX 6 6 0 0
BITMAP
78
6C
6C
F8
F0
60
ENDCHAR
STARTCHAR 20BE
ENCODING 8382
SWIDTH 777 0
DWIDTH 7 0
BBX 5 7 1 0
BITMAP
60
70
F8
F8
C0
60
F0
ENDCHAR
STARTCHAR 20BF
ENCODING 8383
SWIDTH 666 0
DWIDTH 6 0
BBX 4 8 1 -1
BITMAP
50
F0
D0
F0
D0
D0
F0
50
ENDCHAR
STARTCHAR 20C1
ENCODING 8385
SWIDTH 666 0
DWIDTH 6 0
BBX 6 6 0 0
BITMAP
28
3C
78
2C
E4
0C
ENDCHAR
STARTCHAR 20DD
ENCODING 8413
SWIDTH 888 0
DWIDTH 8 0
BBX 7 6 1 0
BITMAP
7C
C6
82
82
C6
7C
ENDCHAR
STARTCHAR 20DE
ENCODING 8414
SWIDTH 888 0
DWIDTH 8 0
BBX 6 6 1 0
BITMAP
FC
84
84
84
84
FC
ENDCHAR
STARTCHAR 2116
ENCODING 8470
SWIDTH 1111 0
DWIDTH 10 0
BBX 9 6 0 0
BITMAP
CD80
EE80
FD80
FC00
DF80
CC00
ENDCHAR
STARTCHAR 2117
ENCODING 8471
SWIDTH 555 0
DWIDTH 5 0
BBX 5 5 0 2
BITMAP
30
C8
B8
88
70
ENDCHAR
STARTCHAR 2120
ENCODING 8480
SWIDTH 888 0
DWIDTH 8 0
BBX 8 4 0 2
BITMAP
EF
CF
6F
E9
ENDCHAR
STARTCHAR 2122
ENCODING 8482
SWIDTH 888 0
DWIDTH 8 0
BBX 8 4 0 2
BITMAP
EF
4F
4F
49
ENDCHAR
STARTCHAR 2126
ENCODING 8486
SWIDTH 888 0
DWIDTH 8 0
BBX 6 6 1 0
BITMAP
78
CC
CC
CC
68
EC
ENDCHAR
STARTCHAR 2190
ENCODING 8592
SWIDTH 888 0
DWIDTH 8 0
BBX 7 5 1 1
BITMAP
20
60
FE
60
20
ENDCHAR
STARTCHAR 2191
ENCODING 8593
SWIDTH 777 0
DWIDTH 7 0
BBX 5 6 1 0
BITMAP
30
78
A8
20
20
20
ENDCHAR
STARTCHAR 2192
ENCODING 8594
SWIDTH 888 0
DWIDTH 8 0
BBX 7 5 1 1
BITMAP
18
0C
FE
0C
18
ENDCHAR
STARTCHAR 2193
ENCODING 8595
SWIDTH 777 0
DWIDTH 7 0
BBX 5 6 1 0
BITMAP
20
20
20
A8
78
30
ENDCHAR
STARTCHAR 2194
ENCODING 8596
SWIDTH 1000 0
DWIDTH 9 0
BBX 7 5 1 0
BITMAP
28
44
FE
4C
28
ENDCHAR
STARTCHAR 2196
ENCODING 8598
SWIDTH 777 0
DWIDTH 7 0
BBX 5 5 1 1
BITMAP
F0
C0
E0
B0
98
ENDCHAR
STARTCHAR 2197
ENCODING 8599
SWIDTH 777 0
DWIDTH 7 0
BBX 6 5 1 1
BITMAP
78
1C
3C
6C
C8
ENDCHAR
STARTCHAR 2198
ENCODING 8600
SWIDTH 777 0
DWIDTH 7 0
BBX 5 5 1 0
BITMAP
C8
68
38
18
78
ENDCHAR
STARTCHAR 2199
ENCODING 8601
SWIDTH 777 0
DWIDTH 7 0
BBX 5 5 1 0
BITMAP
98
B0
E0
C0
F0
ENDCHAR
STARTCHAR 21BA
ENCODING 8634
SWIDTH 777 0
DWIDTH 7 0
BBX 6 7 1 0
BITMAP
20
78
2C
84
84
CC
78
ENDCHAR
STARTCHAR 21BB
ENCODING 8635
SWIDTH 777 0
DWIDTH 7 0
BBX 6 7 1 0
BITMAP
30
78
D0
84
84
CC
78
ENDCHAR
STARTCHAR 21C5
ENCODING 8645
SWIDTH 1111 0
DWIDTH 10 0
BBX 9 7 1 0
BITMAP
2200
7200
FA00
2200
2B80
2700
2200
ENDCHAR
STARTCHAR 21E7
ENCODING 8679
SWIDTH 1000 0
DWIDTH 9 0
BBX 8 6 1 0
BITMAP
18
3C
66
E7
24
3C
ENDCHAR
STARTCHAR 21EA
ENCODING 8682
SWIDTH 1000 0
DWIDTH 9 0
BBX 7 8 1 -1
BITMAP
30
78
CC
CE
78
00
78
78
ENDCHAR
STARTCHAR 2202
ENCODING 8706
SWIDTH 666 0
DWIDTH 6 0
BBX 5 7 0 0
BITMAP
20
30
18
78
C8
D8
70
ENDCHAR
STARTCHAR 2206
ENCODING 8710
SWIDTH 888 0
DWIDTH 8 0
BBX 6 6 1 0
BITMAP
30
78
78
48
CC
FC
ENDCHAR
STARTCHAR 220F
ENCODING 8719
SWIDTH 777 0
DWIDTH 7 0
BBX 7 7 0 -1
BITMAP
FE
6C
6C
6C
6C
6C
6C
ENDCHAR
STARTCHAR 2211
ENCODING 8721
SWIDTH 555 0
DWIDTH 5 0
BBX 4 7 1 -1
BITMAP
F0
C0
60
30
60
C0
F0
ENDCHAR
STARTCHAR 2212
ENCODING 8722
SWIDTH 666 0
DWIDTH 6 0
BBX 4 2 1 2
BITMAP
F0
F0
ENDCHAR
STARTCHAR 2219
ENCODING 8729
SWIDTH 333 0
DWIDTH 3 0
BBX 2 2 1 2
BITMAP
C0
C0
ENDCHAR
STARTCHAR 221A
ENCODING 8730
SWIDTH 777 0
DWIDTH 7 0
BBX 7 10 1 -2
BITMAP
0E
18
18
18
18
30
B0
F0
E0
E0
ENDCHAR
STARTCHAR 221E
ENCODING 8734
SWIDTH 888 0
DWIDTH 8 0
BBX 8 3 0 1
BITMAP
7F
D9
7F
ENDCHAR
STARTCHAR 222B
ENCODING 8747
SWIDTH 555 0
DWIDTH 5 0
BBX 5 7 0 -1
BITMAP
38
30
30
20
60
60
E0
ENDCHAR
STARTCHAR 2248
ENCODING 8776
SWIDTH 666 0
DWIDTH 6 0
BBX 4 5 1 0
BITMAP
50
F0
00
F0
B0
ENDCHAR
STARTCHAR 2260
ENCODING 8800
SWIDTH 666 0
DWIDTH 6 0
BBX 5 5 0 0
BITMAP
10
F8
20
F8
60
ENDCHAR
STARTCHAR 2264
ENCODING 8804
SWIDTH 666 0
DWIDTH 6 0
BBX 4 5 1 0
BITMAP
30
E0
F0
00
F0
ENDCHAR
STARTCHAR 2265
ENCODING 8805
SWIDTH 666 0
DWIDTH 6 0
BBX 4 5 1 0
BITMAP
C0
F0
F0
00
F0
ENDCHAR
STARTCHAR 2295
ENCODING 8853
SWIDTH 888 0
DWIDTH 8 0
BBX 7 6 1 0
BITMAP
7C
D6
BA
92
C6
7C
ENDCHAR
STARTCHAR 2296
ENCODING 8854
SWIDTH 888 0
DWIDTH 8 0
BBX 7 6 1 0
BITMAP
7C
C6
82
BA
C6
7C
ENDCHAR
STARTCHAR 2297
ENCODING 8855
SWIDTH 888 0
DWIDTH 8 0
BBX 7 6 1 0
BITMAP
7C
C6
BA
BA
C6
7C
ENDCHAR
STARTCHAR 229C
ENCODING 8860
SWIDTH 888 0
DWIDTH 8 0
BBX 7 6 1 0
BITMAP
7C
C6
BA
BA
C6
7C
ENDCHAR
STARTCHAR 229D
ENCODING 8861
SWIDTH 888 0
DWIDTH 8 0
BBX 7 6 1 0
BITMAP
7C
C6
82
BA
C6
7C
ENDCHAR
STARTCHAR 2303
ENCODING 8963
SWIDTH 888 0
DWIDTH 8 0
BBX 6 4 1 2
BITMAP
30
78
CC
84
ENDCHAR
STARTCHAR 2305
ENCODING 8965
SWIDTH 888 0
DWIDTH 8 0
BBX 6 5 1 1
BITMAP
FC
00
70
D8
CC
ENDCHAR
STARTCHAR 2318
ENCODING 8984
SWIDTH 888 0
DWIDTH 8 0
BBX 7 6 1 0
BITMAP
EC
AA
FC
28
FE
EE
ENDCHAR
STARTCHAR 2325
ENCODING 8997
SWIDTH 1000 0
DWIDTH 9 0
BBX 7 6 1 0
BITMAP
EE
20
10
10
08
0E
ENDCHAR
STARTCHAR 2326
ENCODING 8998
SWIDTH 1000 0
DWIDTH 9 0
BBX 7 6 1 0
BITMAP
F8
84
B6
B6
84
F8
ENDCHAR
STARTCHAR 2327
ENCODING 8999
SWIDTH 888 0
DWIDTH 8 0
BBX 6 6 1 0
BITMAP
FC
84
B4
B4
84
FC
ENDCHAR
STARTCHAR 232B
ENCODING 9003
SWIDTH 1000 0
DWIDTH 9 0
BBX 7 6 1 0
BITMAP
7E
42
9A
9A
42
7E
ENDCHAR
STARTCHAR 2387
ENCODING 9095
SWIDTH 1000 0
DWIDTH 9 0
BBX 7 6 1 0
BITMAP
0E
18
10
10
20
EE
ENDCHAR
STARTCHAR 238B
ENCODING 9099
SWIDTH 888 0
DWIDTH 8 0
BBX 7 6 1 0
BITMAP
DC
C6
22
82
C6
7C
ENDCHAR
STARTCHAR 23CE
ENCODING 9166
SWIDTH 1111 0
DWIDTH 10 0
BBX 8 7 0 -1
BITMAP
0F
01
21
61
FF
60
20
ENDCHAR
STARTCHAR 23CF
ENCODING 9167
SWIDTH 1000 0
DWIDTH 9 0
BBX 7 7 1 0
BITMAP
10
38
4C
FE
7C
FE
FE
ENDCHAR
STARTCHAR 23FB
ENCODING 9211
SWIDTH 888 0
DWIDTH 8 0
BBX 7 7 1 0
BITMAP
10
54
96
92
82
C4
78
ENDCHAR
STARTCHAR 23FC
ENCODING 9212
SWIDTH 888 0
DWIDTH 8 0
BBX 7 6 1 0
BITMAP
7C
D6
92
92
D6
7C
ENDCHAR
STARTCHAR 23FD
ENCODING 9213
SWIDTH 333 0
DWIDTH 3 0
BBX 2 7 1 0
BITMAP
80
C0
C0
C0
C0
C0
80
ENDCHAR
STARTCHAR 23FE
ENCODING 9214
SWIDTH 888 0
DWIDTH 8 0
BBX 6 7 1 -1
BITMAP
40
80
C0
C0
F0
7C
30
ENDCHAR
STARTCHAR 2460
ENCODING 9312
SWIDTH 888 0
DWIDTH 8 0
BBX 7 6 1 0
BITMAP
7C
C6
B2
92
C6
7C
ENDCHAR
STARTCHAR 2461
ENCODING 9313
SWIDTH 888 0
DWIDTH 8 0
BBX 7 7 1 0
BITMAP
38
4C
B2
BA
BA
C4
7C
ENDCHAR
STARTCHAR 2462
ENCODING 9314
SWIDTH 888 0
DWIDTH 8 0
BBX 7 6 1 0
BITMAP
7C
C6
9A
9A
C6
7C
ENDCHAR
STARTCHAR 2463
ENCODING 9315
SWIDTH 888 0
DWIDTH 8 0
BBX 7 6 1 0
BITMAP
7C
C6
B2
B2
C6
7C
ENDCHAR
STARTCHAR 2464
ENCODING 9316
SWIDTH 888 0
DWIDTH 8 0
BBX 7 7 1 0
BITMAP
38
46
BA
A2
BA
C6
7C
ENDCHAR
STARTCHAR 2465
ENCODING 9317
SWIDTH 888 0
DWIDTH 8 0
BBX 7 7 1 0
BITMAP
38
66
9A
A2
BA
C6
7C
ENDCHAR
STARTCHAR 2466
ENCODING 9318
SWIDTH 888 0
DWIDTH 8 0
BBX 7 6 1 0
BITMAP
7C
C6
BA
92
D6
7C
ENDCHAR
STARTCHAR 2467
ENCODING 9319
SWIDTH 888 0
DWIDTH 8 0
BBX 7 6 1 0
BITMAP
7C
C6
9A
BA
C6
7C
ENDCHAR
STARTCHAR 2468
ENCODING 9320
SWIDTH 888 0
DWIDTH 8 0
BBX 7 7 1 0
BITMAP
38
6C
9A
AA
BA
C6
7C
ENDCHAR
STARTCHAR 2472
ENCODING 9330
SWIDTH 888 0
DWIDTH 8 0
BBX 7 7 1 0
BITMAP
38
44
BA
BA
BA
C4
78
ENDCHAR
STARTCHAR 24B6
ENCODING 9398
SWIDTH 888 0
DWIDTH 8 0
BBX 7 6 1 0
BITMAP
7C
C6
B2
BA
E6
7C
ENDCHAR
STARTCHAR 24B7
ENCODING 9399
SWIDTH 888 0
DWIDTH 8 0
BBX 7 6 1 0
BITMAP
7C
C6
BA
BA
C6
7C
ENDCHAR
STARTCHAR 24B8
ENCODING 9400
SWIDTH 888 0
DWIDTH 8 0
BBX 7 7 1 0
BITMAP
38
44
B2
A2
B2
C4
7C
ENDCHAR
STARTCHAR 24B9
ENCODING 9401
SWIDTH 888 0
DWIDTH 8 0
BBX 7 7 1 0
BITMAP
38
44
BA
AA
BA
C6
7C
ENDCHAR
STARTCHAR 24BA
ENCODING 9402
SWIDTH 888 0
DWIDTH 8 0
BBX 7 6 1 0
BITMAP
7C
C6
B2
B2
C6
7C
ENDCHAR
STARTCHAR 24BB
ENCODING 9403
SWIDTH 888 0
DWIDTH 8 0
BBX 7 6 1 0
BITMAP
7C
C6
B2
B2
C6
7C
ENDCHAR
STARTCHAR 24BC
ENCODING 9404
SWIDTH 888 0
DWIDTH 8 0
BBX 7 6 1 0
BITMAP
7C
C6
B2
AA
D6
7C
ENDCHAR
STARTCHAR 24BD
ENCODING 9405
SWIDTH 888 0
DWIDTH 8 0
BBX 7 6 1 0
BITMAP
7C
C6
AA
BA
C6
7C
ENDCHAR
STARTCHAR 24BE
ENCODING 9406
SWIDTH 888 0
DWIDTH 8 0
BBX 7 6 1 0
BITMAP
7C
C6
92
92
C6
7C
ENDCHAR
STARTCHAR 24BF
ENCODING 9407
SWIDTH 888 0
DWIDTH 8 0
BBX 7 6 1 0
BITMAP
7C
C6
92
B2
C6
7C
ENDCHAR
STARTCHAR 24C0
ENCODING 9408
SWIDTH 888 0
DWIDTH 8 0
BBX 7 6 1 0
BITMAP
7C
C6
B2
B2
C6
7C
ENDCHAR
STARTCHAR 24C1
ENCODING 9409
SWIDTH 888 0
DWIDTH 8 0
BBX 7 6 1 0
BITMAP
7C
C6
A2
B2
C6
7C
ENDCHAR
STARTCHAR 24C2
ENCODING 9410
SWIDTH 888 0
DWIDTH 8 0
BBX 7 6 1 0
BITMAP
7C
C6
AA
BA
DE
7C
ENDCHAR
STARTCHAR 24C3
ENCODING 9411
SWIDTH 888 0
DWIDTH 8 0
BBX 7 6 1 0
BITMAP
7C
C6
BA
AA
C6
7C
ENDCHAR
STARTCHAR 24C4
ENCODING 9412
SWIDTH 888 0
DWIDTH 8 0
BBX 7 7 1 0
BITMAP
38
44
BA
AA
BA
C6
7C
ENDCHAR
STARTCHAR 24C5
ENCODING 9413
SWIDTH 888 0
DWIDTH 8 0
BBX 7 6 1 0
BITMAP
7C
C6
BA
BA
C6
7C
ENDCHAR
STARTCHAR 24C6
ENCODING 9414
SWIDTH 888 0
DWIDTH 8 0
BBX 7 7 1 0
BITMAP
38
44
BA
AA
BA
CE
7C
ENDCHAR
STARTCHAR 24C7
ENCODING 9415
SWIDTH 888 0
DWIDTH 8 0
BBX 7 6 1 0
BITMAP
7C
C6
BA
B2
C6
7C
ENDCHAR
STARTCHAR 24C8
ENCODING 9416
SWIDTH 888 0
DWIDTH 8 0
BBX 7 7 1 0
BITMAP
38
66
92
BA
BA
C6
7C
ENDCHAR
STARTCHAR 24C9
ENCODING 9417
SWIDTH 888 0
DWIDTH 8 0
BBX 7 7 1 0
BITMAP
38
44
BA
92
92
C4
7C
ENDCHAR
STARTCHAR 24CA
ENCODING 9418
SWIDTH 888 0
DWIDTH 8 0
BBX 7 6 1 0
BITMAP
7C
C6
AA
BA
C6
7C
ENDCHAR
STARTCHAR 24CB
ENCODING 9419
SWIDTH 888 0
DWIDTH 8 0
BBX 7 6 1 0
BITMAP
7C
EE
AA
BA
D6
7C
ENDCHAR
STARTCHAR 24CC
ENCODING 9420
SWIDTH 888 0
DWIDTH 8 0
BBX 7 6 1 0
BITMAP
7C
C6
BA
AA
C6
7C
ENDCHAR
STARTCHAR 24CD
ENCODING 9421
SWIDTH 888 0
DWIDTH 8 0
BBX 7 6 1 0
BITMAP
7C
C6
BA
BA
C6
7C
ENDCHAR
STARTCHAR 24CE
ENCODING 9422
SWIDTH 888 0
DWIDTH 8 0
BBX 7 6 1 0
BITMAP
7C
EE
BA
92
D6
7C
ENDCHAR
STARTCHAR 24CF
ENCODING 9423
SWIDTH 888 0
DWIDTH 8 0
BBX 7 6 1 0
BITMAP
7C
C6
BA
92
C6
7C
ENDCHAR
STARTCHAR 24EA
ENCODING 9450
SWIDTH 888 0
DWIDTH 8 0
BBX 7 7 1 0
BITMAP
38
46
9A
AA
BA
C6
7C
ENDCHAR
STARTCHAR 24F3
ENCODING 9459
SWIDTH 888 0
DWIDTH 8 0
BBX 7 7 1 0
BITMAP
10
7C
FC
EE
D6
FC
78
ENDCHAR
STARTCHAR 24FF
ENCODING 9471
SWIDTH 888 0
DWIDTH 8 0
BBX 7 8 1 -1
BITMAP
38
7C
EE
C6
D6
EE
7C
38
ENDCHAR
STARTCHAR 25A0
ENCODING 9632
SWIDTH 888 0
DWIDTH 8 0
BBX 7 7 1 0
BITMAP
78
FC
FE
FE
FE
FE
FC
ENDCHAR
STARTCHAR 25A1
ENCODING 9633
SWIDTH 888 0
DWIDTH 8 0
BBX 6 6 1 0
BITMAP
FC
84
84
84
84
FC
ENDCHAR
STARTCHAR 25B2
ENCODING 9650
SWIDTH 777 0
DWIDTH 7 0
BBX 5 6 1 0
BITMAP
20
60
70
F0
F8
F8
ENDCHAR
STARTCHAR 25B3
ENCODING 9651
SWIDTH 777 0
DWIDTH 7 0
BBX 6 5 0 1
BITMAP
30
38
68
4C
FC
ENDCHAR
STARTCHAR 25B4
ENCODING 9652
SWIDTH 444 0
DWIDTH 4 0
BBX 3 3 1 1
BITMAP
40
C0
E0
ENDCHAR
STARTCHAR 25B6
ENCODING 9654
SWIDTH 777 0
DWIDTH 7 0
BBX 6 5 1 0
BITMAP
E0
F8
FC
F0
C0
ENDCHAR
STARTCHAR 25B7
ENCODING 9655
SWIDTH 777 0
DWIDTH 7 0
BBX 5 6 1 0
BITMAP
80
E0
B8
98
F0
C0
ENDCHAR
STARTCHAR 25B8
ENCODING 9656
SWIDTH 444 0
DWIDTH 4 0
BBX 3 3 1 1
BITMAP
C0
E0
C0
ENDCHAR
STARTCHAR 25BC
ENCODING 9660
SWIDTH 777 0
DWIDTH 7 0
BBX 5 6 1 0
BITMAP
F8
F8
F8
70
70
20
ENDCHAR
STARTCHAR 25BD
ENCODING 9661
SWIDTH 777 0
DWIDTH 7 0
BBX 6 5 0 0
BITMAP
FC
4C
68
38
30
ENDCHAR
STARTCHAR 25BE
ENCODING 9662
SWIDTH 444 0
DWIDTH 4 0
BBX 3 3 1 1
BITMAP
E0
C0
40
ENDCHAR
STARTCHAR 25C0
ENCODING 9664
SWIDTH 777 0
DWIDTH 7 0
BBX 6 5 0 0
BITMAP
1C
7C
FC
3C
0C
ENDCHAR
STARTCHAR 25C1
ENCODING 9665
SWIDTH 777 0
DWIDTH 7 0
BBX 5 6 1 0
BITMAP
08
38
E8
C8
78
18
ENDCHAR
STARTCHAR 25C2
ENCODING 9666
SWIDTH 444 0
DWIDTH 4 0
BBX 3 3 1 1
BITMAP
60
E0
60
ENDCHAR
STARTCHAR 25CA
ENCODING 9674
SWIDTH 555 0
DWIDTH 5 0
BBX 4 6 1 0
BITMAP
40
E0
B0
B0
E0
40
ENDCHAR
STARTCHAR 25CB
ENCODING 9675
SWIDTH 888 0
DWIDTH 8 0
BBX 7 6 1 0
BITMAP
7C
C6
82
82
C6
7C
ENDCHAR
STARTCHAR 25CF
ENCODING 9679
SWIDTH 888 0
DWIDTH 8 0
BBX 7 7 1 -1
BITMAP
78
FC
FE
FE
FE
FC
38
ENDCHAR
STARTCHAR 25E6
ENCODING 9702
SWIDTH 444 0
DWIDTH 4 0
BBX 4 3 0 1
BITMAP
F0
90
F0
ENDCHAR
STARTCHAR 2605
ENCODING 9733
SWIDTH 1000 0
DWIDTH 9 0
BBX 7 7 1 0
BITMAP
10
18
FE
FE
7C
7C
6C
ENDCHAR
STARTCHAR 2606
ENCODING 9734
SWIDTH 1000 0
DWIDTH 9 0
BBX 7 7 1 0
BITMAP
10
18
EE
C6
24
7C
64
ENDCHAR
STARTCHAR 2611
ENCODING 9745
SWIDTH 888 0
DWIDTH 8 0
BBX 6 6 1 0
BITMAP
FC
84
94
B4
A4
FC
ENDCHAR
STARTCHAR 2612
ENCODING 9746
SWIDTH 888 0
DWIDTH 8 0
BBX 6 6 1 0
BITMAP
FC
84
B4
B4
84
FC
ENDCHAR
STARTCHAR 263E
ENCODING 9790
SWIDTH 888 0
DWIDTH 8 0
BBX 6 6 1 0
BITMAP
40
C0
C0
E0
FC
78
ENDCHAR
STARTCHAR 2660
ENCODING 9824
SWIDTH 888 0
DWIDTH 8 0
BBX 7 7 1 0
BITMAP
10
38
7C
FE
FE
FC
38
ENDCHAR
STARTCHAR 2661
ENCODING 9825
SWIDTH 1000 0
DWIDTH 9 0
BBX 7 6 1 0
BITMAP
FC
92
82
C6
6C
38
ENDCHAR
STARTCHAR 2662
ENCODING 9826
SWIDTH 777 0
DWIDTH 7 0
BBX 6 7 0 -1
BITMAP
30
38
4C
C4
48
38
30
ENDCHAR
STARTCHAR 2663
ENCODING 9827
SWIDTH 888 0
DWIDTH 8 0
BBX 7 7 1 -1
BITMAP
38
38
7C
FE
FE
3C
38
ENDCHAR
STARTCHAR 2664
ENCODING 9828
SWIDTH 888 0
DWIDTH 8 0
BBX 6 7 1 0
BITMAP
30
30
48
84
84
FC
78
ENDCHAR
STARTCHAR 2665
ENCODING 9829
SWIDTH 1000 0
DWIDTH 9 0
BBX 7 6 1 0
BITMAP
EC
FE
FE
FE
7C
38
ENDCHAR
STARTCHAR 2666
ENCODING 9830
SWIDTH 777 0
DWIDTH 7 0
BBX 6 7 0 -1
BITMAP
30
38
7C
FC
78
38
30
ENDCHAR
STARTCHAR 2667
ENCODING 9831
SWIDTH 888 0
DWIDTH 8 0
BBX 7 6 1 0
BITMAP
38
28
EE
82
EE
78
ENDCHAR
STARTCHAR 26A0
ENCODING 9888
SWIDTH 1000 0
DWIDTH 9 0
BBX 7 6 1 0
BITMAP
30
28
5C
54
96
FE
ENDCHAR
STARTCHAR 26AC
ENCODING 9900
SWIDTH 666 0
DWIDTH 6 0
BBX 5 4 0 1
BITMAP
70
88
88
70
ENDCHAR
STARTCHAR 2708
ENCODING 9992
SWIDTH 1000 0
DWIDTH 9 0
BBX 8 7 1 0
BITMAP
20
30
98
FF
FF
B0
20
ENDCHAR
STARTCHAR 2713
ENCODING 10003
SWIDTH 888 0
DWIDTH 8 0
BBX 6 6 1 0
BITMAP
04
0C
98
D8
70
20
ENDCHAR
STARTCHAR 2717
ENCODING 10007
SWIDTH 777 0
DWIDTH 7 0
BBX 6 6 1 0
BITMAP
80
D8
78
70
F8
CC
ENDCHAR
STARTCHAR 275B
ENCODING 10075
SWIDTH 444 0
DWIDTH 4 0
BBX 3 4 1 2
BITMAP
C0
E0
E0
E0
ENDCHAR
STARTCHAR 275C
ENCODING 10076
SWIDTH 444 0
DWIDTH 4 0
BBX 3 4 1 2
BITMAP
E0
E0
E0
40
ENDCHAR
STARTCHAR 275D
ENCODING 10077
SWIDTH 888 0
DWIDTH 8 0
BBX 7 4 1 2
BITMAP
C8
FC
FE
EC
ENDCHAR
STARTCHAR 275E
ENCODING 10078
SWIDTH 888 0
DWIDTH 8 0
BBX 6 4 1 2
BITMAP
EC
FC
EC
44
ENDCHAR
STARTCHAR 2776
ENCODING 10102
SWIDTH 888 0
DWIDTH 8 0
BBX 7 8 1 -1
BITMAP
38
7C
CE
CE
EE
EE
7C
38
ENDCHAR
STARTCHAR 2777
ENCODING 10103
SWIDTH 888 0
DWIDTH 8 0
BBX 7 8 1 -1
BITMAP
38
7C
C6
C6
EE
C6
7C
38
ENDCHAR
STARTCHAR 2778
ENCODING 10104
SWIDTH 888 0
DWIDTH 8 0
BBX 7 8 1 -1
BITMAP
38
7C
C6
EE
D6
C6
7C
38
ENDCHAR
STARTCHAR 2779
ENCODING 10105
SWIDTH 888 0
DWIDTH 8 0
BBX 7 8 1 -1
BITMAP
38
7C
EE
DE
C6
FE
7C
38
ENDCHAR
STARTCHAR 277A
ENCODING 10106
SWIDTH 888 0
DWIDTH 8 0
BBX 7 8 1 -1
BITMAP
38
7C
C6
CE
F6
CE
7C
38
ENDCHAR
STARTCHAR 277B
ENCODING 10107
SWIDTH 888 0
DWIDTH 8 0
BBX 7 8 1 -1
BITMAP
38
7C
C6
DE
D6
C6
7C
38
ENDCHAR
STARTCHAR 277C
ENCODING 10108
SWIDTH 888 0
DWIDTH 8 0
BBX 7 8 1 -1
BITMAP
38
7C
C6
C6
EE
EE
7C
38
ENDCHAR
STARTCHAR 277D
ENCODING 10109
SWIDTH 888 0
DWIDTH 8 0
BBX 7 8 1 -1
BITMAP
38
7C
C6
C6
D6
C6
7C
38
ENDCHAR
STARTCHAR 277E
ENCODING 10110
SWIDTH 888 0
DWIDTH 8 0
BBX 7 8 1 -1
BITMAP
38
7C
CE
D6
F6
CE
7C
38
ENDCHAR
STARTCHAR 2780
ENCODING 10112
SWIDTH 888 0
DWIDTH 8 0
BBX 7 6 1 0
BITMAP
7C
C6
B2
92
C6
7C
ENDCHAR
STARTCHAR 2781
ENCODING 10113
SWIDTH 888 0
DWIDTH 8 0
BBX 7 7 1 0
BITMAP
38
4C
B2
BA
BA
C4
7C
ENDCHAR
STARTCHAR 2782
ENCODING 10114
SWIDTH 888 0
DWIDTH 8 0
BBX 7 6 1 0
BITMAP
7C
C6
9A
9A
C6
7C
ENDCHAR
STARTCHAR 2783
ENCODING 10115
SWIDTH 888 0
DWIDTH 8 0
BBX 7 6 1 0
BITMAP
7C
C6
B2
B2
C6
7C
ENDCHAR
STARTCHAR 2784
ENCODING 10116
SWIDTH 888 0
DWIDTH 8 0
BBX 7 7 1 0
BITMAP
38
46
BA
A2
BA
C6
7C
ENDCHAR
STARTCHAR 2785
ENCODING 10117
SWIDTH 888 0
DWIDTH 8 0
BBX 7 7 1 0
BITMAP
38
66
9A
A2
BA
C6
7C
ENDCHAR
STARTCHAR 2786
ENCODING 10118
SWIDTH 888 0
DWIDTH 8 0
BBX 7 6 1 0
BITMAP
7C
C6
BA
92
D6
7C
ENDCHAR
STARTCHAR 2787
ENCODING 10119
SWIDTH 888 0
DWIDTH 8 0
BBX 7 6 1 0
BITMAP
7C
C6
9A
BA
C6
7C
ENDCHAR
STARTCHAR 2788
ENCODING 10120
SWIDTH 888 0
DWIDTH 8 0
BBX 7 7 1 0
BITMAP
38
6C
9A
AA
BA
C6
7C
ENDCHAR
STARTCHAR 278A
ENCODING 10122
SWIDTH 888 0
DWIDTH 8 0
BBX 7 8 1 -1
BITMAP
38
7C
CE
CE
EE
EE
7C
38
ENDCHAR
STARTCHAR 278B
ENCODING 10123
SWIDTH 888 0
DWIDTH 8 0
BBX 7 8 1 -1
BITMAP
38
7C
C6
C6
EE
C6
7C
38
ENDCHAR
STARTCHAR 278C
ENCODING 10124
SWIDTH 888 0
DWIDTH 8 0
BBX 7 8 1 -1
BITMAP
38
7C
C6
EE
D6
C6
7C
38
ENDCHAR
STARTCHAR 278D
ENCODING 10125
SWIDTH 888 0
DWIDTH 8 0
BBX 7 8 1 -1
BITMAP
38
7C
EE
DE
C6
FE
7C
38
ENDCHAR
STARTCHAR 278E
ENCODING 10126
SWIDTH 888 0
DWIDTH 8 0
BBX 7 8 1 -1
BITMAP
38
7C
C6
CE
F6
CE
7C
38
ENDCHAR
STARTCHAR 278F
ENCODING 10127
SWIDTH 888 0
DWIDTH 8 0
BBX 7 8 1 -1
BITMAP
38
7C
C6
DE
D6
C6
7C
38
ENDCHAR
STARTCHAR 2790
ENCODING 10128
SWIDTH 888 0
DWIDTH 8 0
BBX 7 8 1 -1
BITMAP
38
7C
C6
C6
EE
EE
7C
38
ENDCHAR
STARTCHAR 2791
ENCODING 10129
SWIDTH 888 0
DWIDTH 8 0
BBX 7 8 1 -1
BITMAP
38
7C
C6
C6
D6
C6
7C
38
ENDCHAR
STARTCHAR 2792
ENCODING 10130
SWIDTH 888 0
DWIDTH 8 0
BBX 7 8 1 -1
BITMAP
38
7C
CE
D6
F6
CE
7C
38
ENDCHAR
STARTCHAR 2912
ENCODING 10514
SWIDTH 777 0
DWIDTH 7 0
BBX 6 8 1 -1
BITMAP
FC
F8
70
F8
AC
20
20
20
ENDCHAR
STARTCHAR 2913
ENCODING 10515
SWIDTH 777 0
DWIDTH 7 0
BBX 6 8 1 -1
BITMAP
20
20
20
AC
F8
70
F8
FC
ENDCHAR
STARTCHAR 2934
ENCODING 10548
SWIDTH 777 0
DWIDTH 7 0
BBX 5 6 1 0
BITMAP
30
78
A8
20
20
E0
ENDCHAR
STARTCHAR 2935
ENCODING 10549
SWIDTH 777 0
DWIDTH 7 0
BBX 5 6 1 0
BITMAP
E0
20
20
A8
78
30
ENDCHAR
STARTCHAR 2936
ENCODING 10550
SWIDTH 888 0
DWIDTH 8 0
BBX 6 5 1 0
BITMAP
64
C4
FC
40
20
ENDCHAR
STARTCHAR 2937
ENCODING 10551
SWIDTH 888 0
DWIDTH 8 0
BBX 6 5 1 0
BITMAP
98
8C
FC
08
10
ENDCHAR
STARTCHAR 2981
ENCODING 10625
SWIDTH 666 0
DWIDTH 6 0
BBX 4 4 1 2
BITMAP
F0
F0
F0
E0
ENDCHAR
STARTCHAR 2B58
ENCODING 11096
SWIDTH 888 0
DWIDTH 8 0
BBX 7 6 1 0
BITMAP
7C
C6
82
82
C6
7C
ENDCHAR
STARTCHAR F6D5
ENCODING 63189
SWIDTH 777 0
DWIDTH 7 0
BBX 5 6 1 0
BITMAP
30
78
A8
20
20
38
ENDCHAR
STARTCHAR F6D6
ENCODING 63190
SWIDTH 777 0
DWIDTH 7 0
BBX 5 6 1 0
BITMAP
38
20
20
A8
78
30
ENDCHAR
STARTCHAR F6D7
ENCODING 63191
SWIDTH 888 0
DWIDTH 8 0
BBX 6 5 1 0
BITMAP
60
C0
FC
44
24
ENDCHAR
STARTCHAR F6D8
ENCODING 63192
SWIDTH 888 0
DWIDTH 8 0
BBX 6 5 1 0
BITMAP
18
0C
FC
88
90
ENDCHAR
STARTCHAR F79B
ENCODING 63387
SWIDTH 1222 0
DWIDTH 11 0
BBX 8 4 2 1
BITMAP
38
EE
EF
38
ENDCHAR
STARTCHAR F79E
ENCODING 63390
SWIDTH 888 0
DWIDTH 8 0
BBX 6 6 1 0
BITMAP
FC
CC
DC
DC
FC
FC
ENDCHAR
STARTCHAR F860
ENCODING 63584
SWIDTH 0 0
DWIDTH 0 0
BBX 0 0 0 0
BITMAP
ENDCHAR
STARTCHAR F861
ENCODING 63585
SWIDTH 0 0
DWIDTH 0 0
BBX 0 0 0 0
BITMAP
ENDCHAR
STARTCHAR F8FF
ENCODING 63743
SWIDTH 666 0
DWIDTH 6 0
BBX 5 6 1 0
BITMAP
20
F0
F0
F0
F8
70
ENDCHAR
STARTCHAR FB01
ENCODING 64257
SWIDTH 888 0
DWIDTH 8 0
BBX 6 7 1 1
BITMAP
6C
60
EC
6C
6C
6C
6C
ENDCHAR
STARTCHAR FB02
ENCODING 64258
SWIDTH 888 0
DWIDTH 8 0
BBX 6 7 1 0
BITMAP
6C
6C
EC
6C
6C
6C
6C
ENDCHAR
STARTCHAR FFFD
ENCODING 65533
SWIDTH 1000 0
DWIDTH 9 0
BBX 8 8 1 -1
BITMAP
18
3C
66
E7
FF
6E
3C
18
ENDCHAR
ENDFONT
